# Blender v2.80 (sub 75) OBJ File: 'text.blend'
# www.blender.org
o Text.001
v 3.114000 22.319876 -8.123771
v 3.088037 22.304455 -8.118157
v 3.062130 22.290169 -8.112959
v 3.036250 22.277060 -8.108187
v 3.010370 22.265163 -8.103857
v 2.984463 22.254520 -8.099983
v 2.958500 22.245171 -8.096580
v 2.932454 22.237148 -8.093660
v 2.906296 22.230499 -8.091241
v 2.880000 22.225260 -8.089333
v 2.853537 22.221468 -8.087954
v 2.826880 22.219166 -8.087115
v 2.800000 22.218390 -8.086832
v 2.758461 22.220186 -8.087487
v 2.719852 22.225567 -8.089445
v 2.684187 22.234510 -8.092700
v 2.651481 22.246998 -8.097245
v 2.621747 22.263008 -8.103073
v 2.595000 22.282524 -8.110175
v 2.571252 22.305523 -8.118546
v 2.550518 22.331987 -8.128180
v 2.532812 22.361898 -8.139066
v 2.518148 22.395235 -8.151199
v 2.506539 22.431978 -8.164573
v 2.498000 22.472107 -8.179178
v 3.130000 22.472107 -8.179178
v 3.126871 22.546776 -8.206356
v 3.117639 22.614817 -8.231120
v 3.102531 22.676254 -8.253482
v 3.081778 22.731113 -8.273449
v 3.055608 22.779419 -8.291031
v 3.024250 22.821199 -8.306238
v 2.987934 22.856482 -8.319079
v 2.946889 22.885290 -8.329565
v 2.901344 22.907652 -8.337704
v 2.851528 22.923592 -8.343506
v 2.797671 22.933136 -8.346979
v 2.740000 22.936314 -8.348136
v 2.679639 22.932764 -8.346844
v 2.622778 22.922323 -8.343043
v 2.569750 22.905306 -8.336849
v 2.520889 22.882021 -8.328375
v 2.476528 22.852787 -8.317735
v 2.437000 22.817913 -8.305041
v 2.402639 22.777716 -8.290411
v 2.373778 22.732506 -8.273955
v 2.350750 22.682596 -8.255791
v 2.333889 22.628304 -8.236030
v 2.323528 22.569939 -8.214787
v 2.320000 22.507812 -8.192174
v 2.323231 22.450020 -8.171139
v 2.332852 22.393621 -8.150612
v 2.348750 22.339314 -8.130845
v 2.370815 22.287785 -8.112090
v 2.398935 22.239727 -8.094599
v 2.433000 22.195833 -8.078623
v 2.472898 22.156794 -8.064414
v 2.518519 22.123302 -8.052224
v 2.569750 22.096048 -8.042304
v 2.626482 22.075726 -8.034907
v 2.688602 22.063025 -8.030285
v 2.756000 22.058641 -8.028689
v 2.792912 22.059309 -8.028933
v 2.827796 22.061323 -8.029665
v 2.860875 22.064692 -8.030891
v 2.892370 22.069433 -8.032617
v 2.922504 22.075556 -8.034845
v 2.951500 22.083076 -8.037582
v 2.979578 22.092005 -8.040833
v 3.006963 22.102358 -8.044600
v 3.033875 22.114145 -8.048891
v 3.060537 22.127382 -8.053709
v 3.087171 22.142078 -8.059058
v 3.114000 22.158247 -8.064943
v 2.502000 22.582991 -8.219537
v 2.509206 22.615124 -8.231233
v 2.518815 22.644773 -8.242023
v 2.530812 22.671877 -8.251888
v 2.545185 22.696377 -8.260806
v 2.561919 22.718216 -8.268754
v 2.581000 22.737331 -8.275712
v 2.602414 22.753670 -8.281658
v 2.626148 22.767168 -8.286572
v 2.652187 22.777769 -8.290430
v 2.680518 22.785414 -8.293213
v 2.711127 22.790043 -8.294897
v 2.744000 22.791599 -8.295465
v 2.774486 22.789936 -8.294859
v 2.802889 22.785023 -8.293070
v 2.829125 22.776978 -8.290142
v 2.853111 22.765917 -8.286117
v 2.874764 22.751957 -8.281035
v 2.894000 22.735220 -8.274943
v 2.910736 22.715818 -8.267882
v 2.924889 22.693874 -8.259895
v 2.936375 22.669500 -8.251023
v 2.945111 22.642817 -8.241311
v 2.951014 22.613939 -8.230802
v 2.954000 22.582991 -8.219537
v 2.238000 22.919399 -8.341980
v 2.038000 22.919399 -8.341980
v 1.806000 22.443914 -8.168918
v 1.564000 22.919399 -8.341980
v 1.362000 22.919399 -8.341980
v 1.710000 22.255976 -8.100513
v 1.404000 21.643297 -7.877516
v 1.602000 21.643297 -7.877516
v 1.212000 23.357296 -8.501361
v 1.028000 23.357296 -8.501361
v 1.028000 22.364981 -8.140187
v 0.104000 23.357296 -8.501361
v -0.052000 23.357296 -8.501361
v -0.052000 22.075556 -8.034845
v 0.132000 22.075556 -8.034845
v 0.132000 23.062231 -8.393966
v 1.044000 22.075556 -8.034845
v 1.212000 22.075556 -8.034845
v -0.886000 23.357296 -8.501361
v -1.064000 23.357296 -8.501361
v -1.064000 22.075556 -8.034845
v -0.886000 22.075556 -8.034845
v -1.324000 23.357296 -8.501361
v -1.502000 23.357296 -8.501361
v -1.502000 22.075556 -8.034845
v -1.324000 22.075556 -8.034845
v -1.762000 22.919399 -8.341980
v -1.940000 22.919399 -8.341980
v -1.940000 22.075556 -8.034845
v -1.762000 22.075556 -8.034845
v -1.744000 23.174995 -8.435009
v -1.744978 23.188404 -8.439889
v -1.747824 23.201298 -8.444582
v -1.752406 23.213552 -8.449042
v -1.758593 23.225042 -8.453224
v -1.766251 23.235645 -8.457084
v -1.775250 23.245237 -8.460574
v -1.785457 23.253693 -8.463653
v -1.796741 23.260889 -8.466271
v -1.808969 23.266701 -8.468387
v -1.822010 23.271008 -8.469954
v -1.835731 23.273682 -8.470927
v -1.850000 23.274603 -8.471263
v -1.864270 23.273684 -8.470928
v -1.877991 23.271009 -8.469954
v -1.891032 23.266703 -8.468388
v -1.903260 23.260891 -8.466272
v -1.914543 23.253695 -8.463653
v -1.924750 23.245239 -8.460575
v -1.933749 23.235647 -8.457085
v -1.941408 23.225044 -8.453225
v -1.947594 23.213554 -8.449043
v -1.952176 23.201300 -8.444583
v -1.955022 23.188406 -8.439890
v -1.956000 23.174995 -8.435009
v -1.955022 23.161587 -8.430129
v -1.952176 23.148693 -8.425436
v -1.947594 23.136438 -8.420976
v -1.941408 23.124949 -8.416793
v -1.933749 23.114346 -8.412934
v -1.924750 23.104753 -8.409443
v -1.914543 23.096296 -8.406364
v -1.903259 23.089100 -8.403746
v -1.891031 23.083288 -8.401630
v -1.877991 23.078983 -8.400064
v -1.864270 23.076309 -8.399090
v -1.850000 23.075388 -8.398754
v -1.835730 23.076307 -8.399089
v -1.822009 23.078981 -8.400063
v -1.808969 23.083286 -8.401629
v -1.796741 23.089098 -8.403745
v -1.785457 23.096294 -8.406364
v -1.775250 23.104752 -8.409442
v -1.766251 23.114344 -8.412933
v -1.758593 23.124947 -8.416793
v -1.752406 23.136438 -8.420975
v -1.747824 23.148691 -8.425435
v -1.744978 23.161585 -8.430128
v -3.046000 22.075556 -8.034845
v -2.578000 22.075556 -8.034845
v -2.496948 22.079271 -8.036198
v -2.424583 22.089930 -8.040077
v -2.360594 22.106800 -8.046218
v -2.304667 22.129152 -8.054353
v -2.256490 22.156256 -8.064219
v -2.215750 22.187380 -8.075546
v -2.182136 22.221792 -8.088071
v -2.155334 22.258762 -8.101527
v -2.135031 22.297560 -8.115648
v -2.120917 22.337452 -8.130168
v -2.112677 22.377712 -8.144821
v -2.110000 22.417604 -8.159341
v -2.112558 22.459826 -8.174708
v -2.120130 22.499939 -8.189308
v -2.132562 22.537794 -8.203087
v -2.149704 22.573244 -8.215989
v -2.171400 22.606134 -8.227961
v -2.197500 22.636316 -8.238946
v -2.227849 22.663641 -8.248891
v -2.262296 22.687956 -8.257741
v -2.300687 22.709112 -8.265441
v -2.342870 22.726959 -8.271937
v -2.388692 22.741350 -8.277175
v -2.438000 22.752132 -8.281099
v -2.438000 22.755894 -8.282468
v -2.404078 22.770193 -8.287673
v -2.373287 22.785875 -8.293381
v -2.345594 22.802994 -8.299611
v -2.320963 22.821600 -8.306383
v -2.299360 22.841747 -8.313717
v -2.280750 22.863487 -8.321629
v -2.265098 22.886871 -8.330140
v -2.252370 22.911951 -8.339269
v -2.242531 22.938780 -8.349033
v -2.235546 22.967411 -8.359454
v -2.231381 22.997894 -8.370549
v -2.230000 23.030283 -8.382338
v -2.232649 23.070669 -8.397038
v -2.240695 23.110626 -8.411580
v -2.254281 23.149565 -8.425753
v -2.273556 23.186897 -8.439341
v -2.298663 23.222036 -8.452130
v -2.329750 23.254396 -8.463909
v -2.366962 23.283390 -8.474462
v -2.410444 23.308428 -8.483575
v -2.460344 23.328926 -8.491035
v -2.516806 23.344294 -8.496628
v -2.579976 23.353945 -8.500141
v -2.650000 23.357296 -8.501361
v -3.046000 23.357296 -8.501361
v -2.850000 23.191910 -8.441165
v -2.670000 23.191910 -8.441165
v -2.627505 23.190228 -8.440553
v -2.589870 23.185341 -8.438774
v -2.556875 23.177492 -8.435918
v -2.528296 23.166922 -8.432070
v -2.503912 23.153872 -8.427320
v -2.483500 23.138582 -8.421756
v -2.466838 23.121298 -8.415464
v -2.453703 23.102257 -8.408534
v -2.443875 23.081701 -8.401052
v -2.437129 23.059875 -8.393108
v -2.433245 23.037016 -8.384789
v -2.432000 23.013369 -8.376182
v -2.433962 22.980516 -8.364224
v -2.439861 22.950556 -8.353319
v -2.449719 22.923479 -8.343465
v -2.463556 22.899281 -8.334657
v -2.481392 22.877954 -8.326895
v -2.503250 22.859491 -8.320175
v -2.529149 22.843887 -8.314495
v -2.559111 22.831135 -8.309854
v -2.593156 22.821230 -8.306249
v -2.631306 22.814159 -8.303676
v -2.673580 22.809923 -8.302134
v -2.720000 22.808516 -8.301621
v -2.850000 22.808516 -8.301621
v -2.850000 22.643129 -8.241426
v -2.614000 22.643129 -8.241426
v -2.564784 22.641436 -8.240809
v -2.520102 22.636465 -8.239000
v -2.479906 22.628389 -8.236060
v -2.444148 22.617376 -8.232052
v -2.412779 22.603596 -8.227036
v -2.385750 22.587219 -8.221076
v -2.363013 22.568415 -8.214231
v -2.344518 22.547352 -8.206565
v -2.330219 22.524200 -8.198138
v -2.320065 22.499130 -8.189014
v -2.314008 22.472313 -8.179254
v -2.312000 22.443914 -8.168918
v -2.313353 22.419786 -8.160135
v -2.317657 22.395599 -8.151332
v -2.325281 22.371765 -8.142657
v -2.336593 22.348694 -8.134260
v -2.351959 22.326797 -8.126290
v -2.371750 22.306486 -8.118897
v -2.396332 22.288174 -8.112232
v -2.426074 22.272266 -8.106442
v -2.461344 22.259178 -8.101679
v -2.502509 22.249321 -8.098091
v -2.549939 22.243105 -8.095828
v -2.604000 22.240942 -8.095041
v -2.850000 22.240942 -8.095041
vn -0.0000 0.3421 0.9397
vn 0.0000 0.3420 0.9397
vn 0.0000 0.3422 0.9396
vn -0.0003 0.3452 0.9385
vn -0.0001 0.3425 0.9395
vn 0.0000 0.3419 0.9397
vn -0.0001 0.3420 0.9397
vn 0.0001 0.3420 0.9397
vn -0.0000 0.3424 0.9396
vn -0.0000 0.3423 0.9396
vn 0.0001 0.3410 0.9401
vn -0.0001 0.3413 0.9399
vn -0.0000 0.3429 0.9394
vn 0.0000 0.3417 0.9398
vn -0.0000 0.3418 0.9398
vn -0.0000 0.3421 0.9396
vn 0.0000 0.3400 0.9404
vn 0.0000 0.3425 0.9395
s off
f 39//1 37//1 38//1
f 39//2 36//2 37//2
f 40//3 36//3 39//3
f 40//2 35//2 36//2
f 41//1 35//1 40//1
f 41//2 34//2 35//2
f 42//2 34//2 41//2
f 42//2 33//2 34//2
f 43//2 33//2 42//2
f 43//2 32//2 33//2
f 44//2 32//2 43//2
f 44//2 31//2 32//2
f 45//2 87//2 44//2
f 87//2 31//2 44//2
f 45//4 86//4 87//4
f 88//5 31//5 87//5
f 45//3 85//3 86//3
f 89//2 31//2 88//2
f 45//2 84//2 85//2
f 90//6 31//6 89//6
f 90//2 30//2 31//2
f 45//2 83//2 84//2
f 46//2 83//2 45//2
f 91//1 30//1 90//1
f 46//3 82//3 83//3
f 92//2 30//2 91//2
f 46//6 81//6 82//6
f 93//2 30//2 92//2
f 46//1 80//1 81//1
f 94//2 30//2 93//2
f 47//2 80//2 46//2
f 94//2 29//2 30//2
f 47//2 79//2 80//2
f 95//6 29//6 94//6
f 47//2 78//2 79//2
f 96//2 29//2 95//2
f 48//2 78//2 47//2
f 96//2 28//2 29//2
f 48//1 77//1 78//1
f 97//2 28//2 96//2
f 48//2 76//2 77//2
f 98//2 28//2 97//2
f 49//2 76//2 48//2
f 49//1 75//1 76//1
f 98//2 27//2 28//2
f 99//2 27//2 98//2
f 49//2 99//2 75//2
f 49//2 27//2 99//2
f 50//2 27//2 49//2
f 50//2 26//2 27//2
f 51//2 25//2 50//2
f 25//2 26//2 50//2
f 51//2 24//2 25//2
f 52//2 24//2 51//2
f 52//2 23//2 24//2
f 52//1 22//1 23//1
f 53//2 22//2 52//2
f 53//2 21//2 22//2
f 54//2 21//2 53//2
f 54//2 20//2 21//2
f 2//7 74//7 1//7
f 54//2 19//2 20//2
f 3//7 74//7 2//7
f 4//8 74//8 3//8
f 55//2 19//2 54//2
f 55//2 18//2 19//2
f 5//2 74//2 4//2
f 6//2 74//2 5//2
f 55//2 17//2 18//2
f 7//1 74//1 6//1
f 55//2 16//2 17//2
f 8//6 74//6 7//6
f 56//2 16//2 55//2
f 9//1 74//1 8//1
f 56//1 15//1 16//1
f 10//2 74//2 9//2
f 56//6 14//6 15//6
f 11//6 74//6 10//6
f 12//6 74//6 11//6
f 56//9 13//9 14//9
f 13//3 74//3 12//3
f 56//2 74//2 13//2
f 57//2 74//2 56//2
f 57//1 73//1 74//1
f 58//2 73//2 57//2
f 58//2 72//2 73//2
f 58//1 71//1 72//1
f 59//2 71//2 58//2
f 59//1 70//1 71//1
f 59//2 69//2 70//2
f 60//2 69//2 59//2
f 60//2 68//2 69//2
f 60//1 67//1 68//1
f 61//6 67//6 60//6
f 61//1 66//1 67//1
f 61//6 65//6 66//6
f 61//6 64//6 65//6
f 62//10 64//10 61//10
f 62//11 63//11 64//11
f 105//2 103//2 104//2
f 105//2 102//2 103//2
f 102//2 100//2 101//2
f 102//2 107//2 100//2
f 105//2 107//2 102//2
f 106//2 107//2 105//2
f 113//2 111//2 112//2
f 113//2 115//2 111//2
f 115//2 110//2 111//2
f 110//2 108//2 109//2
f 110//2 117//2 108//2
f 113//2 114//2 115//2
f 116//2 110//2 115//2
f 116//2 117//2 110//2
f 120//2 118//2 119//2
f 120//2 121//2 118//2
f 124//2 122//2 123//2
f 124//2 125//2 122//2
f 143//12 141//12 142//12
f 144//13 141//13 143//13
f 144//14 140//14 141//14
f 145//2 140//2 144//2
f 145//15 139//15 140//15
f 146//3 139//3 145//3
f 146//3 138//3 139//3
f 147//2 138//2 146//2
f 147//15 137//15 138//15
f 148//16 137//16 147//16
f 148//3 136//3 137//3
f 149//6 136//6 148//6
f 149//6 135//6 136//6
f 150//1 135//1 149//1
f 150//1 134//1 135//1
f 151//1 134//1 150//1
f 151//2 133//2 134//2
f 152//6 133//6 151//6
f 152//2 132//2 133//2
f 153//2 132//2 152//2
f 153//2 131//2 132//2
f 154//1 131//1 153//1
f 154//2 130//2 131//2
f 155//2 130//2 154//2
f 155//2 177//2 130//2
f 156//2 177//2 155//2
f 156//2 176//2 177//2
f 157//2 176//2 156//2
f 157//1 175//1 176//1
f 158//3 175//3 157//3
f 158//6 174//6 175//6
f 159//6 174//6 158//6
f 159//1 173//1 174//1
f 160//1 173//1 159//1
f 160//6 172//6 173//6
f 161//3 172//3 160//3
f 161//15 171//15 172//15
f 162//2 171//2 161//2
f 162//10 170//10 171//10
f 163//15 170//15 162//15
f 163//1 169//1 170//1
f 164//16 169//16 163//16
f 164//3 168//3 169//3
f 165//2 168//2 164//2
f 165//13 167//13 168//13
f 166//17 167//17 165//17
f 128//2 126//2 127//2
f 128//2 129//2 126//2
f 178//2 230//2 229//2
f 230//2 228//2 229//2
f 230//2 227//2 228//2
f 230//2 226//2 227//2
f 230//2 225//2 226//2
f 230//2 224//2 225//2
f 230//2 223//2 224//2
f 230//2 222//2 223//2
f 230//1 221//1 222//1
f 230//2 231//2 221//2
f 231//2 220//2 221//2
f 178//2 256//2 230//2
f 232//2 220//2 231//2
f 233//1 220//1 232//1
f 233//2 219//2 220//2
f 234//15 219//15 233//15
f 235//1 219//1 234//1
f 236//2 219//2 235//2
f 237//1 219//1 236//1
f 237//2 218//2 219//2
f 238//3 218//3 237//3
f 239//2 218//2 238//2
f 239//2 217//2 218//2
f 240//2 217//2 239//2
f 241//2 217//2 240//2
f 241//2 216//2 217//2
f 242//1 216//1 241//1
f 243//2 216//2 242//2
f 243//2 215//2 216//2
f 244//1 215//1 243//1
f 244//2 214//2 215//2
f 245//1 214//1 244//1
f 245//2 213//2 214//2
f 246//2 213//2 245//2
f 246//2 212//2 213//2
f 247//1 212//1 246//1
f 247//2 211//2 212//2
f 248//2 211//2 247//2
f 248//2 210//2 211//2
f 249//1 210//1 248//1
f 249//2 209//2 210//2
f 250//2 209//2 249//2
f 251//2 209//2 250//2
f 251//2 208//2 209//2
f 252//1 208//1 251//1
f 252//2 207//2 208//2
f 253//1 207//1 252//1
f 254//6 207//6 253//6
f 255//18 207//18 254//18
f 178//2 257//2 256//2
f 257//2 255//2 256//2
f 257//2 207//2 255//2
f 257//16 206//16 207//16
f 257//6 205//6 206//6
f 257//3 204//3 205//3
f 257//1 203//1 204//1
f 257//2 202//2 203//2
f 257//2 201//2 202//2
f 257//2 200//2 201//2
f 257//2 199//2 200//2
f 257//1 198//1 199//1
f 257//2 258//2 198//2
f 258//2 197//2 198//2
f 178//2 283//2 257//2
f 259//15 197//15 258//15
f 260//1 197//1 259//1
f 261//1 197//1 260//1
f 261//2 196//2 197//2
f 262//2 196//2 261//2
f 263//2 196//2 262//2
f 263//2 195//2 196//2
f 264//2 195//2 263//2
f 265//2 195//2 264//2
f 265//2 194//2 195//2
f 266//2 194//2 265//2
f 267//1 194//1 266//1
f 267//2 193//2 194//2
f 268//2 193//2 267//2
f 268//2 192//2 193//2
f 269//1 192//1 268//1
f 270//2 192//2 269//2
f 270//2 191//2 192//2
f 271//1 191//1 270//1
f 272//2 191//2 271//2
f 272//2 190//2 191//2
f 273//2 190//2 272//2
f 273//2 189//2 190//2
f 274//1 189//1 273//1
f 275//2 189//2 274//2
f 275//2 188//2 189//2
f 276//2 188//2 275//2
f 277//2 188//2 276//2
f 277//2 187//2 188//2
f 278//2 187//2 277//2
f 279//2 187//2 278//2
f 280//1 187//1 279//1
f 280//2 186//2 187//2
f 281//6 186//6 280//6
f 282//2 186//2 281//2
f 178//2 282//2 283//2
f 178//2 186//2 282//2
f 178//2 185//2 186//2
f 178//2 184//2 185//2
f 178//1 183//1 184//1
f 178//2 182//2 183//2
f 178//2 181//2 182//2
f 178//1 180//1 181//1
f 178//3 179//3 180//3
