# Blender v2.80 (sub 75) OBJ File: 'text.blend'
# www.blender.org
o Text.001
v 2.522000 23.094181 -8.405595
v 2.188000 22.787842 -8.294096
v 2.188000 22.769049 -8.287256
v 2.344000 22.769049 -8.287256
v 2.344000 22.323633 -8.125138
v 2.346041 22.286442 -8.111602
v 2.352158 22.251146 -8.098756
v 2.362344 22.218008 -8.086694
v 2.376593 22.187275 -8.075508
v 2.394897 22.159204 -8.065291
v 2.417250 22.134050 -8.056136
v 2.443645 22.112070 -8.048136
v 2.474074 22.093513 -8.041382
v 2.508531 22.078640 -8.035968
v 2.547009 22.067699 -8.031986
v 2.589501 22.060949 -8.029530
v 2.636000 22.058641 -8.028689
v 2.651250 22.059141 -8.028871
v 2.667834 22.060600 -8.029402
v 2.685500 22.062960 -8.030261
v 2.704000 22.066160 -8.031425
v 2.723083 22.070145 -8.032876
v 2.742500 22.074852 -8.034590
v 2.762000 22.080227 -8.036546
v 2.781333 22.086206 -8.038722
v 2.800250 22.092737 -8.041099
v 2.818500 22.099754 -8.043653
v 2.835833 22.107204 -8.046365
v 2.852000 22.115023 -8.049211
v 2.852000 22.271011 -8.105986
v 2.834123 22.261105 -8.102380
v 2.816482 22.252062 -8.099089
v 2.799062 22.243877 -8.096109
v 2.781852 22.236555 -8.093445
v 2.764836 22.230097 -8.091094
v 2.748000 22.224497 -8.089056
v 2.731331 22.219761 -8.087332
v 2.714815 22.215883 -8.085920
v 2.698437 22.212868 -8.084824
v 2.682185 22.210716 -8.084040
v 2.666044 22.209423 -8.083570
v 2.650000 22.208992 -8.083412
v 2.636558 22.209604 -8.083635
v 2.622463 22.211542 -8.084340
v 2.608063 22.214954 -8.085583
v 2.593704 22.219992 -8.087416
v 2.579734 22.226805 -8.089895
v 2.566500 22.235542 -8.093076
v 2.554350 22.246353 -8.097011
v 2.543630 22.259390 -8.101756
v 2.534688 22.274803 -8.107366
v 2.527871 22.292740 -8.113894
v 2.523526 22.313353 -8.121397
v 2.522000 22.336790 -8.129927
v 2.522000 22.769049 -8.287256
v 2.806000 22.769049 -8.287256
v 2.806000 22.919399 -8.341980
v 2.522000 22.919399 -8.341980
v 2.058000 22.919399 -8.341980
v 1.880000 22.919399 -8.341980
v 1.880000 22.075556 -8.034845
v 2.058000 22.075556 -8.034845
v 2.076000 23.174995 -8.435009
v 2.075022 23.188404 -8.439889
v 2.072176 23.201298 -8.444582
v 2.067594 23.213552 -8.449042
v 2.061408 23.225042 -8.453224
v 2.053749 23.235645 -8.457084
v 2.044750 23.245237 -8.460574
v 2.034543 23.253693 -8.463653
v 2.023259 23.260889 -8.466271
v 2.011031 23.266701 -8.468387
v 1.997991 23.271008 -8.469954
v 1.984270 23.273682 -8.470927
v 1.970000 23.274603 -8.471263
v 1.955730 23.273684 -8.470928
v 1.942009 23.271009 -8.469954
v 1.928969 23.266703 -8.468388
v 1.916741 23.260891 -8.466272
v 1.905457 23.253695 -8.463653
v 1.895250 23.245239 -8.460575
v 1.886251 23.235647 -8.457085
v 1.878592 23.225044 -8.453225
v 1.872406 23.213554 -8.449043
v 1.867824 23.201300 -8.444583
v 1.864978 23.188406 -8.439890
v 1.864000 23.174995 -8.435009
v 1.864978 23.161587 -8.430129
v 1.867824 23.148693 -8.425436
v 1.872406 23.136438 -8.420976
v 1.878593 23.124949 -8.416793
v 1.886251 23.114346 -8.412934
v 1.895250 23.104753 -8.409443
v 1.905457 23.096296 -8.406364
v 1.916741 23.089100 -8.403746
v 1.928969 23.083288 -8.401630
v 1.942009 23.078983 -8.400064
v 1.955730 23.076309 -8.399090
v 1.970000 23.075388 -8.398754
v 1.984270 23.076307 -8.399089
v 1.997991 23.078981 -8.400063
v 2.011031 23.083286 -8.401629
v 2.023259 23.089098 -8.403745
v 2.034543 23.096294 -8.406364
v 2.044750 23.104752 -8.409442
v 2.053749 23.114344 -8.412933
v 2.061408 23.124947 -8.416793
v 2.067594 23.136438 -8.420975
v 2.072176 23.148691 -8.425435
v 2.075022 23.161585 -8.430128
v 0.326000 22.919399 -8.341980
v 0.326000 22.075556 -8.034845
v 0.504000 22.075556 -8.034845
v 0.504000 22.688234 -8.257843
v 0.522234 22.707319 -8.264789
v 0.540037 22.724230 -8.270944
v 0.557562 22.739067 -8.276344
v 0.574963 22.751925 -8.281024
v 0.592391 22.762905 -8.285020
v 0.610000 22.772102 -8.288368
v 0.627942 22.779617 -8.291102
v 0.646370 22.785545 -8.293261
v 0.665437 22.789988 -8.294877
v 0.685296 22.793037 -8.295987
v 0.706099 22.794796 -8.296627
v 0.728000 22.795361 -8.296833
v 0.749674 22.794134 -8.296387
v 0.770556 22.790411 -8.295032
v 0.790438 22.784113 -8.292740
v 0.809111 22.775175 -8.289486
v 0.826368 22.763521 -8.285245
v 0.842000 22.749081 -8.279988
v 0.855799 22.731783 -8.273693
v 0.867556 22.711555 -8.266331
v 0.877063 22.688324 -8.257875
v 0.884111 22.662022 -8.248302
v 0.888493 22.632570 -8.237582
v 0.890000 22.599905 -8.225693
v 0.890000 22.075556 -8.034845
v 1.068000 22.075556 -8.034845
v 1.068000 22.688234 -8.257843
v 1.084272 22.703407 -8.263365
v 1.101009 22.717834 -8.268616
v 1.118094 22.731401 -8.273554
v 1.135407 22.743988 -8.278135
v 1.152832 22.755482 -8.282318
v 1.170250 22.765759 -8.286058
v 1.187543 22.774706 -8.289315
v 1.204593 22.782204 -8.292044
v 1.221281 22.788136 -8.294204
v 1.237491 22.792383 -8.295750
v 1.253103 22.794830 -8.296639
v 1.268000 22.795361 -8.296833
v 1.293087 22.793917 -8.296308
v 1.317194 22.789618 -8.294743
v 1.340094 22.782499 -8.292151
v 1.361556 22.772600 -8.288548
v 1.381351 22.759960 -8.283948
v 1.399250 22.744617 -8.278364
v 1.415024 22.726614 -8.271811
v 1.428444 22.705986 -8.264303
v 1.439281 22.682774 -8.255855
v 1.447306 22.657017 -8.246480
v 1.452288 22.628754 -8.236193
v 1.454000 22.598024 -8.225008
v 1.454000 22.075556 -8.034845
v 1.632000 22.075556 -8.034845
v 1.632000 22.605541 -8.227744
v 1.629612 22.653898 -8.245345
v 1.622565 22.699215 -8.261839
v 1.611031 22.741268 -8.277145
v 1.595185 22.779837 -8.291183
v 1.575200 22.814699 -8.303872
v 1.551250 22.845633 -8.315131
v 1.523508 22.872417 -8.324880
v 1.492148 22.894829 -8.333036
v 1.457344 22.912647 -8.339521
v 1.419269 22.925648 -8.344254
v 1.378096 22.933611 -8.347152
v 1.334000 22.936314 -8.348136
v 1.302698 22.934898 -8.347621
v 1.272750 22.930780 -8.346122
v 1.244094 22.924158 -8.343712
v 1.216667 22.915226 -8.340461
v 1.190406 22.904179 -8.336439
v 1.165250 22.891212 -8.331720
v 1.141135 22.876522 -8.326373
v 1.118000 22.860306 -8.320471
v 1.095781 22.842758 -8.314084
v 1.074417 22.824076 -8.307284
v 1.053844 22.804453 -8.300142
v 1.034000 22.784082 -8.292728
v 1.018300 22.808004 -8.301435
v 1.001231 22.829947 -8.309422
v 0.982844 22.849892 -8.316681
v 0.963185 22.867821 -8.323206
v 0.942304 22.883713 -8.328991
v 0.920250 22.897551 -8.334027
v 0.897071 22.909315 -8.338309
v 0.872815 22.918982 -8.341827
v 0.847531 22.926535 -8.344577
v 0.821268 22.931955 -8.346549
v 0.794075 22.935221 -8.347738
v 0.766000 22.936314 -8.348136
v 0.744956 22.935450 -8.347821
v 0.723815 22.932852 -8.346875
v 0.702562 22.928503 -8.345293
v 0.681185 22.922394 -8.343069
v 0.659669 22.914509 -8.340199
v 0.638000 22.904835 -8.336679
v 0.616164 22.893360 -8.332502
v 0.594148 22.880074 -8.327665
v 0.571937 22.864958 -8.322165
v 0.549518 22.848003 -8.315993
v 0.526877 22.829195 -8.309148
v 0.504000 22.808516 -8.301621
v 0.504000 22.919399 -8.341980
v -0.446000 22.919399 -8.341980
v -0.446000 22.075556 -8.034845
v -0.268000 22.075556 -8.034845
v -0.268000 22.517210 -8.195595
v -0.266041 22.552711 -8.208516
v -0.260324 22.586668 -8.220875
v -0.251094 22.618784 -8.232565
v -0.238593 22.648766 -8.243477
v -0.223064 22.676321 -8.253507
v -0.204750 22.701155 -8.262545
v -0.183895 22.722973 -8.270486
v -0.160741 22.741482 -8.277223
v -0.135531 22.756390 -8.282649
v -0.108509 22.767403 -8.286657
v -0.079918 22.774225 -8.289141
v -0.050000 22.776566 -8.289992
v -0.038942 22.775873 -8.289740
v -0.026870 22.773834 -8.288999
v -0.013938 22.770517 -8.287790
v -0.000296 22.765985 -8.286141
v 0.013900 22.760305 -8.284074
v 0.028500 22.753544 -8.281613
v 0.043349 22.745764 -8.278781
v 0.058296 22.737030 -8.275602
v 0.073187 22.727407 -8.272100
v 0.087870 22.716965 -8.268299
v 0.102192 22.705765 -8.264222
v 0.116000 22.693874 -8.259895
v 0.210000 22.838587 -8.312566
v 0.191619 22.854326 -8.318295
v 0.173454 22.868664 -8.323514
v 0.155469 22.881605 -8.328223
v 0.137630 22.893156 -8.332428
v 0.119902 22.903324 -8.336128
v 0.102250 22.912115 -8.339329
v 0.084640 22.919537 -8.342030
v 0.067037 22.925592 -8.344234
v 0.049406 22.930292 -8.345944
v 0.031713 22.933640 -8.347162
v 0.013922 22.935644 -8.347892
v -0.004000 22.936314 -8.348136
v -0.025043 22.935007 -8.347660
v -0.046176 22.931032 -8.346213
v -0.067406 22.924303 -8.343764
v -0.088741 22.914736 -8.340282
v -0.110186 22.902246 -8.335736
v -0.131750 22.886745 -8.330094
v -0.153439 22.868153 -8.323327
v -0.175259 22.846380 -8.315403
v -0.197219 22.821348 -8.306292
v -0.219324 22.792967 -8.295961
v -0.241582 22.761152 -8.284382
v -0.264000 22.725822 -8.271523
v -0.268000 22.725822 -8.271523
v -0.268000 22.919399 -8.341980
v -0.666000 22.319876 -8.123771
v -0.691963 22.304455 -8.118157
v -0.717870 22.290169 -8.112959
v -0.743750 22.277060 -8.108187
v -0.769630 22.265163 -8.103857
v -0.795537 22.254520 -8.099983
v -0.821500 22.245171 -8.096580
v -0.847546 22.237148 -8.093660
v -0.873704 22.230499 -8.091241
v -0.900000 22.225260 -8.089333
v -0.926463 22.221468 -8.087954
v -0.953120 22.219166 -8.087115
v -0.980000 22.218390 -8.086832
v -1.021539 22.220186 -8.087487
v -1.060148 22.225567 -8.089445
v -1.095812 22.234510 -8.092700
v -1.128518 22.246998 -8.097245
v -1.158252 22.263008 -8.103073
v -1.185000 22.282524 -8.110175
v -1.208748 22.305523 -8.118546
v -1.229481 22.331987 -8.128180
v -1.247187 22.361898 -8.139066
v -1.261852 22.395235 -8.151199
v -1.273461 22.431978 -8.164573
v -1.282000 22.472107 -8.179178
v -0.650000 22.472107 -8.179178
v -0.653129 22.546776 -8.206356
v -0.662361 22.614817 -8.231120
v -0.677469 22.676254 -8.253482
v -0.698222 22.731113 -8.273449
v -0.724392 22.779419 -8.291031
v -0.755750 22.821199 -8.306238
v -0.792066 22.856482 -8.319079
v -0.833111 22.885290 -8.329565
v -0.878656 22.907652 -8.337704
v -0.928472 22.923592 -8.343506
v -0.982330 22.933136 -8.346979
v -1.040000 22.936314 -8.348136
v -1.100361 22.932764 -8.346844
v -1.157222 22.922323 -8.343043
v -1.210250 22.905306 -8.336849
v -1.259111 22.882021 -8.328375
v -1.303472 22.852787 -8.317735
v -1.343000 22.817913 -8.305041
v -1.377361 22.777716 -8.290411
v -1.406222 22.732506 -8.273955
v -1.429250 22.682596 -8.255791
v -1.446111 22.628304 -8.236030
v -1.456472 22.569939 -8.214787
v -1.460000 22.507812 -8.192174
v -1.456769 22.450020 -8.171139
v -1.447148 22.393621 -8.150612
v -1.431250 22.339314 -8.130845
v -1.409185 22.287785 -8.112090
v -1.381065 22.239727 -8.094599
v -1.347000 22.195833 -8.078623
v -1.307102 22.156794 -8.064414
v -1.261482 22.123302 -8.052224
v -1.210250 22.096048 -8.042304
v -1.153519 22.075726 -8.034907
v -1.091398 22.063025 -8.030285
v -1.024000 22.058641 -8.028689
v -0.987088 22.059309 -8.028933
v -0.952204 22.061323 -8.029665
v -0.919125 22.064692 -8.030891
v -0.887630 22.069433 -8.032617
v -0.857495 22.075556 -8.034845
v -0.828500 22.083076 -8.037582
v -0.800421 22.092005 -8.040833
v -0.773037 22.102358 -8.044600
v -0.746125 22.114145 -8.048891
v -0.719463 22.127382 -8.053709
v -0.692829 22.142078 -8.059058
v -0.666000 22.158247 -8.064943
v -1.278000 22.582991 -8.219537
v -1.270794 22.615124 -8.231233
v -1.261185 22.644773 -8.242023
v -1.249187 22.671877 -8.251888
v -1.234815 22.696377 -8.260806
v -1.218081 22.718216 -8.268754
v -1.199000 22.737331 -8.275712
v -1.177586 22.753670 -8.281658
v -1.153852 22.767168 -8.286572
v -1.127812 22.777769 -8.290430
v -1.099481 22.785414 -8.293213
v -1.068873 22.790043 -8.294897
v -1.036000 22.791599 -8.295465
v -1.005514 22.789936 -8.294859
v -0.977111 22.785023 -8.293070
v -0.950875 22.776978 -8.290142
v -0.926889 22.765917 -8.286117
v -0.905236 22.751957 -8.281035
v -0.886000 22.735220 -8.274943
v -0.869264 22.715818 -8.267882
v -0.855111 22.693874 -8.259895
v -0.843625 22.669500 -8.251023
v -0.834889 22.642817 -8.241311
v -0.828986 22.613939 -8.230802
v -0.826000 22.582991 -8.219537
v -2.284000 22.750256 -8.280416
v -1.690000 23.357296 -8.501361
v -1.934000 23.357296 -8.501361
v -2.508000 22.770927 -8.287940
v -2.508000 23.357296 -8.501361
v -2.704000 23.357296 -8.501361
v -2.704000 22.075556 -8.034845
v -2.508000 22.075556 -8.034845
v -2.508000 22.708908 -8.265367
v -1.814000 22.075556 -8.034845
v -1.544000 22.075556 -8.034845
vn -0.0000 0.3420 0.9397
vn 0.0000 0.0000 1.0000
vn 0.0001 0.3420 0.9397
vn -0.0001 0.3420 0.9397
vn -0.0000 0.3421 0.9397
vn 0.0000 0.3421 0.9396
vn 0.0000 0.3419 0.9397
vn 0.0000 0.3418 0.9398
vn -0.0001 0.3421 0.9397
vn 0.0001 0.3419 0.9398
vn 0.0001 0.3421 0.9397
vn 0.0001 0.3419 0.9397
vn 0.0000 0.3422 0.9396
vn 0.0000 0.3423 0.9396
vn -0.0000 0.3425 0.9395
vn -0.0000 0.3416 0.9399
vn 0.0001 0.3432 0.9393
vn -0.0001 0.3413 0.9399
vn -0.0000 0.3424 0.9396
vn 0.0000 0.3414 0.9399
vn 0.0000 0.3429 0.9394
vn 0.0000 0.3400 0.9404
vn -0.0000 0.3409 0.9401
vn -0.0000 0.3417 0.9398
vn 0.0000 0.3402 0.9404
vn -0.0001 0.3419 0.9397
vn 0.0005 0.3423 0.9396
vn -0.0023 0.3439 0.9390
vn 0.0000 0.3415 0.9399
vn -0.0003 0.3466 0.9380
vn -0.0001 0.3425 0.9395
vn 0.0001 0.3410 0.9401
s off
f 2//1 58//1 1//1
f 2//1 57//1 58//1
f 2//1 56//1 57//1
f 3//1 56//1 2//1
f 4//2 56//2 3//2
f 5//1 55//1 4//1
f 55//2 56//2 4//2
f 5//1 54//1 55//1
f 5//1 53//1 54//1
f 6//1 53//1 5//1
f 6//1 52//1 53//1
f 6//1 51//1 52//1
f 7//1 51//1 6//1
f 7//1 50//1 51//1
f 31//3 29//3 30//3
f 32//4 29//4 31//4
f 7//1 49//1 50//1
f 33//1 29//1 32//1
f 8//5 49//5 7//5
f 8//6 48//6 49//6
f 34//3 29//3 33//3
f 35//4 29//4 34//4
f 8//7 47//7 48//7
f 36//1 29//1 35//1
f 8//1 46//1 47//1
f 37//1 29//1 36//1
f 8//8 45//8 46//8
f 38//1 29//1 37//1
f 9//1 45//1 8//1
f 39//3 29//3 38//3
f 9//6 44//6 45//6
f 40//9 29//9 39//9
f 9//10 43//10 44//10
f 41//11 29//11 40//11
f 9//7 42//7 43//7
f 42//12 29//12 41//12
f 9//1 29//1 42//1
f 10//1 29//1 9//1
f 11//1 29//1 10//1
f 12//1 29//1 11//1
f 12//13 28//13 29//13
f 13//7 28//7 12//7
f 13//7 27//7 28//7
f 13//5 26//5 27//5
f 14//5 26//5 13//5
f 14//7 25//7 26//7
f 14//1 24//1 25//1
f 14//1 23//1 24//1
f 15//7 23//7 14//7
f 15//14 22//14 23//14
f 15//1 21//1 22//1
f 16//1 21//1 15//1
f 16//8 20//8 21//8
f 16//15 19//15 20//15
f 17//16 19//16 16//16
f 17//17 18//17 19//17
f 76//18 74//18 75//18
f 77//19 74//19 76//19
f 77//20 73//20 74//20
f 78//14 73//14 77//14
f 78//8 72//8 73//8
f 79//5 72//5 78//5
f 79//13 71//13 72//13
f 80//1 71//1 79//1
f 80//7 70//7 71//7
f 81//6 70//6 80//6
f 81//13 69//13 70//13
f 82//7 69//7 81//7
f 82//7 68//7 69//7
f 83//13 68//13 82//13
f 83//1 67//1 68//1
f 84//5 67//5 83//5
f 84//1 66//1 67//1
f 85//7 66//7 84//7
f 85//7 65//7 66//7
f 86//5 65//5 85//5
f 86//1 64//1 65//1
f 87//5 64//5 86//5
f 87//1 63//1 64//1
f 88//1 63//1 87//1
f 88//5 110//5 63//5
f 89//1 110//1 88//1
f 89//7 109//7 110//7
f 90//1 109//1 89//1
f 90//1 108//1 109//1
f 91//13 108//13 90//13
f 91//1 107//1 108//1
f 92//7 107//7 91//7
f 92//5 106//5 107//5
f 93//1 106//1 92//1
f 93//7 105//7 106//7
f 94//13 105//13 93//13
f 94//8 104//8 105//8
f 95//6 104//6 94//6
f 95//13 103//13 104//13
f 96//8 103//8 95//8
f 96//5 102//5 103//5
f 97//6 102//6 96//6
f 97//13 101//13 102//13
f 98//1 101//1 97//1
f 98//21 100//21 101//21
f 99//22 100//22 98//22
f 61//1 59//1 60//1
f 61//1 62//1 59//1
f 205//23 203//23 204//23
f 181//20 179//20 180//20
f 206//7 203//7 205//7
f 206//15 202//15 203//15
f 182//15 179//15 181//15
f 182//6 178//6 179//6
f 207//8 202//8 206//8
f 207//8 201//8 202//8
f 183//1 178//1 182//1
f 208//13 201//13 207//13
f 208//1 200//1 201//1
f 183//1 177//1 178//1
f 184//7 177//7 183//7
f 209//24 200//24 208//24
f 112//1 217//1 111//1
f 112//1 216//1 217//1
f 209//5 199//5 200//5
f 185//5 177//5 184//5
f 210//1 199//1 209//1
f 185//1 176//1 177//1
f 210//1 198//1 199//1
f 211//1 198//1 210//1
f 186//1 176//1 185//1
f 211//5 197//5 198//5
f 186//1 175//1 176//1
f 212//5 197//5 211//5
f 187//1 175//1 186//1
f 212//5 196//5 197//5
f 213//1 196//1 212//1
f 188//1 175//1 187//1
f 188//1 174//1 175//1
f 213//1 195//1 196//1
f 214//1 195//1 213//1
f 189//5 174//5 188//5
f 214//1 194//1 195//1
f 215//5 194//5 214//5
f 189//1 173//1 174//1
f 190//1 173//1 189//1
f 215//1 193//1 194//1
f 216//1 193//1 215//1
f 191//1 173//1 190//1
f 191//1 153//1 173//1
f 153//1 172//1 173//1
f 112//1 114//1 216//1
f 114//3 115//3 216//3
f 115//1 116//1 216//1
f 116//1 117//1 216//1
f 117//3 118//3 216//3
f 118//1 119//1 216//1
f 119//1 120//1 216//1
f 120//1 121//1 216//1
f 121//1 122//1 216//1
f 122//5 123//5 216//5
f 123//24 124//24 216//24
f 124//21 125//21 216//21
f 125//7 193//7 216//7
f 125//6 126//6 193//6
f 126//1 192//1 193//1
f 192//1 152//1 191//1
f 152//20 153//20 191//20
f 127//25 192//25 126//25
f 154//8 172//8 153//8
f 192//7 151//7 152//7
f 128//1 192//1 127//1
f 155//14 172//14 154//14
f 192//14 150//14 151//14
f 129//24 192//24 128//24
f 156//5 172//5 155//5
f 192//7 149//7 150//7
f 130//5 192//5 129//5
f 130//14 149//14 192//14
f 157//1 172//1 156//1
f 130//1 148//1 149//1
f 157//1 171//1 172//1
f 131//1 148//1 130//1
f 131//5 147//5 148//5
f 158//7 171//7 157//7
f 131//1 146//1 147//1
f 132//1 146//1 131//1
f 159//1 171//1 158//1
f 132//1 145//1 146//1
f 133//7 145//7 132//7
f 160//1 171//1 159//1
f 133//5 144//5 145//5
f 160//1 170//1 171//1
f 134//1 144//1 133//1
f 134//5 143//5 144//5
f 161//6 170//6 160//6
f 134//1 142//1 143//1
f 135//1 142//1 134//1
f 162//1 170//1 161//1
f 135//7 141//7 142//7
f 162//1 169//1 170//1
f 136//5 141//5 135//5
f 112//1 113//1 114//1
f 136//1 140//1 141//1
f 163//1 169//1 162//1
f 137//7 140//7 136//7
f 164//5 169//5 163//5
f 164//1 168//1 169//1
f 138//5 140//5 137//5
f 165//5 168//5 164//5
f 165//1 167//1 168//1
f 139//1 140//1 138//1
f 166//1 167//1 165//1
f 259//1 257//1 258//1
f 259//7 256//7 257//7
f 260//7 256//7 259//7
f 260//13 255//13 256//13
f 261//7 255//7 260//7
f 261//5 254//5 255//5
f 261//5 253//5 254//5
f 262//1 253//1 261//1
f 262//7 252//7 253//7
f 219//1 272//1 218//1
f 219//1 271//1 272//1
f 263//5 252//5 262//5
f 263//13 251//13 252//13
f 263//1 250//1 251//1
f 264//7 250//7 263//7
f 264//6 249//6 250//6
f 265//1 249//1 264//1
f 265//1 248//1 249//1
f 265//1 247//1 248//1
f 266//1 247//1 265//1
f 266//6 246//6 247//6
f 267//1 246//1 266//1
f 267//1 236//1 246//1
f 236//26 237//26 246//26
f 237//5 238//5 246//5
f 238//5 239//5 246//5
f 239//1 240//1 246//1
f 240//1 241//1 246//1
f 241//1 242//1 246//1
f 242//4 243//4 246//4
f 243//5 244//5 246//5
f 244//1 245//1 246//1
f 268//5 234//5 267//5
f 234//27 235//27 267//27
f 235//28 236//28 267//28
f 269//1 232//1 268//1
f 232//8 233//8 268//8
f 233//29 234//29 268//29
f 269//14 231//14 232//14
f 269//7 230//7 231//7
f 270//1 230//1 269//1
f 270//6 229//6 230//6
f 270//1 228//1 229//1
f 219//1 270//1 271//1
f 219//1 224//1 270//1
f 224//4 225//4 270//4
f 225//1 226//1 270//1
f 226//1 227//1 270//1
f 227//1 228//1 270//1
f 219//13 223//13 224//13
f 219//3 222//3 223//3
f 219//4 221//4 222//4
f 219//1 220//1 221//1
f 311//7 309//7 310//7
f 311//1 308//1 309//1
f 312//13 308//13 311//13
f 312//1 307//1 308//1
f 313//5 307//5 312//5
f 313//1 306//1 307//1
f 314//1 306//1 313//1
f 314//1 305//1 306//1
f 315//1 305//1 314//1
f 315//1 304//1 305//1
f 316//1 304//1 315//1
f 316//1 303//1 304//1
f 317//1 359//1 316//1
f 359//7 303//7 316//7
f 317//30 358//30 359//30
f 360//31 303//31 359//31
f 317//1 357//1 358//1
f 361//13 303//13 360//13
f 317//13 356//13 357//13
f 362//7 303//7 361//7
f 362//1 302//1 303//1
f 317//1 355//1 356//1
f 318//1 355//1 317//1
f 363//5 302//5 362//5
f 318//5 354//5 355//5
f 364//1 302//1 363//1
f 318//1 353//1 354//1
f 365//7 302//7 364//7
f 318//1 352//1 353//1
f 366//1 302//1 365//1
f 319//1 352//1 318//1
f 366//1 301//1 302//1
f 319//1 351//1 352//1
f 367//1 301//1 366//1
f 319//1 350//1 351//1
f 368//1 301//1 367//1
f 320//1 350//1 319//1
f 368//1 300//1 301//1
f 320//5 349//5 350//5
f 369//1 300//1 368//1
f 320//1 348//1 349//1
f 370//1 300//1 369//1
f 321//1 348//1 320//1
f 321//5 347//5 348//5
f 370//1 299//1 300//1
f 371//1 299//1 370//1
f 321//5 371//5 347//5
f 321//1 299//1 371//1
f 322//1 299//1 321//1
f 322//1 298//1 299//1
f 323//1 297//1 322//1
f 297//1 298//1 322//1
f 323//1 296//1 297//1
f 324//1 296//1 323//1
f 324//1 295//1 296//1
f 324//1 294//1 295//1
f 325//1 294//1 324//1
f 325//5 293//5 294//5
f 326//1 293//1 325//1
f 326//1 292//1 293//1
f 274//4 346//4 273//4
f 326//1 291//1 292//1
f 275//4 346//4 274//4
f 276//3 346//3 275//3
f 327//1 291//1 326//1
f 327//7 290//7 291//7
f 277//1 346//1 276//1
f 278//1 346//1 277//1
f 327//5 289//5 290//5
f 279//5 346//5 278//5
f 327//1 288//1 289//1
f 280//7 346//7 279//7
f 328//1 288//1 327//1
f 281//5 346//5 280//5
f 328//5 287//5 288//5
f 282//1 346//1 281//1
f 328//7 286//7 287//7
f 283//7 346//7 282//7
f 284//7 346//7 283//7
f 328//5 285//5 286//5
f 285//13 346//13 284//13
f 328//1 346//1 285//1
f 329//1 346//1 328//1
f 329//5 345//5 346//5
f 330//1 345//1 329//1
f 330//5 344//5 345//5
f 330//1 343//1 344//1
f 331//1 343//1 330//1
f 331//5 342//5 343//5
f 331//7 341//7 342//7
f 332//1 341//1 331//1
f 332//1 340//1 341//1
f 332//5 339//5 340//5
f 333//7 339//7 332//7
f 333//1 338//1 339//1
f 333//1 337//1 338//1
f 333//14 336//14 337//14
f 334//1 336//1 333//1
f 334//32 335//32 336//32
f 378//1 376//1 377//1
f 378//1 375//1 376//1
f 375//1 373//1 374//1
f 375//1 372//1 373//1
f 378//3 380//3 375//3
f 380//1 372//1 375//1
f 380//1 382//1 372//1
f 378//1 379//1 380//1
f 381//1 382//1 380//1
