# Blender v2.80 (sub 75) OBJ File: 'text.blend'
# www.blender.org
o Text.001
v 2.077000 22.878054 -8.326931
v 2.055804 22.886702 -8.330078
v 2.035102 22.894768 -8.333014
v 2.014719 22.902222 -8.335728
v 1.994482 22.909029 -8.338205
v 1.974217 22.915157 -8.340436
v 1.953750 22.920576 -8.342407
v 1.932909 22.925249 -8.344109
v 1.911519 22.929144 -8.345527
v 1.889406 22.932234 -8.346650
v 1.866398 22.934479 -8.347467
v 1.842321 22.935850 -8.347967
v 1.817000 22.936314 -8.348136
v 1.751125 22.932678 -8.346812
v 1.689667 22.921942 -8.342905
v 1.632875 22.904366 -8.336508
v 1.581000 22.880213 -8.327717
v 1.534292 22.849741 -8.316626
v 1.493000 22.813215 -8.303331
v 1.457375 22.770895 -8.287929
v 1.427667 22.723040 -8.270511
v 1.404125 22.669912 -8.251174
v 1.387000 22.611773 -8.230013
v 1.376542 22.548882 -8.207122
v 1.373000 22.481503 -8.182598
v 1.376854 22.421068 -8.160602
v 1.388167 22.364040 -8.139845
v 1.406563 22.310770 -8.120457
v 1.431667 22.261612 -8.102565
v 1.463104 22.216919 -8.086298
v 1.500500 22.177042 -8.071783
v 1.543479 22.142332 -8.059150
v 1.591667 22.113142 -8.048526
v 1.644688 22.089827 -8.040039
v 1.702167 22.072737 -8.033819
v 1.763729 22.062223 -8.029993
v 1.829000 22.058641 -8.028689
v 1.852874 22.059099 -8.028856
v 1.877324 22.060434 -8.029342
v 1.902094 22.062574 -8.030121
v 1.926926 22.065460 -8.031171
v 1.951564 22.069025 -8.032469
v 1.975750 22.073204 -8.033989
v 1.999228 22.077930 -8.035709
v 2.021741 22.083139 -8.037606
v 2.043031 22.088768 -8.039655
v 2.062843 22.094748 -8.041831
v 2.080918 22.101013 -8.044111
v 2.097000 22.107506 -8.046474
v 2.097000 22.272890 -8.106669
v 2.074862 22.263885 -8.103392
v 2.053398 22.255663 -8.100399
v 2.032531 22.248224 -8.097692
v 2.012185 22.241568 -8.095268
v 1.992284 22.235693 -8.093131
v 1.972750 22.230604 -8.091278
v 1.953508 22.226297 -8.089710
v 1.934482 22.222773 -8.088428
v 1.915594 22.220032 -8.087431
v 1.896769 22.218075 -8.086719
v 1.877930 22.216902 -8.086291
v 1.859000 22.216509 -8.086148
v 1.814366 22.218681 -8.086939
v 1.772593 22.225113 -8.089280
v 1.733875 22.235685 -8.093127
v 1.698408 22.250269 -8.098436
v 1.666384 22.268742 -8.105160
v 1.638000 22.290981 -8.113254
v 1.613449 22.316860 -8.122673
v 1.592926 22.346258 -8.133373
v 1.576625 22.379049 -8.145308
v 1.564741 22.415110 -8.158433
v 1.557468 22.454313 -8.172702
v 1.555000 22.496538 -8.188070
v 1.557297 22.538086 -8.203193
v 1.564046 22.577082 -8.217385
v 1.575031 22.613323 -8.230577
v 1.590037 22.646610 -8.242692
v 1.608848 22.676737 -8.253657
v 1.631250 22.703505 -8.263400
v 1.657027 22.726707 -8.271845
v 1.685963 22.746147 -8.278921
v 1.717844 22.761618 -8.284552
v 1.752454 22.772919 -8.288665
v 1.789578 22.779848 -8.291187
v 1.829000 22.782206 -8.292045
v 1.848317 22.781797 -8.291897
v 1.867371 22.780516 -8.291430
v 1.886313 22.778269 -8.290612
v 1.905297 22.774963 -8.289410
v 1.924475 22.770512 -8.287788
v 1.944000 22.764820 -8.285717
v 1.964026 22.757795 -8.283160
v 1.984704 22.749348 -8.280086
v 2.006188 22.739388 -8.276461
v 2.028630 22.727821 -8.272251
v 2.052183 22.714560 -8.267424
v 2.077000 22.699511 -8.261947
v 1.161000 22.919399 -8.341980
v 0.983000 22.919399 -8.341980
v 0.983000 22.075556 -8.034845
v 1.161000 22.075556 -8.034845
v 1.179000 23.174995 -8.435009
v 1.178022 23.188404 -8.439889
v 1.175176 23.201298 -8.444582
v 1.170594 23.213552 -8.449042
v 1.164407 23.225042 -8.453224
v 1.156749 23.235645 -8.457084
v 1.147750 23.245237 -8.460574
v 1.137543 23.253693 -8.463653
v 1.126259 23.260889 -8.466271
v 1.114031 23.266701 -8.468387
v 1.100991 23.271008 -8.469954
v 1.087270 23.273682 -8.470927
v 1.073000 23.274603 -8.471263
v 1.058730 23.273684 -8.470928
v 1.045009 23.271009 -8.469954
v 1.031969 23.266703 -8.468388
v 1.019741 23.260891 -8.466272
v 1.008457 23.253695 -8.463653
v 0.998250 23.245239 -8.460575
v 0.989251 23.235647 -8.457085
v 0.981593 23.225044 -8.453225
v 0.975406 23.213554 -8.449043
v 0.970824 23.201300 -8.444583
v 0.967978 23.188406 -8.439890
v 0.967000 23.174995 -8.435009
v 0.967978 23.161587 -8.430129
v 0.970824 23.148693 -8.425436
v 0.975406 23.136438 -8.420976
v 0.981593 23.124949 -8.416793
v 0.989251 23.114346 -8.412934
v 0.998250 23.104753 -8.409443
v 1.008457 23.096296 -8.406364
v 1.019741 23.089100 -8.403746
v 1.031969 23.083288 -8.401630
v 1.045009 23.078983 -8.400064
v 1.058730 23.076309 -8.399090
v 1.073000 23.075388 -8.398754
v 1.087270 23.076307 -8.399089
v 1.100991 23.078981 -8.400063
v 1.114032 23.083286 -8.401629
v 1.126260 23.089098 -8.403745
v 1.137543 23.096294 -8.406364
v 1.147750 23.104752 -8.409442
v 1.156749 23.114344 -8.412933
v 1.164408 23.124947 -8.416793
v 1.170594 23.136438 -8.420975
v 1.175176 23.148691 -8.425435
v 1.178022 23.161585 -8.430128
v 0.153000 22.919399 -8.341980
v -0.025000 22.919399 -8.341980
v -0.025000 22.075556 -8.034845
v 0.153000 22.075556 -8.034845
v 0.153000 22.680716 -8.255106
v 0.173564 22.701675 -8.262734
v 0.193343 22.720436 -8.269563
v 0.212469 22.737068 -8.275617
v 0.231074 22.751646 -8.280922
v 0.249291 22.764238 -8.285505
v 0.267250 22.774921 -8.289393
v 0.285085 22.783762 -8.292612
v 0.302926 22.790834 -8.295186
v 0.320906 22.796209 -8.297142
v 0.339158 22.799961 -8.298508
v 0.357812 22.802158 -8.299308
v 0.377000 22.802877 -8.299569
v 0.403151 22.801216 -8.298965
v 0.427537 22.796318 -8.297181
v 0.450063 22.788313 -8.294268
v 0.470630 22.777334 -8.290272
v 0.489141 22.763508 -8.285239
v 0.505500 22.746967 -8.279220
v 0.519609 22.727844 -8.272259
v 0.531371 22.706266 -8.264405
v 0.540688 22.682365 -8.255706
v 0.547463 22.656271 -8.246208
v 0.551600 22.628115 -8.235961
v 0.553000 22.598024 -8.225008
v 0.553000 22.075556 -8.034845
v 0.731000 22.075556 -8.034845
v 0.731000 22.596146 -8.224325
v 0.728226 22.651400 -8.244435
v 0.720139 22.701609 -8.262710
v 0.707094 22.746819 -8.279165
v 0.689445 22.787077 -8.293818
v 0.667545 22.822426 -8.306684
v 0.641750 22.852915 -8.317781
v 0.612413 22.878590 -8.327126
v 0.579889 22.899490 -8.334733
v 0.544531 22.915668 -8.340621
v 0.506695 22.927168 -8.344807
v 0.466733 22.934034 -8.347306
v 0.425000 22.936314 -8.348136
v 0.400019 22.935343 -8.347782
v 0.375148 22.932459 -8.346733
v 0.350500 22.927710 -8.345004
v 0.326185 22.921139 -8.342612
v 0.302315 22.912794 -8.339575
v 0.279000 22.902719 -8.335908
v 0.256352 22.890961 -8.331629
v 0.234482 22.877565 -8.326753
v 0.213500 22.862577 -8.321299
v 0.193519 22.846045 -8.315280
v 0.174648 22.828007 -8.308716
v 0.157000 22.808516 -8.301621
v 0.153000 22.808516 -8.301621
v -0.705000 22.936314 -8.348136
v -0.770625 22.932476 -8.346739
v -0.833167 22.921270 -8.342661
v -0.892125 22.903162 -8.336069
v -0.947000 22.878611 -8.327133
v -0.997292 22.848082 -8.316022
v -1.042500 22.812040 -8.302904
v -1.082125 22.770947 -8.287948
v -1.115667 22.725266 -8.271320
v -1.142625 22.675461 -8.253193
v -1.162500 22.621996 -8.233733
v -1.174792 22.565334 -8.213110
v -1.179000 22.505934 -8.191490
v -1.174944 22.442652 -8.168457
v -1.163056 22.382748 -8.146654
v -1.143750 22.326632 -8.126229
v -1.117444 22.274702 -8.107328
v -1.084556 22.227367 -8.090100
v -1.045500 22.185030 -8.074691
v -1.000694 22.148098 -8.061249
v -0.950556 22.116972 -8.049920
v -0.895500 22.092058 -8.040853
v -0.835944 22.073763 -8.034193
v -0.772306 22.062489 -8.030089
v -0.705000 22.058641 -8.028689
v -0.634937 22.062346 -8.030038
v -0.569000 22.073242 -8.034003
v -0.507562 22.091002 -8.040467
v -0.451000 22.115299 -8.049312
v -0.399687 22.145813 -8.060417
v -0.354000 22.182211 -8.073665
v -0.314312 22.224169 -8.088937
v -0.281000 22.271360 -8.106112
v -0.254437 22.323460 -8.125075
v -0.235000 22.380140 -8.145705
v -0.223062 22.441074 -8.167883
v -0.219000 22.505934 -8.191490
v -0.223177 22.566912 -8.213684
v -0.235417 22.624605 -8.234683
v -0.255281 22.678635 -8.254348
v -0.282333 22.728609 -8.272537
v -0.316135 22.774147 -8.289112
v -0.356250 22.814861 -8.303930
v -0.402239 22.850368 -8.316854
v -0.453667 22.880283 -8.327742
v -0.510094 22.904219 -8.336454
v -0.571083 22.921793 -8.342851
v -0.636198 22.932619 -8.346791
v -0.707000 22.785963 -8.293413
v -0.663587 22.783539 -8.292530
v -0.622528 22.776436 -8.289945
v -0.584094 22.764908 -8.285748
v -0.548555 22.749210 -8.280036
v -0.516184 22.729597 -8.272897
v -0.487250 22.706324 -8.264426
v -0.462024 22.679644 -8.254715
v -0.440778 22.649811 -8.243857
v -0.423781 22.617083 -8.231945
v -0.411305 22.581711 -8.219070
v -0.403621 22.543949 -8.205327
v -0.401000 22.504055 -8.190806
v -0.403430 22.459953 -8.174754
v -0.410611 22.418900 -8.159812
v -0.422375 22.381044 -8.146034
v -0.438555 22.346535 -8.133473
v -0.458986 22.315523 -8.122187
v -0.483500 22.288160 -8.112227
v -0.511930 22.264595 -8.103650
v -0.544111 22.244978 -8.096510
v -0.579875 22.229458 -8.090861
v -0.619056 22.218187 -8.086760
v -0.661486 22.211317 -8.084258
v -0.707000 22.208992 -8.083412
v -0.748838 22.211424 -8.084297
v -0.788204 22.218588 -8.086905
v -0.824875 22.230282 -8.091161
v -0.858630 22.246302 -8.096992
v -0.889245 22.266445 -8.104323
v -0.916500 22.290510 -8.113083
v -0.940171 22.318295 -8.123196
v -0.960037 22.349598 -8.134588
v -0.975875 22.384214 -8.147188
v -0.987463 22.421946 -8.160921
v -0.994579 22.462585 -8.175713
v -0.997000 22.505934 -8.191490
v -0.994502 22.545399 -8.205854
v -0.987185 22.582798 -8.219467
v -0.975312 22.617876 -8.232234
v -0.959148 22.650370 -8.244061
v -0.938956 22.680017 -8.254851
v -0.915000 22.706560 -8.264512
v -0.887544 22.729734 -8.272947
v -0.856852 22.749281 -8.280062
v -0.823187 22.764940 -8.285761
v -0.786815 22.776445 -8.289948
v -0.747998 22.783543 -8.292531
v -1.369000 23.283998 -8.474683
v -1.393162 23.298409 -8.479927
v -1.417630 23.311563 -8.484715
v -1.442375 23.323465 -8.489048
v -1.467370 23.334116 -8.492924
v -1.492588 23.343513 -8.496345
v -1.518000 23.351658 -8.499309
v -1.543579 23.358549 -8.501817
v -1.569296 23.364187 -8.503869
v -1.595125 23.368574 -8.505466
v -1.621037 23.371706 -8.506606
v -1.647005 23.373587 -8.507290
v -1.673000 23.374210 -8.507517
v -1.733663 23.371464 -8.506517
v -1.790472 23.363361 -8.503569
v -1.843156 23.350101 -8.498742
v -1.891445 23.331890 -8.492114
v -1.935066 23.308928 -8.483756
v -1.973750 23.281416 -8.473742
v -2.007226 23.249559 -8.462148
v -2.035223 23.213560 -8.449045
v -2.057469 23.173616 -8.434507
v -2.073695 23.129934 -8.418608
v -2.083629 23.082716 -8.401422
v -2.087000 23.032162 -8.383021
v -2.075391 22.950674 -8.353362
v -2.043296 22.880644 -8.327874
v -1.994812 22.820143 -8.305853
v -1.934037 22.767237 -8.286597
v -1.865067 22.719995 -8.269403
v -1.792000 22.676487 -8.253567
v -1.718933 22.634779 -8.238386
v -1.649963 22.592941 -8.223158
v -1.589187 22.549042 -8.207180
v -1.540703 22.501148 -8.189748
v -1.508608 22.447327 -8.170159
v -1.497000 22.385654 -8.147712
v -1.498465 22.367470 -8.141094
v -1.502889 22.348885 -8.134329
v -1.510313 22.330271 -8.127554
v -1.520778 22.312012 -8.120908
v -1.534326 22.294479 -8.114528
v -1.551000 22.278059 -8.108551
v -1.570840 22.263126 -8.103116
v -1.593889 22.250061 -8.098360
v -1.620188 22.239239 -8.094421
v -1.649778 22.231041 -8.091437
v -1.682701 22.225845 -8.089546
v -1.719000 22.224028 -8.088884
v -1.752323 22.225391 -8.089381
v -1.785250 22.229456 -8.090860
v -1.817719 22.236185 -8.093309
v -1.849667 22.245535 -8.096713
v -1.881031 22.257471 -8.101057
v -1.911750 22.271950 -8.106327
v -1.941761 22.288937 -8.112510
v -1.971000 22.308388 -8.119590
v -1.999406 22.330269 -8.127554
v -2.026917 22.354538 -8.136387
v -2.053469 22.381155 -8.146074
v -2.079000 22.410088 -8.156605
v -2.079000 22.177042 -8.071783
v -2.050362 22.157736 -8.064756
v -2.021398 22.140209 -8.058377
v -1.992031 22.124447 -8.052640
v -1.962185 22.110426 -8.047538
v -1.931784 22.098129 -8.043061
v -1.900750 22.087536 -8.039206
v -1.869008 22.078623 -8.035962
v -1.836482 22.071377 -8.033324
v -1.803094 22.065775 -8.031285
v -1.768769 22.061798 -8.029838
v -1.733430 22.059425 -8.028975
v -1.697000 22.058641 -8.028689
v -1.643269 22.061642 -8.029781
v -1.592315 22.070431 -8.032980
v -1.544500 22.084688 -8.038170
v -1.500185 22.104094 -8.045233
v -1.459731 22.128330 -8.054054
v -1.423500 22.157074 -8.064515
v -1.391852 22.190008 -8.076503
v -1.365148 22.226810 -8.089898
v -1.343750 22.267164 -8.104586
v -1.328018 22.310749 -8.120449
v -1.318315 22.357244 -8.137371
v -1.315000 22.406326 -8.155236
v -1.326609 22.500092 -8.189363
v -1.358704 22.579004 -8.218085
v -1.407188 22.645361 -8.242238
v -1.467963 22.701460 -8.262656
v -1.536933 22.749599 -8.280177
v -1.610000 22.792072 -8.295636
v -1.683067 22.831179 -8.309870
v -1.752037 22.869215 -8.323714
v -1.812813 22.908478 -8.338004
v -1.861296 22.951263 -8.353578
v -1.893391 22.999872 -8.371269
v -1.905000 23.056595 -8.391914
v -1.903156 23.078541 -8.399902
v -1.897750 23.099194 -8.407419
v -1.888969 23.118437 -8.414423
v -1.877000 23.136154 -8.420872
v -1.862031 23.152225 -8.426722
v -1.844250 23.166536 -8.431930
v -1.823844 23.178967 -8.436455
v -1.801000 23.189402 -8.440252
v -1.775906 23.197721 -8.443281
v -1.748750 23.203812 -8.445497
v -1.719719 23.207550 -8.446857
v -1.689000 23.208824 -8.447321
v -1.665593 23.208174 -8.447084
v -1.641407 23.206120 -8.446337
v -1.616500 23.202511 -8.445024
v -1.590926 23.197201 -8.443090
v -1.564741 23.190037 -8.440483
v -1.538000 23.180868 -8.437146
v -1.510759 23.169548 -8.433026
v -1.483074 23.155924 -8.428067
v -1.455000 23.139845 -8.422215
v -1.426593 23.121162 -8.415416
v -1.397907 23.099728 -8.407614
v -1.369000 23.075388 -8.398754
vn -0.0000 0.3425 0.9395
vn 0.0000 0.3419 0.9397
vn -0.0000 0.3417 0.9398
vn 0.0000 0.3423 0.9396
vn -0.0000 0.3421 0.9397
vn 0.0000 0.3418 0.9398
vn -0.0000 0.3420 0.9397
vn 0.0000 0.3422 0.9396
vn 0.0001 0.3420 0.9397
vn -0.0001 0.3420 0.9397
vn 0.0002 0.3409 0.9401
vn 0.0000 0.3437 0.9391
vn 0.0001 0.3427 0.9395
vn 0.0000 0.3426 0.9395
vn 0.0001 0.3421 0.9397
vn -0.0000 0.3414 0.9399
vn 0.0000 0.3416 0.9398
vn -0.0000 0.3419 0.9398
vn -0.0001 0.3413 0.9399
vn -0.0000 0.3429 0.9394
vn -0.0000 0.3421 0.9396
vn 0.0000 0.3413 0.9399
vn 0.0000 0.3410 0.9401
vn 0.0003 0.3418 0.9398
vn 0.0000 0.3448 0.9387
vn 0.0002 0.3417 0.9398
vn -0.0009 0.3429 0.9394
vn 0.0000 0.3415 0.9399
vn -0.0001 0.3428 0.9394
s off
f 14//1 12//1 13//1
f 14//2 11//2 12//2
f 14//1 10//1 11//1
f 15//2 10//2 14//2
f 15//3 9//3 10//3
f 15//4 8//4 9//4
f 15//2 7//2 8//2
f 16//5 7//5 15//5
f 16//6 6//6 7//6
f 16//7 5//7 6//7
f 16//7 4//7 5//7
f 17//5 4//5 16//5
f 17//7 3//7 4//7
f 17//8 2//8 3//8
f 17//2 1//2 2//2
f 18//7 1//7 17//7
f 18//7 90//7 1//7
f 90//5 91//5 1//5
f 91//7 92//7 1//7
f 92//7 93//7 1//7
f 93//7 94//7 1//7
f 94//7 95//7 1//7
f 95//9 96//9 1//9
f 96//10 97//10 1//10
f 97//9 98//9 1//9
f 19//7 88//7 18//7
f 88//11 89//11 18//11
f 89//12 90//12 18//12
f 20//7 86//7 19//7
f 86//13 87//13 19//13
f 87//14 88//14 19//14
f 20//2 85//2 86//2
f 20//4 84//4 85//4
f 20//2 83//2 84//2
f 21//7 83//7 20//7
f 21//7 82//7 83//7
f 21//5 81//5 82//5
f 21//7 80//7 81//7
f 22//7 80//7 21//7
f 22//7 79//7 80//7
f 22//7 78//7 79//7
f 23//7 78//7 22//7
f 23//7 77//7 78//7
f 23//7 76//7 77//7
f 24//7 76//7 23//7
f 24//7 75//7 76//7
f 25//7 75//7 24//7
f 25//7 74//7 75//7
f 25//7 73//7 74//7
f 26//7 73//7 25//7
f 26//7 72//7 73//7
f 27//7 72//7 26//7
f 27//7 71//7 72//7
f 27//7 70//7 71//7
f 28//7 70//7 27//7
f 28//5 69//5 70//5
f 28//7 68//7 69//7
f 29//7 68//7 28//7
f 29//7 67//7 68//7
f 51//7 49//7 50//7
f 29//7 66//7 67//7
f 52//7 49//7 51//7
f 30//7 66//7 29//7
f 53//9 49//9 52//9
f 30//5 65//5 66//5
f 54//15 49//15 53//15
f 55//10 49//10 54//10
f 56//7 49//7 55//7
f 30//2 64//2 65//2
f 57//7 49//7 56//7
f 58//7 49//7 57//7
f 30//5 63//5 64//5
f 59//5 49//5 58//5
f 60//7 49//7 59//7
f 30//16 62//16 63//16
f 61//7 49//7 60//7
f 31//5 62//5 30//5
f 62//9 49//9 61//9
f 31//7 49//7 62//7
f 32//5 49//5 31//5
f 33//7 49//7 32//7
f 34//7 49//7 33//7
f 34//5 48//5 49//5
f 34//2 47//2 48//2
f 34//5 46//5 47//5
f 35//7 46//7 34//7
f 35//3 45//3 46//3
f 35//5 44//5 45//5
f 35//4 43//4 44//4
f 35//17 42//17 43//17
f 36//5 42//5 35//5
f 36//7 41//7 42//7
f 36//18 40//18 41//18
f 36//18 39//18 40//18
f 37//8 39//8 36//8
f 37//5 38//5 39//5
f 116//19 114//19 115//19
f 117//20 114//20 116//20
f 117//3 113//3 114//3
f 118//7 113//7 117//7
f 118//6 112//6 113//6
f 119//8 112//8 118//8
f 119//8 111//8 112//8
f 120//7 111//7 119//7
f 120//6 110//6 111//6
f 121//21 110//21 120//21
f 121//8 109//8 110//8
f 122//6 109//6 121//6
f 122//2 108//2 109//2
f 123//5 108//5 122//5
f 123//8 107//8 108//8
f 124//7 107//7 123//7
f 124//7 106//7 107//7
f 125//2 106//2 124//2
f 125//7 105//7 106//7
f 126//7 105//7 125//7
f 126//5 104//5 105//5
f 127//7 104//7 126//7
f 127//7 103//7 104//7
f 128//7 103//7 127//7
f 128//7 150//7 103//7
f 129//7 150//7 128//7
f 129//7 149//7 150//7
f 130//7 149//7 129//7
f 130//5 148//5 149//5
f 131//8 148//8 130//8
f 131//2 147//2 148//2
f 132//5 147//5 131//5
f 132//5 146//5 147//5
f 133//7 146//7 132//7
f 133//2 145//2 146//2
f 134//8 145//8 133//8
f 134//6 144//6 145//6
f 135//21 144//21 134//21
f 135//5 143//5 144//5
f 136//5 143//5 135//5
f 136//7 142//7 143//7
f 137//2 142//2 136//2
f 137//8 141//8 142//8
f 138//7 141//7 137//7
f 138//20 140//20 141//20
f 139//22 140//22 138//22
f 101//7 99//7 100//7
f 101//7 102//7 99//7
f 195//7 193//7 194//7
f 196//4 193//4 195//4
f 196//7 192//7 193//7
f 197//7 192//7 196//7
f 198//5 192//5 197//5
f 198//7 191//7 192//7
f 199//7 191//7 198//7
f 153//7 151//7 152//7
f 153//7 207//7 151//7
f 199//5 190//5 191//5
f 200//2 190//2 199//2
f 201//7 190//7 200//7
f 201//7 189//7 190//7
f 202//5 189//5 201//5
f 202//7 188//7 189//7
f 203//2 188//2 202//2
f 204//5 188//5 203//5
f 204//5 187//5 188//5
f 205//2 187//2 204//2
f 206//5 187//5 205//5
f 206//7 167//7 187//7
f 167//7 186//7 187//7
f 153//7 206//7 207//7
f 153//7 155//7 206//7
f 155//7 156//7 206//7
f 156//7 157//7 206//7
f 157//7 158//7 206//7
f 158//7 159//7 206//7
f 159//9 160//9 206//9
f 160//10 161//10 206//10
f 161//5 162//5 206//5
f 162//7 163//7 206//7
f 163//2 164//2 206//2
f 164//8 165//8 206//8
f 165//21 166//21 206//21
f 166//23 167//23 206//23
f 168//24 186//24 167//24
f 169//5 186//5 168//5
f 170//2 186//2 169//2
f 171//2 186//2 170//2
f 171//7 185//7 186//7
f 172//2 185//2 171//2
f 173//7 185//7 172//7
f 174//5 185//5 173//5
f 174//7 184//7 185//7
f 175//5 184//5 174//5
f 176//7 184//7 175//7
f 176//7 183//7 184//7
f 177//7 183//7 176//7
f 153//7 154//7 155//7
f 178//7 183//7 177//7
f 178//7 182//7 183//7
f 179//5 182//5 178//5
f 180//7 182//7 179//7
f 180//7 181//7 182//7
f 209//5 255//5 208//5
f 209//5 254//5 255//5
f 210//7 254//7 209//7
f 210//7 253//7 254//7
f 211//5 253//5 210//5
f 211//5 252//5 253//5
f 212//7 252//7 211//7
f 212//7 251//7 252//7
f 213//2 251//2 212//2
f 213//5 250//5 251//5
f 214//7 250//7 213//7
f 214//7 249//7 250//7
f 215//7 256//7 214//7
f 256//2 249//2 214//2
f 215//25 303//25 256//25
f 257//4 249//4 256//4
f 215//5 302//5 303//5
f 258//7 249//7 257//7
f 215//7 301//7 302//7
f 259//5 249//5 258//5
f 259//7 248//7 249//7
f 216//7 301//7 215//7
f 216//5 300//5 301//5
f 260//5 248//5 259//5
f 216//7 299//7 300//7
f 261//7 248//7 260//7
f 216//7 298//7 299//7
f 262//5 248//5 261//5
f 262//7 247//7 248//7
f 217//7 298//7 216//7
f 217//7 297//7 298//7
f 263//7 247//7 262//7
f 217//7 296//7 297//7
f 264//7 247//7 263//7
f 264//7 246//7 247//7
f 218//7 296//7 217//7
f 218//7 295//7 296//7
f 265//5 246//5 264//5
f 265//7 245//7 246//7
f 219//7 295//7 218//7
f 219//7 294//7 295//7
f 266//7 245//7 265//7
f 219//7 293//7 294//7
f 267//7 245//7 266//7
f 267//7 244//7 245//7
f 220//7 293//7 219//7
f 220//7 292//7 293//7
f 268//7 244//7 267//7
f 221//7 292//7 220//7
f 221//7 291//7 292//7
f 268//7 243//7 244//7
f 269//7 243//7 268//7
f 221//7 290//7 291//7
f 270//7 243//7 269//7
f 222//7 290//7 221//7
f 270//7 242//7 243//7
f 222//7 289//7 290//7
f 271//7 242//7 270//7
f 222//5 288//5 289//5
f 223//7 288//7 222//7
f 272//7 242//7 271//7
f 272//7 241//7 242//7
f 223//7 287//7 288//7
f 273//7 241//7 272//7
f 224//7 287//7 223//7
f 273//7 240//7 241//7
f 224//7 286//7 287//7
f 274//7 240//7 273//7
f 224//7 285//7 286//7
f 275//5 240//5 274//5
f 225//7 285//7 224//7
f 275//7 239//7 240//7
f 225//5 284//5 285//5
f 276//7 239//7 275//7
f 225//7 283//7 284//7
f 277//5 239//5 276//5
f 225//7 282//7 283//7
f 278//2 239//2 277//2
f 226//7 282//7 225//7
f 278//5 238//5 239//5
f 226//7 281//7 282//7
f 279//7 238//7 278//7
f 226//7 280//7 281//7
f 280//8 238//8 279//8
f 226//7 238//7 280//7
f 227//7 238//7 226//7
f 227//7 237//7 238//7
f 228//7 237//7 227//7
f 228//7 236//7 237//7
f 229//7 236//7 228//7
f 229//5 235//5 236//5
f 230//7 235//7 229//7
f 230//7 234//7 235//7
f 231//8 234//8 230//8
f 231//6 233//6 234//6
f 232//14 233//14 231//14
f 317//5 315//5 316//5
f 317//18 314//18 315//18
f 317//6 313//6 314//6
f 318//21 313//21 317//21
f 318//2 312//2 313//2
f 318//7 311//7 312//7
f 319//7 311//7 318//7
f 319//7 310//7 311//7
f 319//7 309//7 310//7
f 320//7 309//7 319//7
f 320//5 308//5 309//5
f 320//7 307//7 308//7
f 321//7 307//7 320//7
f 321//5 306//5 307//5
f 321//7 305//7 306//7
f 322//5 305//5 321//5
f 322//7 304//7 305//7
f 322//7 417//7 304//7
f 417//7 418//7 304//7
f 418//7 419//7 304//7
f 419//7 420//7 304//7
f 420//7 421//7 304//7
f 421//7 422//7 304//7
f 422//7 423//7 304//7
f 423//7 424//7 304//7
f 424//10 425//10 304//10
f 323//5 415//5 322//5
f 415//26 416//26 322//26
f 416//27 417//27 322//27
f 324//7 413//7 323//7
f 413//17 414//17 323//17
f 414//3 415//3 323//3
f 325//7 412//7 324//7
f 412//28 413//28 324//28
f 325//29 411//29 412//29
f 325//2 410//2 411//2
f 325//5 409//5 410//5
f 325//7 408//7 409//7
f 325//7 407//7 408//7
f 326//5 407//5 325//5
f 326//18 406//18 407//18
f 326//5 405//5 406//5
f 326//7 404//7 405//7
f 327//7 404//7 326//7
f 327//7 403//7 404//7
f 327//5 402//5 403//5
f 328//7 402//7 327//7
f 328//7 401//7 402//7
f 328//7 400//7 401//7
f 329//7 400//7 328//7
f 329//7 399//7 400//7
f 329//5 398//5 399//5
f 330//7 398//7 329//7
f 330//7 397//7 398//7
f 331//7 397//7 330//7
f 331//7 396//7 397//7
f 331//7 395//7 396//7
f 332//7 395//7 331//7
f 332//7 394//7 395//7
f 333//7 394//7 332//7
f 333//7 393//7 394//7
f 334//7 393//7 333//7
f 334//7 392//7 393//7
f 335//7 392//7 334//7
f 335//7 391//7 392//7
f 336//7 391//7 335//7
f 337//7 391//7 336//7
f 337//7 390//7 391//7
f 338//7 390//7 337//7
f 339//7 390//7 338//7
f 339//7 389//7 390//7
f 340//7 389//7 339//7
f 365//7 363//7 364//7
f 340//7 388//7 389//7
f 341//5 388//5 340//5
f 365//7 362//7 363//7
f 342//7 388//7 341//7
f 342//7 387//7 388//7
f 365//7 361//7 362//7
f 343//5 387//5 342//5
f 344//7 387//7 343//7
f 365//7 360//7 361//7
f 345//2 387//2 344//2
f 345//7 386//7 387//7
f 365//5 359//5 360//5
f 346//7 386//7 345//7
f 365//7 358//7 359//7
f 347//2 386//2 346//2
f 365//5 357//5 358//5
f 347//7 385//7 386//7
f 348//7 385//7 347//7
f 365//7 356//7 357//7
f 349//5 385//5 348//5
f 365//5 355//5 356//5
f 350//7 385//7 349//7
f 365//7 354//7 355//7
f 351//7 385//7 350//7
f 365//7 353//7 354//7
f 351//7 384//7 385//7
f 352//7 384//7 351//7
f 365//7 352//7 353//7
f 365//7 384//7 352//7
f 365//7 383//7 384//7
f 366//5 383//5 365//5
f 367//7 383//7 366//7
f 367//7 382//7 383//7
f 368//5 382//5 367//5
f 368//7 381//7 382//7
f 369//7 381//7 368//7
f 370//21 381//21 369//21
f 370//2 380//2 381//2
f 371//8 380//8 370//8
f 372//6 380//6 371//6
f 372//5 379//5 380//5
f 373//5 379//5 372//5
f 374//5 379//5 373//5
f 374//7 378//7 379//7
f 375//17 378//17 374//17
f 376//4 378//4 375//4
f 376//7 377//7 378//7
