# Blender v2.80 (sub 75) OBJ File: 'gun.blend'
# www.blender.org
mtllib gun_triangulatedV2.mtl
o Gun_v3.5_triangulated_Cube.004
v -0.154022 -0.023792 0.014778
v -0.164071 0.016815 0.006963
v 0.100424 -0.023792 0.014778
v -0.164071 0.003638 0.008795
v -0.164071 0.009881 0.010147
v 0.093294 0.004824 0.017987
v 0.113409 -0.001820 0.011305
v -0.007185 -0.023792 0.014778
v 0.006799 -0.023792 0.014778
v 0.006799 0.026881 0.014868
v -0.007185 0.026881 0.014868
v 0.006799 -0.007409 0.022228
v -0.007185 -0.007409 0.022228
v 0.006799 0.007409 0.022228
v -0.007185 0.007409 0.022228
v 0.040349 -0.023792 0.014778
v 0.031565 -0.023792 0.014778
v 0.040349 -0.048466 0.014778
v 0.092623 -0.049072 0.014778
v -0.000699 -0.026813 0.003112
v 0.006799 -0.027529 0.003112
v 0.032859 -0.031851 0.003112
v 0.029812 -0.041122 0.003112
v 0.033247 -0.044457 0.003112
v 0.002984 -0.044457 0.003112
v 0.007847 -0.041122 0.003113
v 0.051295 -0.129998 0.016183
v 0.108699 -0.129998 0.016183
v 0.072022 0.028390 0.017868
v 0.102087 -0.010642 0.021499
v 0.100424 -0.021916 0.017761
v 0.040349 -0.021916 0.017761
v -0.154022 -0.021916 0.017761
v -0.161130 -0.011467 0.026113
v 0.087710 0.004033 0.026570
v -0.007185 -0.010642 0.026113
v -0.007185 -0.021916 0.017761
v 0.006799 -0.021916 0.017761
v 0.031565 0.032083 0.017868
v 0.006799 0.032083 0.017868
v 0.042986 -0.010642 0.026113
v 0.006799 -0.010642 0.026113
v 0.042986 0.013130 0.026570
v 0.006799 0.013130 0.026570
v 0.031565 -0.021916 0.017761
v 0.053769 0.038704 0.017868
v 0.064552 -0.010642 0.026570
v 0.064552 0.013130 0.026570
v -0.164071 0.007409 0.022228
v -0.164071 0.026881 0.014868
v -0.164071 -0.007409 0.022228
v -0.136759 0.009881 0.010147
v -0.136759 0.016815 0.006963
v -0.136759 0.003638 0.008795
v -0.154022 -0.023792 -0.014778
v -0.164071 0.016815 -0.006963
v 0.100424 -0.023792 -0.014778
v -0.164071 0.003638 -0.008795
v -0.164071 0.009881 -0.010147
v 0.093294 0.004824 -0.017987
v 0.113409 -0.001820 -0.011305
v -0.007185 -0.023792 -0.014778
v 0.006799 -0.023792 -0.014778
v 0.006799 0.026881 -0.014868
v -0.007185 0.026881 -0.014868
v 0.006799 -0.007409 -0.022228
v -0.007185 -0.007409 -0.022228
v 0.006799 0.007409 -0.022228
v -0.007185 0.007409 -0.022228
v 0.040349 -0.023792 -0.014778
v 0.031565 -0.023792 -0.014778
v 0.040349 -0.048466 -0.014778
v 0.092623 -0.049072 -0.014778
v -0.000699 -0.026813 -0.003112
v 0.006799 -0.027529 -0.003112
v 0.032859 -0.031851 -0.003112
v 0.029812 -0.041122 -0.003112
v 0.033247 -0.044457 -0.003112
v 0.002984 -0.044457 -0.003112
v 0.007847 -0.041122 -0.003113
v 0.051295 -0.129998 -0.016183
v 0.108699 -0.129998 -0.016183
v 0.072022 0.028390 -0.017868
v 0.102087 -0.010642 -0.021499
v 0.100424 -0.021916 -0.017761
v 0.040349 -0.021916 -0.017761
v -0.154022 -0.021916 -0.017761
v -0.161130 -0.011467 -0.026113
v 0.087710 0.004033 -0.026570
v -0.007185 -0.010642 -0.026113
v -0.007185 -0.021916 -0.017761
v 0.006799 -0.021916 -0.017761
v 0.031565 0.032083 -0.017868
v 0.006799 0.032083 -0.017868
v 0.042986 -0.010642 -0.026570
v 0.006799 -0.010642 -0.026113
v 0.042986 0.013130 -0.026570
v 0.006799 0.013130 -0.026570
v 0.031565 -0.021916 -0.017761
v 0.053769 0.038704 -0.017868
v 0.064552 -0.010642 -0.026570
v 0.064552 0.013130 -0.026570
v -0.164071 0.007409 -0.022228
v -0.164071 0.026881 -0.014868
v -0.164071 -0.007409 -0.022228
v -0.136759 0.009881 -0.010147
v -0.136759 0.016815 -0.006963
v -0.136759 0.003638 -0.008795
vt 0.375000 0.750000
vt 0.375000 0.750000
vt 0.375000 0.750000
vt 0.541667 0.833333
vt 0.458333 0.833333
vt 0.541667 0.833333
vt 0.125000 0.750000
vt 0.208333 0.750000
vt 0.125000 0.750000
vt 0.375000 0.750000
vt 0.458333 0.750000
vt 0.458333 0.750000
vt 0.541667 0.750000
vt 0.625000 0.000000
vt 0.597298 0.048598
vt 0.625000 0.000000
vt 0.458333 0.000000
vt 0.375000 0.000000
vt 0.458333 0.000000
vt 0.708333 0.750000
vt 0.708333 0.750000
vt 0.708333 0.750000
vt 0.208333 0.750000
vt 0.208333 0.750000
vt 0.375000 0.833333
vt 0.375000 0.916667
vt 0.375000 0.916667
vt 0.541667 0.750000
vt 0.541667 0.750000
vt 0.375000 0.916667
vt 0.375000 0.833333
vt 0.375000 0.791667
vt 0.375000 0.791667
vt 0.125000 0.750000
vt 0.313748 0.750000
vt 0.291667 0.750000
vt 0.291667 0.750000
vt 0.375000 0.811252
vt 0.375000 0.811252
vt 0.458333 0.750000
vt 0.375000 0.750000
vt 0.291667 0.750000
vt 0.291667 0.750000
vt 0.458333 0.916667
vt 0.458333 1.000000
vt 0.458333 0.916667
vt 0.625000 0.833333
vt 0.625000 0.833333
vt 0.458333 0.833333
vt 0.375000 0.791667
vt 0.375000 0.750000
vt 0.291667 0.750000
vt 0.313748 0.750000
vt 0.313748 0.750000
vt 0.313748 0.750000
vt 0.313748 0.750000
vt 0.375000 0.811252
vt 0.375000 0.791667
vt 0.313748 0.750000
vt 0.333333 0.750000
vt 0.333333 0.750000
vt 0.333333 0.750000
vt 0.291667 0.750000
vt 0.208333 0.750000
vt 0.208333 0.750000
vt 0.375000 0.791667
vt 0.375000 0.833333
vt 0.333333 0.750000
vt 0.333333 0.750000
vt 0.375000 0.750000
vt 0.333333 0.750000
vt 0.625000 0.750000
vt 0.666667 0.750000
vt 0.625000 0.750000
vt 0.666667 0.750000
vt 0.686252 0.750000
vt 0.375000 1.000000
vt 0.541667 0.811252
vt 0.458333 0.811252
vt 0.375000 0.833333
vt 0.625000 0.811252
vt 0.541667 0.791667
vt 0.541667 0.750000
vt 0.458333 0.791667
vt 0.625000 0.791667
vt 0.686252 0.750000
vt 0.535017 0.036400
vt 0.494734 0.036400
vt 0.541667 0.000000
vt 0.458333 0.000000
vt 0.494734 0.036400
vt 0.494734 0.036400
vt 0.535017 0.036400
vt 0.494734 0.036400
vt 0.535017 0.036400
vt 0.597298 0.048598
vt 0.541667 0.833333
vt 0.458333 0.833333
vt 0.458333 0.833333
vt 0.375000 0.000000
vt 0.375000 0.000000
vt 0.375000 0.916667
vt 0.375000 0.833333
vt 0.375000 0.916667
vt 0.375000 0.916667
vt 0.375000 0.791667
vt 0.375000 0.791667
vt 0.125000 0.750000
vt 0.291667 0.750000
vt 0.291667 0.750000
vt 0.375000 0.811252
vt 0.458333 0.750000
vt 0.458333 0.916667
vt 0.458333 1.000000
vt 0.458333 1.000000
vt 0.625000 0.833333
vt 0.541667 0.833333
vt 0.375000 0.791667
vt 0.375000 0.791667
vt 0.375000 0.811252
vt 0.375000 0.791667
vt 0.375000 0.833333
vt 0.375000 0.833333
vt 0.375000 1.000000
vt 0.458333 0.916667
vt 0.458333 0.811252
vt 0.541667 0.811252
vt 0.375000 0.811252
vt 0.375000 0.833333
vt 0.625000 0.811252
vt 0.541667 0.791667
vt 0.375000 0.750000
vt 0.458333 0.791667
vt 0.625000 0.791667
vt 0.535017 0.036400
vt 0.597298 0.048598
vt 0.541667 0.000000
vt 0.375000 0.000000
vt 0.708333 0.750000
vt 0.208333 0.750000
vt 0.313748 0.750000
vt 0.458333 1.000000
vt 0.208333 0.750000
vt 0.375000 0.811252
vt 0.375000 0.916667
vt 0.597298 0.048598
vt 0.458333 0.000000
vt 0.208333 0.750000
vt 0.313748 0.750000
vt 0.625000 0.833333
vt 0.375000 0.811252
vt 0.375000 0.916667
vt 0.625000 0.916667
vt 0.541667 1.000000
vt 0.541667 0.916667
vt 0.791667 0.750000
vt 0.791667 0.750000
vt 0.875000 0.750000
vt 0.541667 1.000000
vt 0.625000 0.916667
vt 0.541667 0.916667
vt 0.625000 1.000000
vt 0.875000 0.750000
vt 0.625000 1.000000
vn 0.9555 -0.2949 0.0000
vn -1.0000 -0.0000 0.0000
vn -0.0000 -1.0000 0.0000
vn 0.8609 -0.5088 0.0000
vn 0.3136 0.9495 0.0000
vn -0.8188 -0.5736 0.0208
vn -0.4222 -0.9065 0.0000
vn 0.0000 -0.8465 0.5325
vn -0.1402 0.9901 0.0000
vn -0.0905 -0.9484 0.3038
vn 0.9766 -0.1821 0.1145
vn 1.0000 -0.0000 0.0000
vn -0.0041 0.7687 0.6396
vn 0.4075 0.4163 0.8128
vn 0.0000 0.7687 0.6396
vn 0.0000 0.0174 0.9998
vn 0.0000 1.0000 0.0000
vn -0.9500 0.3122 0.0000
vn -0.8415 0.0000 0.5403
vn 0.0000 -0.0000 1.0000
vn -0.9873 -0.1586 0.0000
vn -0.4916 -0.8708 0.0000
vn 0.9970 0.0769 0.0000
vn -0.9789 -0.2044 0.0000
vn -0.8579 -0.0264 0.5132
vn 0.0000 0.0001 1.0000
vn 0.9808 0.1948 0.0000
vn -0.9911 -0.1331 0.0000
vn 0.4920 0.8706 0.0000
vn -0.2858 0.9583 0.0000
vn 0.0000 -0.5953 0.8035
vn 0.0000 -0.0192 0.9998
vn 0.0000 0.4173 0.9088
vn 0.1671 0.4254 0.8894
vn 0.8407 0.5415 0.0000
vn 0.0000 -0.6157 0.7880
vn 0.1310 -0.2067 0.9696
vn 0.0000 0.3222 0.9467
vn -0.0212 -0.0192 0.9996
vn -0.7018 -0.6030 -0.3793
vn 0.0000 -0.8465 -0.5325
vn 0.0000 -0.9681 -0.2507
vn 0.7639 -0.3677 -0.5303
vn 0.0000 0.6916 -0.7223
vn 0.4075 0.4163 -0.8128
vn 0.0000 0.7687 -0.6396
vn 0.0002 0.0173 -0.9999
vn 0.0000 -0.8228 -0.5683
vn 0.0000 -0.0000 -1.0000
vn -0.8579 -0.0264 -0.5132
vn 0.0000 0.0001 -1.0000
vn 0.0000 -0.5953 -0.8035
vn -0.0100 -0.6094 -0.7928
vn 0.0000 0.4173 -0.9088
vn 0.1671 0.4254 -0.8894
vn 0.1264 -0.3290 -0.9358
vn 0.1310 -0.2067 -0.9696
vn 0.0000 0.3222 -0.9467
vn 0.0000 -0.6157 -0.7880
vn -0.8524 -0.5228 0.0000
vn -0.7018 -0.6030 0.3793
vn 0.0000 -0.9681 0.2507
vn 0.7639 -0.3677 0.5303
vn 0.0000 0.6916 0.7223
vn 0.6983 0.5109 0.5014
vn 0.0002 0.0173 0.9999
vn 0.0000 -0.8228 0.5683
vn -0.0001 -0.0000 1.0000
vn 0.0000 -0.0002 1.0000
vn 0.0033 -0.6230 0.7822
vn 0.2246 0.3975 0.8897
vn 0.1264 -0.3290 0.9358
vn -0.1075 0.3606 0.9265
vn -0.0171 -0.5926 0.8053
vn -0.8188 -0.5736 -0.0208
vn -0.0905 -0.9484 -0.3038
vn 0.9766 -0.1821 -0.1145
vn -0.0041 0.7687 -0.6396
vn 0.6983 0.5109 -0.5014
vn 0.0000 0.0174 -0.9998
vn -0.8415 0.0000 -0.5403
vn -0.0001 -0.0000 -1.0000
vn 0.0000 -0.0002 -1.0000
vn 0.0033 -0.6230 -0.7822
vn -0.0126 -0.0192 -0.9997
vn 0.2246 0.3975 -0.8897
vn -0.1075 0.3606 -0.9265
vn -0.8524 -0.5229 0.0000
vn 0.0000 0.8227 0.5685
vn -0.6688 0.1336 0.7313
vn 0.0000 0.1797 0.9837
vn -0.8597 0.4201 -0.2903
vn -0.8597 0.4201 0.2903
vn -0.8113 -0.1125 0.5737
vn -0.0011 0.4239 0.9057
vn -0.7857 -0.0670 -0.6149
vn -0.5894 0.6288 -0.5072
vn -0.8786 0.3717 -0.2998
vn -0.7499 0.1189 0.6508
vn -0.6229 0.3321 0.7083
vn 0.0000 0.8227 -0.5685
vn -0.5987 0.6589 0.4553
vn -0.5894 0.6288 0.5072
vn -0.6034 -0.6713 0.4304
vn -0.8508 -0.4423 -0.2836
vn -0.8508 -0.4423 0.2836
vn -0.6423 -0.0830 -0.7619
vn -0.6688 0.1336 -0.7313
vn 0.0000 0.1797 -0.9837
vn -0.8113 -0.1125 -0.5737
vn -0.0011 0.4239 -0.9057
vn -0.7857 -0.0670 0.6149
vn -0.8786 0.3717 0.2998
vn -0.7499 0.1189 -0.6508
vn -0.6229 0.3321 -0.7083
vn -0.6423 -0.0830 0.7619
vn -0.5987 0.6589 -0.4553
vn -0.6034 -0.6713 -0.4304
usemtl None
s off
f 73/1/1 3/2/1 19/3/1
f 14/4/2 42/5/2 44/6/2
f 55/7/3 8/8/3 1/9/3
f 57/10/4 7/11/4 3/2/4
f 61/12/5 6/13/5 7/11/5
f 104/14/2 2/15/2 50/16/2
f 51/17/6 33/18/6 34/19/6
f 94/20/2 10/21/2 40/22/2
f 74/23/7 8/8/7 62/24/7
f 9/25/8 37/26/8 8/27/8
f 89/28/9 6/13/9 60/29/9
f 9/25/10 20/30/10 21/31/10
f 3/2/8 32/32/8 16/33/8
f 8/8/8 33/34/8 1/9/8
f 17/35/8 38/36/8 9/37/8
f 17/38/8 32/32/8 45/39/8
f 3/2/11 30/40/11 31/41/11
f 75/42/12 9/37/12 21/43/12
f 13/44/13 34/45/13 36/46/13
f 6/13/14 30/40/14 7/11/14
f 10/47/2 44/6/2 40/48/2
f 13/44/15 42/5/15 12/49/15
f 19/3/16 27/50/16 28/51/16
f 80/52/17 23/53/17 77/54/17
f 77/54/18 22/55/18 76/56/18
f 16/33/19 22/57/19 18/58/19
f 16/33/20 19/3/20 3/2/20
f 76/56/21 17/35/21 71/59/21
f 78/60/22 18/61/22 24/62/22
f 80/52/23 21/43/23 26/63/23
f 79/64/24 20/65/24 74/23/24
f 22/57/25 24/66/25 18/58/25
f 24/62/3 79/64/3 78/60/3
f 20/30/26 26/67/26 21/31/26
f 81/68/3 28/51/3 27/69/3
f 26/63/20 24/62/20 23/53/20
f 82/70/27 19/3/27 28/51/27
f 81/68/28 18/61/28 72/71/28
f 83/72/29 46/73/29 29/74/29
f 100/75/30 39/76/30 46/73/30
f 36/46/31 33/77/31 37/26/31
f 43/78/32 42/5/32 41/79/32
f 45/39/31 42/5/31 38/80/31
f 42/5/31 37/26/31 38/80/31
f 39/81/33 44/6/33 43/78/33
f 29/74/34 48/82/34 35/83/34
f 89/28/35 29/74/35 35/83/35
f 31/41/36 47/84/36 32/32/36
f 35/83/37 47/84/37 30/40/37
f 46/85/38 43/78/38 48/82/38
f 93/86/17 40/22/17 39/76/17
f 32/32/31 41/79/31 45/39/31
f 47/84/39 43/78/39 41/79/39
f 5/87/2 50/16/2 2/15/2
f 4/88/2 49/89/2 5/87/2
f 105/90/2 4/88/2 58/91/2
f 54/92/2 106/93/2 108/94/2
f 52/95/2 107/96/2 106/93/2
f 68/97/2 96/98/2 66/99/2
f 105/90/40 87/100/40 55/101/40
f 91/102/41 63/103/41 62/104/41
f 63/103/42 74/105/42 62/104/42
f 86/106/41 57/10/41 70/107/41
f 87/108/41 62/24/41 55/7/41
f 92/109/41 71/59/41 63/110/41
f 71/111/41 86/106/41 70/107/41
f 57/10/43 84/112/43 61/12/43
f 67/113/44 88/114/44 105/115/44
f 84/112/45 60/29/45 61/12/45
f 64/116/2 98/117/2 68/97/2
f 96/98/46 67/113/46 66/99/46
f 73/1/47 81/118/47 72/119/47
f 70/107/48 76/120/48 71/111/48
f 73/1/49 70/107/49 57/10/49
f 78/121/50 76/120/50 72/119/50
f 80/122/51 74/105/51 75/123/51
f 78/60/49 80/52/49 77/54/49
f 87/124/52 90/125/52 91/102/52
f 95/126/49 98/117/49 97/127/49
f 99/128/53 96/98/53 95/126/53
f 91/102/52 96/98/52 92/129/52
f 98/117/54 93/130/54 97/127/54
f 102/131/55 83/72/55 89/28/55
f 85/132/56 101/133/56 84/112/56
f 101/133/57 89/28/57 84/112/57
f 97/127/58 100/134/58 102/131/58
f 86/106/59 95/126/59 101/133/59
f 95/126/49 102/131/49 101/133/49
f 104/14/2 59/135/2 56/136/2
f 103/137/2 58/91/2 59/135/2
f 1/138/60 105/90/60 55/101/60
f 63/110/3 17/35/3 9/37/3
f 73/1/1 57/10/1 3/2/1
f 14/4/2 12/49/2 42/5/2
f 55/7/3 62/24/3 8/8/3
f 57/10/4 61/12/4 7/11/4
f 61/12/5 60/29/5 6/13/5
f 104/14/2 56/136/2 2/15/2
f 51/17/61 1/138/61 33/18/61
f 94/20/2 64/139/2 10/21/2
f 74/23/7 20/65/7 8/8/7
f 9/25/8 38/80/8 37/26/8
f 89/28/9 35/83/9 6/13/9
f 9/25/62 8/27/62 20/30/62
f 3/2/8 31/41/8 32/32/8
f 8/8/8 37/140/8 33/34/8
f 17/35/8 45/141/8 38/36/8
f 17/38/8 16/33/8 32/32/8
f 3/2/63 7/11/63 30/40/63
f 75/42/12 63/110/12 9/37/12
f 13/44/64 51/142/64 34/45/64
f 6/13/65 35/83/65 30/40/65
f 10/47/2 14/4/2 44/6/2
f 13/44/15 36/46/15 42/5/15
f 19/3/66 18/58/66 27/50/66
f 80/52/17 26/63/17 23/53/17
f 77/54/18 23/53/18 22/55/18
f 16/33/67 17/38/67 22/57/67
f 16/33/20 18/58/20 19/3/20
f 76/56/21 22/55/21 17/35/21
f 78/60/22 72/71/22 18/61/22
f 80/52/23 75/42/23 21/43/23
f 79/64/24 25/143/24 20/65/24
f 22/57/20 23/144/20 24/66/20
f 24/62/3 25/143/3 79/64/3
f 20/30/68 25/145/68 26/67/68
f 81/68/3 82/70/3 28/51/3
f 26/63/69 25/145/69 24/62/69
f 82/70/27 73/1/27 19/3/27
f 81/68/28 27/69/28 18/61/28
f 83/72/29 100/75/29 46/73/29
f 100/75/30 93/86/30 39/76/30
f 36/46/70 34/45/70 33/77/70
f 43/78/32 44/6/32 42/5/32
f 45/39/31 41/79/31 42/5/31
f 42/5/31 36/46/31 37/26/31
f 39/81/33 40/48/33 44/6/33
f 29/74/71 46/85/71 48/82/71
f 89/28/35 83/72/35 29/74/35
f 31/41/72 30/40/72 47/84/72
f 35/83/20 48/82/20 47/84/20
f 46/85/73 39/81/73 43/78/73
f 93/86/17 94/20/17 40/22/17
f 32/32/74 47/84/74 41/79/74
f 47/84/20 48/82/20 43/78/20
f 5/87/2 49/89/2 50/16/2
f 4/88/2 51/17/2 49/89/2
f 105/90/2 51/17/2 4/88/2
f 54/92/2 52/95/2 106/93/2
f 52/95/2 53/146/2 107/96/2
f 68/97/2 98/117/2 96/98/2
f 105/90/75 88/147/75 87/100/75
f 91/102/41 92/129/41 63/103/41
f 63/103/76 75/123/76 74/105/76
f 86/106/41 85/132/41 57/10/41
f 87/108/41 91/148/41 62/24/41
f 92/109/41 99/149/41 71/59/41
f 71/111/41 99/128/41 86/106/41
f 57/10/77 85/132/77 84/112/77
f 67/113/78 90/125/78 88/114/78
f 84/112/79 89/28/79 60/29/79
f 64/116/2 94/150/2 98/117/2
f 96/98/46 90/125/46 67/113/46
f 73/1/80 82/70/80 81/118/80
f 70/107/81 72/119/81 76/120/81
f 73/1/49 72/119/49 70/107/49
f 78/121/49 77/151/49 76/120/49
f 80/122/82 79/152/82 74/105/82
f 78/60/83 79/152/83 80/52/83
f 87/124/84 88/114/84 90/125/84
f 95/126/85 96/98/85 98/117/85
f 99/128/52 92/129/52 96/98/52
f 91/102/52 90/125/52 96/98/52
f 98/117/54 94/150/54 93/130/54
f 102/131/86 100/134/86 83/72/86
f 85/132/59 86/106/59 101/133/59
f 101/133/49 102/131/49 89/28/49
f 97/127/87 93/130/87 100/134/87
f 86/106/59 99/128/59 95/126/59
f 95/126/49 97/127/49 102/131/49
f 104/14/2 103/137/2 59/135/2
f 103/137/2 105/90/2 58/91/2
f 1/138/88 51/17/88 105/90/88
f 63/110/3 71/59/3 17/35/3
s 1
f 11/153/89 49/154/90 15/155/91
f 64/139/92 11/156/89 10/21/93
f 15/155/91 51/142/94 13/44/95
f 5/87/96 54/92/97 4/88/98
f 14/4/99 13/44/95 12/49/100
f 65/157/101 50/158/102 11/156/89
f 10/47/93 15/155/91 14/4/99
f 108/94/103 4/88/98 54/92/97
f 107/96/104 2/15/105 56/136/106
f 2/15/105 52/95/107 5/87/96
f 103/159/108 65/160/101 69/161/109
f 105/115/110 69/161/109 67/113/111
f 108/94/103 59/135/112 58/91/113
f 67/113/111 68/97/114 66/99/115
f 69/161/109 64/116/92 68/97/114
f 106/93/116 56/136/106 59/135/112
f 11/153/89 50/162/102 49/154/90
f 64/139/92 65/157/101 11/156/89
f 15/155/91 49/154/90 51/142/94
f 5/87/96 52/95/107 54/92/97
f 14/4/99 15/155/91 13/44/95
f 65/157/101 104/163/117 50/158/102
f 10/47/93 11/153/89 15/155/91
f 108/94/103 58/91/113 4/88/98
f 107/96/104 53/146/118 2/15/105
f 2/15/105 53/146/118 52/95/107
f 103/159/108 104/164/117 65/160/101
f 105/115/110 103/159/108 69/161/109
f 108/94/103 106/93/116 59/135/112
f 67/113/111 69/161/109 68/97/114
f 69/161/109 65/160/101 64/116/92
f 106/93/116 107/96/104 56/136/106
