# Blender v2.80 (sub 75) OBJ File: 'text.blend'
# www.blender.org
o Text.001
v 2.422000 23.174995 -8.435009
v 2.421022 23.188404 -8.439889
v 2.418176 23.201298 -8.444582
v 2.413594 23.213552 -8.449042
v 2.407408 23.225042 -8.453224
v 2.399749 23.235645 -8.457084
v 2.390750 23.245237 -8.460574
v 2.380543 23.253693 -8.463653
v 2.369260 23.260889 -8.466271
v 2.357032 23.266701 -8.468387
v 2.343991 23.271008 -8.469954
v 2.330270 23.273682 -8.470927
v 2.316000 23.274603 -8.471263
v 2.301730 23.273684 -8.470928
v 2.288009 23.271009 -8.469954
v 2.274969 23.266703 -8.468388
v 2.262741 23.260891 -8.466272
v 2.251457 23.253695 -8.463653
v 2.241250 23.245239 -8.460575
v 2.232251 23.235647 -8.457085
v 2.224593 23.225044 -8.453225
v 2.218406 23.213554 -8.449043
v 2.213824 23.201300 -8.444583
v 2.210978 23.188406 -8.439890
v 2.210000 23.174995 -8.435009
v 2.210978 23.161587 -8.430129
v 2.213824 23.148693 -8.425436
v 2.218406 23.136438 -8.420976
v 2.224592 23.124949 -8.416793
v 2.232251 23.114346 -8.412934
v 2.241250 23.104753 -8.409443
v 2.251457 23.096296 -8.406364
v 2.262741 23.089100 -8.403746
v 2.274969 23.083288 -8.401630
v 2.288009 23.078983 -8.400064
v 2.301730 23.076309 -8.399090
v 2.316000 23.075388 -8.398754
v 2.330270 23.076307 -8.399089
v 2.343991 23.078981 -8.400063
v 2.357031 23.083286 -8.401629
v 2.369259 23.089098 -8.403745
v 2.380543 23.096294 -8.406364
v 2.390750 23.104752 -8.409442
v 2.399749 23.114344 -8.412933
v 2.407407 23.124947 -8.416793
v 2.413594 23.136438 -8.420975
v 2.418176 23.148691 -8.425435
v 2.421022 23.161585 -8.430128
v 2.404000 22.919399 -8.341980
v 2.226000 22.919399 -8.341980
v 2.226000 21.951515 -7.989698
v 2.224853 21.928726 -7.981404
v 2.221491 21.907333 -7.973618
v 2.216031 21.887323 -7.966335
v 2.208593 21.868683 -7.959550
v 2.199293 21.851402 -7.953260
v 2.188250 21.835464 -7.947460
v 2.175582 21.820860 -7.942143
v 2.161407 21.807571 -7.937307
v 2.145844 21.795588 -7.932945
v 2.129009 21.784897 -7.929054
v 2.111022 21.775484 -7.925629
v 2.092000 21.767338 -7.922663
v 2.226000 21.643297 -7.877516
v 2.254291 21.658808 -7.883162
v 2.280158 21.675455 -7.889221
v 2.303594 21.693512 -7.895792
v 2.324593 21.713251 -7.902977
v 2.343147 21.734949 -7.910875
v 2.359250 21.758879 -7.919585
v 2.372895 21.785315 -7.929206
v 2.384074 21.814529 -7.939839
v 2.392782 21.846798 -7.951584
v 2.399010 21.882395 -7.964540
v 2.402752 21.921595 -7.978808
v 2.404000 21.964672 -7.994487
v 1.546000 22.936314 -8.348136
v 1.480375 22.932476 -8.346739
v 1.417833 22.921270 -8.342661
v 1.358875 22.903162 -8.336069
v 1.304000 22.878611 -8.327133
v 1.253708 22.848082 -8.316022
v 1.208500 22.812040 -8.302904
v 1.168875 22.770947 -8.287948
v 1.135333 22.725266 -8.271320
v 1.108375 22.675461 -8.253193
v 1.088500 22.621996 -8.233733
v 1.076208 22.565334 -8.213110
v 1.072000 22.505934 -8.191490
v 1.076056 22.442652 -8.168457
v 1.087944 22.382748 -8.146654
v 1.107250 22.326632 -8.126229
v 1.133556 22.274702 -8.107328
v 1.166444 22.227367 -8.090100
v 1.205500 22.185030 -8.074691
v 1.250306 22.148098 -8.061249
v 1.300444 22.116972 -8.049920
v 1.355500 22.092058 -8.040853
v 1.415055 22.073763 -8.034193
v 1.478694 22.062489 -8.030089
v 1.546000 22.058641 -8.028689
v 1.616063 22.062346 -8.030038
v 1.682000 22.073242 -8.034003
v 1.743438 22.091002 -8.040467
v 1.800000 22.115299 -8.049312
v 1.851313 22.145813 -8.060417
v 1.897000 22.182211 -8.073665
v 1.936688 22.224169 -8.088937
v 1.970000 22.271360 -8.106112
v 1.996562 22.323460 -8.125075
v 2.016000 22.380140 -8.145705
v 2.027937 22.441074 -8.167883
v 2.032000 22.505934 -8.191490
v 2.027823 22.566912 -8.213684
v 2.015583 22.624605 -8.234683
v 1.995719 22.678635 -8.254348
v 1.968667 22.728609 -8.272537
v 1.934865 22.774147 -8.289112
v 1.894750 22.814861 -8.303930
v 1.848760 22.850368 -8.316854
v 1.797333 22.880283 -8.327742
v 1.740906 22.904219 -8.336454
v 1.679917 22.921793 -8.342851
v 1.614802 22.932619 -8.346791
v 1.544000 22.785963 -8.293413
v 1.587413 22.783539 -8.292530
v 1.628472 22.776436 -8.289945
v 1.666906 22.764908 -8.285748
v 1.702444 22.749210 -8.280036
v 1.734816 22.729597 -8.272897
v 1.763750 22.706324 -8.264426
v 1.788976 22.679644 -8.254715
v 1.810222 22.649811 -8.243857
v 1.827219 22.617083 -8.231945
v 1.839694 22.581711 -8.219070
v 1.847378 22.543949 -8.205327
v 1.850000 22.504055 -8.190806
v 1.847569 22.459953 -8.174754
v 1.840389 22.418900 -8.159812
v 1.828625 22.381044 -8.146034
v 1.812444 22.346535 -8.133473
v 1.792014 22.315523 -8.122187
v 1.767500 22.288160 -8.112227
v 1.739069 22.264595 -8.103650
v 1.706889 22.244978 -8.096510
v 1.671125 22.229458 -8.090861
v 1.631945 22.218187 -8.086760
v 1.589514 22.211317 -8.084258
v 1.544000 22.208992 -8.083412
v 1.502162 22.211424 -8.084297
v 1.462796 22.218588 -8.086905
v 1.426125 22.230282 -8.091161
v 1.392370 22.246302 -8.096992
v 1.361755 22.266445 -8.104323
v 1.334500 22.290510 -8.113083
v 1.310829 22.318295 -8.123196
v 1.290963 22.349598 -8.134588
v 1.275125 22.384214 -8.147188
v 1.263537 22.421946 -8.160921
v 1.256421 22.462585 -8.175713
v 1.254000 22.505934 -8.191490
v 1.256498 22.545399 -8.205854
v 1.263815 22.582798 -8.219467
v 1.275687 22.617876 -8.232234
v 1.291852 22.650370 -8.244061
v 1.312044 22.680017 -8.254851
v 1.336000 22.706560 -8.264512
v 1.363456 22.729734 -8.272947
v 1.394148 22.749281 -8.280062
v 1.427812 22.764940 -8.285761
v 1.464185 22.776445 -8.289948
v 1.503002 22.783543 -8.292531
v 0.668000 23.094181 -8.405595
v 0.334000 22.787842 -8.294096
v 0.334000 22.769049 -8.287256
v 0.490000 22.769049 -8.287256
v 0.490000 22.323633 -8.125138
v 0.492040 22.286442 -8.111602
v 0.498157 22.251146 -8.098756
v 0.508344 22.218008 -8.086694
v 0.522592 22.187275 -8.075508
v 0.540897 22.159204 -8.065291
v 0.563250 22.134050 -8.056136
v 0.589645 22.112070 -8.048136
v 0.620074 22.093513 -8.041382
v 0.654531 22.078640 -8.035968
v 0.693009 22.067699 -8.031986
v 0.735501 22.060949 -8.029530
v 0.782000 22.058641 -8.028689
v 0.797250 22.059141 -8.028871
v 0.813833 22.060600 -8.029402
v 0.831500 22.062960 -8.030261
v 0.850000 22.066160 -8.031425
v 0.869083 22.070145 -8.032876
v 0.888500 22.074852 -8.034590
v 0.908000 22.080227 -8.036546
v 0.927333 22.086206 -8.038722
v 0.946250 22.092737 -8.041099
v 0.964500 22.099754 -8.043653
v 0.981833 22.107204 -8.046365
v 0.998000 22.115023 -8.049211
v 0.998000 22.271011 -8.105986
v 0.980123 22.261105 -8.102380
v 0.962481 22.252062 -8.099089
v 0.945062 22.243877 -8.096109
v 0.927852 22.236555 -8.093445
v 0.910836 22.230097 -8.091094
v 0.894000 22.224497 -8.089056
v 0.877331 22.219761 -8.087332
v 0.860815 22.215883 -8.085920
v 0.844437 22.212868 -8.084824
v 0.828185 22.210716 -8.084040
v 0.812044 22.209423 -8.083570
v 0.796000 22.208992 -8.083412
v 0.782558 22.209604 -8.083635
v 0.768463 22.211542 -8.084340
v 0.754062 22.214954 -8.085583
v 0.739704 22.219992 -8.087416
v 0.725734 22.226805 -8.089895
v 0.712500 22.235542 -8.093076
v 0.700349 22.246353 -8.097011
v 0.689630 22.259390 -8.101756
v 0.680687 22.274803 -8.107366
v 0.673870 22.292740 -8.113894
v 0.669525 22.313353 -8.121397
v 0.668000 22.336790 -8.129927
v 0.668000 22.769049 -8.287256
v 0.952000 22.769049 -8.287256
v 0.952000 22.919399 -8.341980
v 0.668000 22.919399 -8.341980
v -1.090000 22.919399 -8.341980
v -1.090000 22.075556 -8.034845
v -0.912000 22.075556 -8.034845
v -0.912000 22.688234 -8.257843
v -0.893766 22.707319 -8.264789
v -0.875963 22.724230 -8.270944
v -0.858438 22.739067 -8.276344
v -0.841037 22.751925 -8.281024
v -0.823609 22.762905 -8.285020
v -0.806000 22.772102 -8.288368
v -0.788058 22.779617 -8.291102
v -0.769630 22.785545 -8.293261
v -0.750563 22.789988 -8.294877
v -0.730704 22.793037 -8.295987
v -0.709901 22.794796 -8.296627
v -0.688000 22.795361 -8.296833
v -0.666327 22.794134 -8.296387
v -0.645445 22.790411 -8.295032
v -0.625563 22.784113 -8.292740
v -0.606889 22.775175 -8.289486
v -0.589632 22.763521 -8.285245
v -0.574000 22.749081 -8.279988
v -0.560201 22.731783 -8.273693
v -0.548445 22.711555 -8.266331
v -0.538938 22.688324 -8.257875
v -0.531889 22.662022 -8.248302
v -0.527507 22.632570 -8.237582
v -0.526000 22.599905 -8.225693
v -0.526000 22.075556 -8.034845
v -0.348000 22.075556 -8.034845
v -0.348000 22.688234 -8.257843
v -0.331728 22.703407 -8.263365
v -0.314991 22.717834 -8.268616
v -0.297906 22.731401 -8.273554
v -0.280593 22.743988 -8.278135
v -0.263168 22.755482 -8.282318
v -0.245750 22.765759 -8.286058
v -0.228457 22.774706 -8.289315
v -0.211408 22.782204 -8.292044
v -0.194719 22.788136 -8.294204
v -0.178509 22.792383 -8.295750
v -0.162897 22.794830 -8.296639
v -0.148000 22.795361 -8.296833
v -0.122913 22.793917 -8.296308
v -0.098806 22.789618 -8.294743
v -0.075906 22.782499 -8.292151
v -0.054445 22.772600 -8.288548
v -0.034649 22.759960 -8.283948
v -0.016750 22.744617 -8.278364
v -0.000976 22.726614 -8.271811
v 0.012444 22.705986 -8.264303
v 0.023281 22.682774 -8.255855
v 0.031305 22.657017 -8.246480
v 0.036288 22.628754 -8.236193
v 0.038000 22.598024 -8.225008
v 0.038000 22.075556 -8.034845
v 0.216000 22.075556 -8.034845
v 0.216000 22.605541 -8.227744
v 0.213612 22.653898 -8.245345
v 0.206565 22.699215 -8.261839
v 0.195031 22.741268 -8.277145
v 0.179185 22.779837 -8.291183
v 0.159200 22.814699 -8.303872
v 0.135250 22.845633 -8.315131
v 0.107508 22.872417 -8.324880
v 0.076148 22.894829 -8.333036
v 0.041344 22.912647 -8.339521
v 0.003268 22.925648 -8.344254
v -0.037904 22.933611 -8.347152
v -0.082000 22.936314 -8.348136
v -0.113302 22.934898 -8.347621
v -0.143250 22.930780 -8.346122
v -0.171906 22.924158 -8.343712
v -0.199333 22.915226 -8.340461
v -0.225594 22.904179 -8.336439
v -0.250750 22.891212 -8.331720
v -0.274865 22.876522 -8.326373
v -0.298000 22.860306 -8.320471
v -0.320219 22.842758 -8.314084
v -0.341583 22.824076 -8.307284
v -0.362156 22.804453 -8.300142
v -0.382000 22.784082 -8.292728
v -0.397700 22.808004 -8.301435
v -0.414769 22.829947 -8.309422
v -0.433156 22.849892 -8.316681
v -0.452815 22.867821 -8.323206
v -0.473696 22.883713 -8.328991
v -0.495750 22.897551 -8.334027
v -0.518930 22.909315 -8.338309
v -0.543185 22.918982 -8.341827
v -0.568469 22.926535 -8.344577
v -0.594732 22.931955 -8.346549
v -0.621925 22.935221 -8.347738
v -0.650000 22.936314 -8.348136
v -0.671044 22.935450 -8.347821
v -0.692185 22.932852 -8.346875
v -0.713438 22.928503 -8.345293
v -0.734815 22.922394 -8.343069
v -0.756331 22.914509 -8.340199
v -0.778000 22.904835 -8.336679
v -0.799836 22.893360 -8.332502
v -0.821852 22.880074 -8.327665
v -0.844063 22.864958 -8.322165
v -0.866482 22.848003 -8.315993
v -0.889123 22.829195 -8.309148
v -0.912000 22.808516 -8.301621
v -0.912000 22.919399 -8.341980
v -1.818000 23.364813 -8.504097
v -1.956000 23.364813 -8.504097
v -2.542000 22.075556 -8.034845
v -2.342000 22.075556 -8.034845
v -2.170000 22.453312 -8.172338
v -1.590000 22.453312 -8.172338
v -1.408000 22.075556 -8.034845
v -1.208000 22.075556 -8.034845
v -1.890000 23.082907 -8.401491
v -1.670000 22.618696 -8.232533
v -2.094000 22.618696 -8.232533
vn 0.0000 0.3420 0.9397
vn -0.0000 0.3421 0.9397
vn 0.0000 0.3419 0.9397
vn -0.0001 0.3420 0.9397
vn 0.0000 0.3422 0.9396
vn 0.0000 0.3421 0.9396
vn 0.0004 0.3413 0.9400
vn -0.0001 0.3413 0.9399
vn -0.0000 0.3429 0.9394
vn 0.0000 0.3414 0.9399
vn 0.0000 0.3423 0.9396
vn -0.0000 0.3418 0.9398
vn 0.0000 0.3415 0.9399
vn 0.0000 0.3426 0.9395
vn 0.0000 0.3400 0.9404
vn 0.0000 0.3445 0.9388
vn 0.0000 0.0000 1.0000
vn 0.0001 0.3420 0.9397
vn -0.0001 0.3421 0.9397
vn -0.0000 0.3424 0.9396
vn 0.0001 0.3419 0.9397
vn -0.0000 0.3425 0.9395
vn -0.0000 0.3411 0.9400
vn 0.0001 0.3458 0.9383
vn -0.0000 0.3409 0.9401
vn -0.0000 0.3417 0.9398
vn 0.0000 0.3396 0.9406
vn 0.0000 0.3453 0.9385
s off
f 51//1 49//1 50//1
f 51//1 76//1 49//1
f 51//1 75//1 76//1
f 52//1 75//1 51//1
f 53//1 75//1 52//1
f 53//1 74//1 75//1
f 54//2 74//2 53//2
f 55//3 74//3 54//3
f 55//1 73//1 74//1
f 56//2 73//2 55//2
f 57//1 73//1 56//1
f 57//1 72//1 73//1
f 58//1 72//1 57//1
f 59//1 72//1 58//1
f 59//2 71//2 72//2
f 60//3 71//3 59//3
f 61//1 71//1 60//1
f 61//1 70//1 71//1
f 62//1 70//1 61//1
f 63//1 70//1 62//1
f 64//1 70//1 63//1
f 64//4 69//4 70//4
f 64//1 68//1 69//1
f 64//5 67//5 68//5
f 64//6 66//6 67//6
f 64//7 65//7 66//7
f 14//8 12//8 13//8
f 15//9 12//9 14//9
f 15//10 11//10 12//10
f 16//11 11//11 15//11
f 16//12 10//12 11//12
f 17//2 10//2 16//2
f 17//5 9//5 10//5
f 18//1 9//1 17//1
f 18//3 8//3 9//3
f 19//1 8//1 18//1
f 19//5 7//5 8//5
f 20//1 7//1 19//1
f 20//3 6//3 7//3
f 21//5 6//5 20//5
f 21//1 5//1 6//1
f 22//1 5//1 21//1
f 22//1 4//1 5//1
f 23//3 4//3 22//3
f 23//1 3//1 4//1
f 24//1 3//1 23//1
f 24//2 2//2 3//2
f 25//2 2//2 24//2
f 25//1 1//1 2//1
f 26//1 1//1 25//1
f 26//1 48//1 1//1
f 27//1 48//1 26//1
f 27//2 47//2 48//2
f 28//3 47//3 27//3
f 28//2 46//2 47//2
f 29//1 46//1 28//1
f 29//1 45//1 46//1
f 30//2 45//2 29//2
f 30//2 44//2 45//2
f 31//1 44//1 30//1
f 31//3 43//3 44//3
f 32//5 43//5 31//5
f 32//12 42//12 43//12
f 33//1 42//1 32//1
f 33//5 41//5 42//5
f 34//2 41//2 33//2
f 34//12 40//12 41//12
f 35//6 40//6 34//6
f 35//5 39//5 40//5
f 36//13 39//13 35//13
f 36//14 38//14 39//14
f 37//15 38//15 36//15
f 78//11 124//11 77//11
f 78//1 123//1 124//1
f 79//1 123//1 78//1
f 79//1 122//1 123//1
f 80//1 122//1 79//1
f 80//2 121//2 122//2
f 81//1 121//1 80//1
f 81//1 120//1 121//1
f 82//1 120//1 81//1
f 82//1 119//1 120//1
f 83//1 119//1 82//1
f 83//1 118//1 119//1
f 84//1 125//1 83//1
f 125//3 118//3 83//3
f 84//16 172//16 125//16
f 126//11 118//11 125//11
f 84//2 171//2 172//2
f 127//1 118//1 126//1
f 84//1 170//1 171//1
f 128//2 118//2 127//2
f 128//1 117//1 118//1
f 85//1 170//1 84//1
f 85//2 169//2 170//2
f 129//2 117//2 128//2
f 85//1 168//1 169//1
f 130//1 117//1 129//1
f 85//1 167//1 168//1
f 131//1 117//1 130//1
f 131//1 116//1 117//1
f 86//1 167//1 85//1
f 86//1 166//1 167//1
f 132//1 116//1 131//1
f 86//1 165//1 166//1
f 133//1 116//1 132//1
f 133//1 115//1 116//1
f 87//1 165//1 86//1
f 87//1 164//1 165//1
f 134//1 115//1 133//1
f 134//1 114//1 115//1
f 88//1 164//1 87//1
f 88//1 163//1 164//1
f 135//1 114//1 134//1
f 88//1 162//1 163//1
f 136//1 114//1 135//1
f 136//1 113//1 114//1
f 89//1 162//1 88//1
f 89//2 161//2 162//2
f 137//1 113//1 136//1
f 90//1 161//1 89//1
f 90//1 160//1 161//1
f 137//1 112//1 113//1
f 138//1 112//1 137//1
f 90//1 159//1 160//1
f 139//1 112//1 138//1
f 91//1 159//1 90//1
f 139//1 111//1 112//1
f 91//1 158//1 159//1
f 140//1 111//1 139//1
f 91//2 157//2 158//2
f 92//1 157//1 91//1
f 141//2 111//2 140//2
f 141//1 110//1 111//1
f 92//1 156//1 157//1
f 142//1 110//1 141//1
f 93//1 156//1 92//1
f 142//1 109//1 110//1
f 93//2 155//2 156//2
f 143//1 109//1 142//1
f 93//1 154//1 155//1
f 144//2 109//2 143//2
f 94//1 154//1 93//1
f 144//1 108//1 109//1
f 94//1 153//1 154//1
f 145//1 108//1 144//1
f 94//1 152//1 153//1
f 146//2 108//2 145//2
f 94//1 151//1 152//1
f 147//3 108//3 146//3
f 95//1 151//1 94//1
f 147//2 107//2 108//2
f 95//1 150//1 151//1
f 148//1 107//1 147//1
f 95//3 149//3 150//3
f 149//2 107//2 148//2
f 95//1 107//1 149//1
f 96//1 107//1 95//1
f 96//1 106//1 107//1
f 97//1 106//1 96//1
f 97//1 105//1 106//1
f 98//2 105//2 97//2
f 98//1 104//1 105//1
f 99//2 104//2 98//2
f 99//1 103//1 104//1
f 100//1 103//1 99//1
f 100//1 102//1 103//1
f 101//11 102//11 100//11
f 174//1 230//1 173//1
f 174//1 229//1 230//1
f 174//1 228//1 229//1
f 175//1 228//1 174//1
f 176//17 228//17 175//17
f 177//1 227//1 176//1
f 227//17 228//17 176//17
f 177//1 226//1 227//1
f 177//1 225//1 226//1
f 178//1 225//1 177//1
f 178//1 224//1 225//1
f 178//1 223//1 224//1
f 179//1 223//1 178//1
f 179//2 222//2 223//2
f 203//18 201//18 202//18
f 204//4 201//4 203//4
f 179//3 221//3 222//3
f 205//1 201//1 204//1
f 180//2 221//2 179//2
f 180//1 220//1 221//1
f 206//18 201//18 205//18
f 207//19 201//19 206//19
f 180//1 219//1 220//1
f 208//1 201//1 207//1
f 180//1 218//1 219//1
f 209//1 201//1 208//1
f 180//12 217//12 218//12
f 210//1 201//1 209//1
f 181//1 217//1 180//1
f 211//18 201//18 210//18
f 181//20 216//20 217//20
f 212//4 201//4 211//4
f 181//21 215//21 216//21
f 213//18 201//18 212//18
f 181//10 214//10 215//10
f 214//21 201//21 213//21
f 181//1 201//1 214//1
f 182//1 201//1 181//1
f 183//1 201//1 182//1
f 184//1 201//1 183//1
f 184//5 200//5 201//5
f 185//1 200//1 184//1
f 185//1 199//1 200//1
f 185//3 198//3 199//3
f 186//2 198//2 185//2
f 186//1 197//1 198//1
f 186//12 196//12 197//12
f 186//1 195//1 196//1
f 187//1 195//1 186//1
f 187//11 194//11 195//11
f 187//3 193//3 194//3
f 188//1 193//1 187//1
f 188//2 192//2 193//2
f 188//22 191//22 192//22
f 189//23 191//23 188//23
f 189//24 190//24 191//24
f 325//25 323//25 324//25
f 301//3 299//3 300//3
f 326//3 323//3 325//3
f 326//22 322//22 323//22
f 302//2 299//2 301//2
f 302//6 298//6 299//6
f 327//12 322//12 326//12
f 327//12 321//12 322//12
f 303//3 298//3 302//3
f 328//5 321//5 327//5
f 328//1 320//1 321//1
f 303//1 297//1 298//1
f 304//3 297//3 303//3
f 329//26 320//26 328//26
f 232//1 337//1 231//1
f 232//1 336//1 337//1
f 329//2 319//2 320//2
f 305//5 297//5 304//5
f 330//1 319//1 329//1
f 305//1 296//1 297//1
f 330//1 318//1 319//1
f 331//1 318//1 330//1
f 306//3 296//3 305//3
f 331//1 317//1 318//1
f 306//2 295//2 296//2
f 332//2 317//2 331//2
f 307//3 295//3 306//3
f 332//2 316//2 317//2
f 333//3 316//3 332//3
f 308//1 295//1 307//1
f 308//1 294//1 295//1
f 333//1 315//1 316//1
f 334//1 315//1 333//1
f 309//1 294//1 308//1
f 334//1 314//1 315//1
f 335//1 314//1 334//1
f 309//1 293//1 294//1
f 310//2 293//2 309//2
f 335//2 313//2 314//2
f 336//1 313//1 335//1
f 311//1 293//1 310//1
f 311//1 273//1 293//1
f 273//1 292//1 293//1
f 232//1 234//1 336//1
f 234//18 235//18 336//18
f 235//1 236//1 336//1
f 236//1 237//1 336//1
f 237//18 238//18 336//18
f 238//1 239//1 336//1
f 239//1 240//1 336//1
f 240//1 241//1 336//1
f 241//1 242//1 336//1
f 242//2 243//2 336//2
f 243//26 244//26 336//26
f 244//9 245//9 336//9
f 245//1 313//1 336//1
f 245//27 246//27 313//27
f 246//1 312//1 313//1
f 312//1 272//1 311//1
f 272//10 273//10 311//10
f 247//20 312//20 246//20
f 274//28 292//28 273//28
f 312//11 271//11 272//11
f 248//26 312//26 247//26
f 275//1 292//1 274//1
f 312//6 270//6 271//6
f 249//3 312//3 248//3
f 276//2 292//2 275//2
f 312//1 269//1 270//1
f 250//2 312//2 249//2
f 250//11 269//11 312//11
f 277//3 292//3 276//3
f 250//3 268//3 269//3
f 277//1 291//1 292//1
f 251//1 268//1 250//1
f 251//1 267//1 268//1
f 278//3 291//3 277//3
f 251//1 266//1 267//1
f 252//1 266//1 251//1
f 279//3 291//3 278//3
f 252//3 265//3 266//3
f 253//1 265//1 252//1
f 280//1 291//1 279//1
f 253//2 264//2 265//2
f 280//1 290//1 291//1
f 254//1 264//1 253//1
f 254//1 263//1 264//1
f 281//2 290//2 280//2
f 254//2 262//2 263//2
f 255//1 262//1 254//1
f 282//1 290//1 281//1
f 255//3 261//3 262//3
f 282//1 289//1 290//1
f 256//2 261//2 255//2
f 232//1 233//1 234//1
f 256//1 260//1 261//1
f 283//1 289//1 282//1
f 257//3 260//3 256//3
f 284//2 289//2 283//2
f 284//1 288//1 289//1
f 258//1 260//1 257//1
f 285//2 288//2 284//2
f 285//1 287//1 288//1
f 259//1 260//1 258//1
f 286//1 287//1 285//1
f 340//1 338//1 339//1
f 340//1 346//1 338//1
f 346//1 345//1 338//1
f 340//1 348//1 346//1
f 347//1 345//1 346//1
f 340//1 342//1 348//1
f 342//1 347//1 348//1
f 342//1 343//1 347//1
f 343//1 345//1 347//1
f 340//1 341//1 342//1
f 344//1 345//1 343//1
