# Blender v2.80 (sub 75) OBJ File: 'text.blend'
# www.blender.org
o Text.001
v 1.817000 22.936314 -8.348136
v 1.751375 22.932476 -8.346739
v 1.688833 22.921270 -8.342661
v 1.629875 22.903162 -8.336069
v 1.575000 22.878611 -8.327133
v 1.524709 22.848082 -8.316022
v 1.479500 22.812040 -8.302904
v 1.439875 22.770947 -8.287948
v 1.406333 22.725266 -8.271320
v 1.379375 22.675461 -8.253193
v 1.359500 22.621996 -8.233733
v 1.347208 22.565334 -8.213110
v 1.343000 22.505934 -8.191490
v 1.347056 22.442652 -8.168457
v 1.358945 22.382748 -8.146654
v 1.378250 22.326632 -8.126229
v 1.404556 22.274702 -8.107328
v 1.437445 22.227367 -8.090100
v 1.476500 22.185030 -8.074691
v 1.521306 22.148098 -8.061249
v 1.571445 22.116972 -8.049920
v 1.626500 22.092058 -8.040853
v 1.686056 22.073763 -8.034193
v 1.749694 22.062489 -8.030089
v 1.817000 22.058641 -8.028689
v 1.887063 22.062346 -8.030038
v 1.953000 22.073242 -8.034003
v 2.014438 22.091002 -8.040467
v 2.071000 22.115299 -8.049312
v 2.122313 22.145813 -8.060417
v 2.168000 22.182211 -8.073665
v 2.207687 22.224169 -8.088937
v 2.241000 22.271360 -8.106112
v 2.267562 22.323460 -8.125075
v 2.287000 22.380140 -8.145705
v 2.298937 22.441074 -8.167883
v 2.303000 22.505934 -8.191490
v 2.298823 22.566912 -8.213684
v 2.286583 22.624605 -8.234683
v 2.266719 22.678635 -8.254348
v 2.239667 22.728609 -8.272537
v 2.205865 22.774147 -8.289112
v 2.165750 22.814861 -8.303930
v 2.119761 22.850368 -8.316854
v 2.068333 22.880283 -8.327742
v 2.011906 22.904219 -8.336454
v 1.950917 22.921793 -8.342851
v 1.885802 22.932619 -8.346791
v 1.815000 22.785963 -8.293413
v 1.858413 22.783539 -8.292530
v 1.899472 22.776436 -8.289945
v 1.937906 22.764908 -8.285748
v 1.973445 22.749210 -8.280036
v 2.005816 22.729597 -8.272897
v 2.034750 22.706324 -8.264426
v 2.059976 22.679644 -8.254715
v 2.081222 22.649811 -8.243857
v 2.098218 22.617083 -8.231945
v 2.110694 22.581711 -8.219070
v 2.118378 22.543949 -8.205327
v 2.121000 22.504055 -8.190806
v 2.118570 22.459953 -8.174754
v 2.111389 22.418900 -8.159812
v 2.099626 22.381044 -8.146034
v 2.083445 22.346535 -8.133473
v 2.063015 22.315523 -8.122187
v 2.038501 22.288160 -8.112227
v 2.010070 22.264595 -8.103650
v 1.977890 22.244978 -8.096510
v 1.942126 22.229458 -8.090861
v 1.902945 22.218187 -8.086760
v 1.860515 22.211317 -8.084258
v 1.815000 22.208992 -8.083412
v 1.773162 22.211424 -8.084297
v 1.733796 22.218588 -8.086905
v 1.697125 22.230282 -8.091161
v 1.663371 22.246302 -8.096992
v 1.632755 22.266445 -8.104323
v 1.605500 22.290510 -8.113083
v 1.581829 22.318295 -8.123196
v 1.561963 22.349598 -8.134588
v 1.546125 22.384214 -8.147188
v 1.534537 22.421946 -8.160921
v 1.527421 22.462585 -8.175713
v 1.525000 22.505934 -8.191490
v 1.527498 22.545399 -8.205854
v 1.534815 22.582798 -8.219467
v 1.546688 22.617876 -8.232234
v 1.562852 22.650370 -8.244061
v 1.583044 22.680017 -8.254851
v 1.607000 22.706560 -8.264512
v 1.634456 22.729734 -8.272947
v 1.665148 22.749281 -8.280062
v 1.698813 22.764940 -8.285761
v 1.735185 22.776445 -8.289948
v 1.774002 22.783543 -8.292531
v 1.141000 22.919399 -8.341980
v 0.963000 22.919399 -8.341980
v 0.963000 22.075556 -8.034845
v 1.141000 22.075556 -8.034845
v 1.159000 23.174995 -8.435009
v 1.158022 23.188404 -8.439889
v 1.155176 23.201298 -8.444582
v 1.150594 23.213552 -8.449042
v 1.144408 23.225042 -8.453224
v 1.136749 23.235645 -8.457084
v 1.127750 23.245237 -8.460574
v 1.117543 23.253693 -8.463653
v 1.106259 23.260889 -8.466271
v 1.094031 23.266701 -8.468387
v 1.080991 23.271008 -8.469954
v 1.067270 23.273682 -8.470927
v 1.053000 23.274603 -8.471263
v 1.038731 23.273684 -8.470928
v 1.025009 23.271009 -8.469954
v 1.011969 23.266703 -8.468388
v 0.999741 23.260891 -8.466272
v 0.988457 23.253695 -8.463653
v 0.978250 23.245239 -8.460575
v 0.969251 23.235647 -8.457085
v 0.961593 23.225044 -8.453225
v 0.955406 23.213554 -8.449043
v 0.950824 23.201300 -8.444583
v 0.947978 23.188406 -8.439890
v 0.947000 23.174995 -8.435009
v 0.947978 23.161587 -8.430129
v 0.950824 23.148693 -8.425436
v 0.955406 23.136438 -8.420976
v 0.961593 23.124949 -8.416793
v 0.969251 23.114346 -8.412934
v 0.978250 23.104753 -8.409443
v 0.988457 23.096296 -8.406364
v 0.999741 23.089100 -8.403746
v 1.011969 23.083288 -8.401630
v 1.025010 23.078983 -8.400064
v 1.038731 23.076309 -8.399090
v 1.053000 23.075388 -8.398754
v 1.067270 23.076307 -8.399089
v 1.080991 23.078981 -8.400063
v 1.094032 23.083286 -8.401629
v 1.106260 23.089098 -8.403745
v 1.117543 23.096294 -8.406364
v 1.127750 23.104752 -8.409442
v 1.136749 23.114344 -8.412933
v 1.144408 23.124947 -8.416793
v 1.150594 23.136438 -8.420975
v 1.155176 23.148691 -8.425435
v 1.158022 23.161585 -8.430128
v 0.179000 22.919399 -8.341980
v 0.179000 22.075556 -8.034845
v 0.357000 22.075556 -8.034845
v 0.357000 22.517210 -8.195595
v 0.358960 22.552711 -8.208516
v 0.364676 22.586668 -8.220875
v 0.373906 22.618784 -8.232565
v 0.386408 22.648766 -8.243477
v 0.401937 22.676321 -8.253507
v 0.420250 22.701155 -8.262545
v 0.441105 22.722973 -8.270486
v 0.464259 22.741482 -8.277223
v 0.489469 22.756390 -8.282649
v 0.516491 22.767403 -8.286657
v 0.545082 22.774225 -8.289141
v 0.575000 22.776566 -8.289992
v 0.586058 22.775873 -8.289740
v 0.598130 22.773834 -8.288999
v 0.611063 22.770517 -8.287790
v 0.624704 22.765985 -8.286141
v 0.638901 22.760305 -8.284074
v 0.653500 22.753544 -8.281613
v 0.668350 22.745764 -8.278781
v 0.683296 22.737030 -8.275602
v 0.698188 22.727407 -8.272100
v 0.712871 22.716965 -8.268299
v 0.727192 22.705765 -8.264222
v 0.741000 22.693874 -8.259895
v 0.835000 22.838587 -8.312566
v 0.816619 22.854326 -8.318295
v 0.798454 22.868664 -8.323514
v 0.780469 22.881605 -8.328223
v 0.762630 22.893156 -8.332428
v 0.744902 22.903324 -8.336128
v 0.727250 22.912115 -8.339329
v 0.709640 22.919537 -8.342030
v 0.692037 22.925592 -8.344234
v 0.674406 22.930292 -8.345944
v 0.656713 22.933640 -8.347162
v 0.638923 22.935644 -8.347892
v 0.621000 22.936314 -8.348136
v 0.599957 22.935007 -8.347660
v 0.578824 22.931032 -8.346213
v 0.557594 22.924303 -8.343764
v 0.536259 22.914736 -8.340282
v 0.514814 22.902246 -8.335736
v 0.493250 22.886745 -8.330094
v 0.471561 22.868153 -8.323327
v 0.449741 22.846380 -8.315403
v 0.427781 22.821348 -8.306292
v 0.405676 22.792967 -8.295961
v 0.383418 22.761152 -8.284382
v 0.361000 22.725822 -8.271523
v 0.357000 22.725822 -8.271523
v 0.357000 22.919399 -8.341980
v 0.009000 22.225906 -8.089568
v -0.000908 22.219097 -8.087090
v -0.010602 22.212778 -8.084790
v -0.020031 22.206966 -8.082675
v -0.029148 22.201685 -8.080752
v -0.037904 22.196951 -8.079030
v -0.046250 22.192783 -8.077513
v -0.054138 22.189205 -8.076210
v -0.061518 22.186234 -8.075129
v -0.068344 22.183887 -8.074275
v -0.074565 22.182188 -8.073656
v -0.080133 22.181154 -8.073280
v -0.085000 22.180799 -8.073152
v -0.090290 22.181040 -8.073238
v -0.095157 22.181782 -8.073509
v -0.099594 22.183060 -8.073974
v -0.103593 22.184906 -8.074646
v -0.107147 22.187353 -8.075537
v -0.110250 22.190432 -8.076657
v -0.112895 22.194176 -8.078020
v -0.115074 22.198620 -8.079638
v -0.116781 22.203794 -8.081520
v -0.118009 22.209732 -8.083682
v -0.118751 22.216465 -8.086133
v -0.119000 22.224028 -8.088884
v -0.119000 22.658165 -8.246898
v -0.121939 22.703907 -8.263547
v -0.130509 22.745329 -8.278624
v -0.144344 22.782497 -8.292151
v -0.163074 22.815475 -8.304154
v -0.186332 22.844330 -8.314656
v -0.213750 22.869125 -8.323681
v -0.244959 22.889927 -8.331252
v -0.279593 22.906799 -8.337394
v -0.317281 22.919811 -8.342129
v -0.357657 22.929024 -8.345482
v -0.400353 22.934502 -8.347476
v -0.445000 22.936314 -8.348136
v -0.476836 22.935530 -8.347850
v -0.507352 22.933172 -8.346992
v -0.536562 22.929235 -8.345560
v -0.564481 22.923714 -8.343550
v -0.591123 22.916601 -8.340961
v -0.616500 22.907888 -8.337790
v -0.640627 22.897570 -8.334034
v -0.663518 22.885639 -8.329692
v -0.685187 22.872091 -8.324760
v -0.705648 22.856918 -8.319238
v -0.724914 22.840113 -8.313122
v -0.743000 22.821672 -8.306410
v -0.743000 22.639372 -8.240058
v -0.721218 22.662243 -8.248383
v -0.698907 22.682953 -8.255920
v -0.676125 22.701538 -8.262684
v -0.652926 22.718027 -8.268686
v -0.629366 22.732454 -8.273937
v -0.605500 22.744850 -8.278449
v -0.581384 22.755253 -8.282234
v -0.557074 22.763689 -8.285305
v -0.532625 22.770193 -8.287673
v -0.508093 22.774799 -8.289350
v -0.483532 22.777540 -8.290347
v -0.459000 22.778444 -8.290676
v -0.433125 22.777533 -8.290344
v -0.409500 22.774754 -8.289333
v -0.388125 22.770046 -8.287620
v -0.369000 22.763338 -8.285178
v -0.352125 22.754570 -8.281987
v -0.337500 22.743675 -8.278021
v -0.325125 22.730587 -8.273257
v -0.315000 22.715242 -8.267673
v -0.307125 22.697573 -8.261241
v -0.301500 22.677515 -8.253941
v -0.298125 22.655005 -8.245748
v -0.297000 22.629974 -8.236637
v -0.297000 22.584869 -8.220221
v -0.455000 22.532246 -8.201067
v -0.491271 22.519924 -8.196582
v -0.527667 22.507126 -8.191924
v -0.563562 22.493454 -8.186948
v -0.598333 22.478510 -8.181509
v -0.631354 22.461895 -8.175462
v -0.662000 22.443211 -8.168661
v -0.689646 22.422060 -8.160962
v -0.713667 22.398045 -8.152222
v -0.733437 22.370766 -8.142293
v -0.748333 22.339827 -8.131032
v -0.757729 22.304827 -8.118294
v -0.761000 22.265373 -8.103933
v -0.759192 22.238407 -8.094119
v -0.753870 22.212212 -8.084584
v -0.745188 22.187084 -8.075438
v -0.733296 22.163328 -8.066792
v -0.718350 22.141243 -8.058754
v -0.700500 22.121130 -8.051434
v -0.679900 22.103289 -8.044939
v -0.656704 22.088015 -8.039380
v -0.631063 22.075615 -8.034867
v -0.603130 22.066385 -8.031507
v -0.573058 22.060629 -8.029412
v -0.541000 22.058641 -8.028689
v -0.520502 22.059229 -8.028903
v -0.500018 22.060999 -8.029547
v -0.479562 22.063955 -8.030623
v -0.459148 22.068106 -8.032134
v -0.438789 22.073458 -8.034082
v -0.418500 22.080019 -8.036469
v -0.398294 22.087791 -8.039299
v -0.378185 22.096785 -8.042572
v -0.358187 22.107004 -8.046292
v -0.338315 22.118458 -8.050461
v -0.318581 22.131151 -8.055080
v -0.299000 22.145092 -8.060155
v -0.294453 22.130756 -8.054937
v -0.288787 22.117805 -8.050223
v -0.281969 22.106211 -8.046003
v -0.273963 22.095949 -8.042268
v -0.264735 22.086990 -8.039007
v -0.254250 22.079311 -8.036213
v -0.242473 22.072886 -8.033874
v -0.229370 22.067686 -8.031981
v -0.214906 22.063688 -8.030526
v -0.199046 22.060865 -8.029499
v -0.181756 22.059191 -8.028890
v -0.163000 22.058641 -8.028689
v -0.149418 22.058966 -8.028807
v -0.136509 22.059988 -8.029180
v -0.124031 22.061783 -8.029833
v -0.111741 22.064417 -8.030791
v -0.099395 22.067966 -8.032084
v -0.086750 22.072500 -8.033733
v -0.073564 22.078093 -8.035769
v -0.059593 22.084812 -8.038215
v -0.044594 22.092733 -8.041098
v -0.028324 22.101925 -8.044443
v -0.010540 22.112463 -8.048279
v 0.009000 22.124420 -8.052630
v -0.297000 22.246578 -8.097093
v -0.309083 22.236130 -8.093289
v -0.321333 22.226419 -8.089755
v -0.333750 22.217476 -8.086500
v -0.346333 22.209337 -8.083538
v -0.359083 22.202034 -8.080880
v -0.372000 22.195599 -8.078538
v -0.385083 22.190065 -8.076524
v -0.398333 22.185465 -8.074849
v -0.411750 22.181828 -8.073525
v -0.425333 22.179190 -8.072565
v -0.439083 22.177584 -8.071980
v -0.453000 22.177042 -8.071783
v -0.471064 22.178043 -8.072148
v -0.488176 22.180983 -8.073218
v -0.504219 22.185762 -8.074958
v -0.519074 22.192286 -8.077332
v -0.532624 22.200453 -8.080304
v -0.544750 22.210165 -8.083839
v -0.555334 22.221329 -8.087902
v -0.564259 22.233841 -8.092457
v -0.571406 22.247606 -8.097466
v -0.576657 22.262527 -8.102898
v -0.579895 22.278505 -8.108713
v -0.581000 22.295443 -8.114878
v -0.578315 22.319317 -8.123567
v -0.570518 22.341253 -8.131551
v -0.558000 22.361427 -8.138894
v -0.541148 22.380014 -8.145659
v -0.520352 22.397194 -8.151913
v -0.496000 22.413141 -8.157717
v -0.468481 22.428030 -8.163136
v -0.438185 22.442036 -8.168234
v -0.405500 22.455339 -8.173076
v -0.370815 22.468113 -8.177725
v -0.334518 22.480534 -8.182245
v -0.297000 22.492779 -8.186703
v -0.957000 23.357296 -8.501361
v -1.139000 23.357296 -8.501361
v -1.593000 22.831068 -8.309830
v -2.045000 23.357296 -8.501361
v -2.229000 23.357296 -8.501361
v -2.229000 22.075556 -8.034845
v -2.033000 22.075556 -8.034845
v -2.033000 23.073509 -8.398070
v -2.029000 23.073509 -8.398070
v -1.609000 22.577351 -8.217484
v -1.577000 22.577351 -8.217484
v -1.157000 23.073509 -8.398070
v -1.153000 23.073509 -8.398070
v -1.153000 22.075556 -8.034845
v -0.957000 22.075556 -8.034845
vn 0.0000 0.3423 0.9396
vn -0.0000 0.3420 0.9397
vn 0.0000 0.3421 0.9397
vn 0.0000 0.3419 0.9397
vn 0.0000 0.3446 0.9388
vn -0.0001 0.3413 0.9399
vn -0.0000 0.3429 0.9394
vn 0.0000 0.3417 0.9398
vn -0.0000 0.3418 0.9398
vn -0.0000 0.3422 0.9396
vn -0.0000 0.3421 0.9396
vn 0.0000 0.3400 0.9404
vn -0.0000 0.3415 0.9399
vn -0.0001 0.3419 0.9397
vn -0.0001 0.3421 0.9397
vn 0.0005 0.3423 0.9396
vn -0.0023 0.3381 0.9411
vn -0.0001 0.3420 0.9397
vn 0.0001 0.3420 0.9397
vn 0.0000 0.3430 0.9393
vn -0.0000 0.3419 0.9398
vn 0.0000 0.3367 0.9416
vn 0.0000 0.3416 0.9398
vn -0.0007 0.3405 0.9402
vn 0.0000 0.3424 0.9396
vn -0.0000 0.3416 0.9399
vn -0.0002 0.3420 0.9397
vn 0.0002 0.3422 0.9396
vn -0.0002 0.3419 0.9397
vn 0.0001 0.3422 0.9396
vn 0.0000 0.3407 0.9402
vn -0.0003 0.3417 0.9398
vn -0.0000 0.3426 0.9395
vn -0.0000 0.3433 0.9392
vn 0.0000 0.3369 0.9416
vn 0.0000 0.3428 0.9394
vn 0.0000 0.3424 0.9395
vn 0.0000 0.3431 0.9393
vn -0.0001 0.3431 0.9393
s off
f 2//1 48//1 1//1
f 2//2 47//2 48//2
f 3//2 47//2 2//2
f 3//2 46//2 47//2
f 4//2 46//2 3//2
f 4//2 45//2 46//2
f 5//2 45//2 4//2
f 5//2 44//2 45//2
f 6//2 44//2 5//2
f 6//2 43//2 44//2
f 7//2 43//2 6//2
f 7//3 42//3 43//3
f 8//2 49//2 7//2
f 49//4 42//4 7//4
f 8//5 96//5 49//5
f 50//1 42//1 49//1
f 8//3 95//3 96//3
f 51//2 42//2 50//2
f 8//2 94//2 95//2
f 52//3 42//3 51//3
f 52//2 41//2 42//2
f 9//2 94//2 8//2
f 9//3 93//3 94//3
f 53//3 41//3 52//3
f 9//2 92//2 93//2
f 54//2 41//2 53//2
f 9//2 91//2 92//2
f 55//2 41//2 54//2
f 55//2 40//2 41//2
f 10//2 91//2 9//2
f 10//2 90//2 91//2
f 56//2 40//2 55//2
f 10//2 89//2 90//2
f 57//2 40//2 56//2
f 57//2 39//2 40//2
f 11//2 89//2 10//2
f 11//2 88//2 89//2
f 58//2 39//2 57//2
f 58//2 38//2 39//2
f 12//2 88//2 11//2
f 12//2 87//2 88//2
f 59//2 38//2 58//2
f 12//2 86//2 87//2
f 60//2 38//2 59//2
f 60//2 37//2 38//2
f 13//2 86//2 12//2
f 13//3 85//3 86//3
f 61//2 37//2 60//2
f 14//2 85//2 13//2
f 14//2 84//2 85//2
f 61//2 36//2 37//2
f 62//2 36//2 61//2
f 14//2 83//2 84//2
f 63//2 36//2 62//2
f 15//2 83//2 14//2
f 63//2 35//2 36//2
f 15//2 82//2 83//2
f 64//2 35//2 63//2
f 15//3 81//3 82//3
f 16//2 81//2 15//2
f 65//3 35//3 64//3
f 65//2 34//2 35//2
f 16//2 80//2 81//2
f 66//2 34//2 65//2
f 17//2 80//2 16//2
f 66//2 33//2 34//2
f 17//3 79//3 80//3
f 67//2 33//2 66//2
f 17//2 78//2 79//2
f 68//3 33//3 67//3
f 18//2 78//2 17//2
f 68//2 32//2 33//2
f 18//2 77//2 78//2
f 69//2 32//2 68//2
f 18//2 76//2 77//2
f 70//3 32//3 69//3
f 18//2 75//2 76//2
f 71//4 32//4 70//4
f 19//2 75//2 18//2
f 71//2 31//2 32//2
f 19//2 74//2 75//2
f 72//3 31//3 71//3
f 19//4 73//4 74//4
f 73//3 31//3 72//3
f 19//2 31//2 73//2
f 20//2 31//2 19//2
f 20//2 30//2 31//2
f 21//2 30//2 20//2
f 21//2 29//2 30//2
f 22//3 29//3 21//3
f 22//2 28//2 29//2
f 23//2 28//2 22//2
f 23//2 27//2 28//2
f 24//2 27//2 23//2
f 24//2 26//2 27//2
f 25//1 26//1 24//1
f 114//6 112//6 113//6
f 115//7 112//7 114//7
f 115//8 111//8 112//8
f 116//2 111//2 115//2
f 116//9 110//9 111//9
f 117//10 110//10 116//10
f 117//10 109//10 110//10
f 118//2 109//2 117//2
f 118//9 108//9 109//9
f 119//11 108//11 118//11
f 119//10 107//10 108//10
f 120//9 107//9 119//9
f 120//4 106//4 107//4
f 121//3 106//3 120//3
f 121//3 105//3 106//3
f 122//3 105//3 121//3
f 122//2 104//2 105//2
f 123//4 104//4 122//4
f 123//2 103//2 104//2
f 124//2 103//2 123//2
f 124//3 102//3 103//3
f 125//2 102//2 124//2
f 125//2 101//2 102//2
f 126//2 101//2 125//2
f 126//2 148//2 101//2
f 127//2 148//2 126//2
f 127//2 147//2 148//2
f 128//2 147//2 127//2
f 128//3 146//3 147//3
f 129//10 146//10 128//10
f 129//4 145//4 146//4
f 130//3 145//3 129//3
f 130//3 144//3 145//3
f 131//2 144//2 130//2
f 131//2 143//2 144//2
f 132//10 143//10 131//10
f 132//8 142//8 143//8
f 133//2 142//2 132//2
f 133//1 141//1 142//1
f 134//9 141//9 133//9
f 134//3 140//3 141//3
f 135//11 140//11 134//11
f 135//10 139//10 140//10
f 136//2 139//2 135//2
f 136//7 138//7 139//7
f 137//12 138//12 136//12
f 99//2 97//2 98//2
f 99//2 100//2 97//2
f 190//2 188//2 189//2
f 190//13 187//13 188//13
f 191//4 187//4 190//4
f 191//4 186//4 187//4
f 192//10 186//10 191//10
f 192//3 185//3 186//3
f 192//3 184//3 185//3
f 193//2 184//2 192//2
f 193//4 183//4 184//4
f 150//2 203//2 149//2
f 150//2 202//2 203//2
f 194//3 183//3 193//3
f 194//3 182//3 183//3
f 194//2 181//2 182//2
f 195//4 181//4 194//4
f 195//3 180//3 181//3
f 196//2 180//2 195//2
f 196//2 179//2 180//2
f 196//3 178//3 179//3
f 197//2 178//2 196//2
f 197//2 177//2 178//2
f 198//2 177//2 197//2
f 198//2 167//2 177//2
f 167//14 168//14 177//14
f 168//4 169//4 177//4
f 169//3 170//3 177//3
f 170//2 171//2 177//2
f 171//2 172//2 177//2
f 172//2 173//2 177//2
f 173//15 174//15 177//15
f 174//2 175//2 177//2
f 175//3 176//3 177//3
f 199//2 165//2 198//2
f 165//16 166//16 198//16
f 166//17 167//17 198//17
f 200//2 163//2 199//2
f 163//2 164//2 199//2
f 164//13 165//13 199//13
f 200//3 162//3 163//3
f 200//9 161//9 162//9
f 201//2 161//2 200//2
f 201//11 160//11 161//11
f 201//2 159//2 160//2
f 150//2 201//2 202//2
f 150//2 155//2 201//2
f 155//18 156//18 201//18
f 156//2 157//2 201//2
f 157//2 158//2 201//2
f 158//2 159//2 201//2
f 150//10 154//10 155//10
f 150//19 153//19 154//19
f 150//18 152//18 153//18
f 150//2 151//2 152//2
f 242//20 240//20 241//20
f 243//3 240//3 242//3
f 243//10 239//10 240//10
f 244//2 239//2 243//2
f 245//21 239//21 244//21
f 245//2 238//2 239//2
f 246//4 238//4 245//4
f 246//3 237//3 238//3
f 247//4 237//4 246//4
f 248//4 237//4 247//4
f 248//3 236//3 237//3
f 249//2 236//2 248//2
f 249//3 235//3 236//3
f 250//2 235//2 249//2
f 251//2 235//2 250//2
f 251//2 234//2 235//2
f 252//4 234//4 251//4
f 252//2 233//2 234//2
f 253//2 233//2 252//2
f 254//2 255//2 253//2
f 255//19 256//19 253//19
f 256//18 257//18 253//18
f 257//2 258//2 253//2
f 258//2 259//2 253//2
f 259//2 260//2 253//2
f 260//4 261//4 253//4
f 261//3 262//3 253//3
f 262//2 263//2 253//2
f 263//4 264//4 253//4
f 264//3 233//3 253//3
f 264//22 265//22 233//22
f 265//23 266//23 233//23
f 266//3 232//3 233//3
f 266//4 267//4 232//4
f 267//2 231//2 232//2
f 268//24 231//24 267//24
f 269//25 231//25 268//25
f 270//21 231//21 269//21
f 271//11 231//11 270//11
f 272//2 231//2 271//2
f 272//2 230//2 231//2
f 273//3 230//3 272//3
f 274//2 230//2 273//2
f 275//3 230//3 274//3
f 275//2 229//2 230//2
f 276//2 229//2 275//2
f 277//2 229//2 276//2
f 277//2 228//2 229//2
f 278//19 228//19 277//19
f 279//2 228//2 278//2
f 280//2 377//2 279//2
f 377//2 228//2 279//2
f 281//2 377//2 280//2
f 282//2 377//2 281//2
f 283//3 377//3 282//3
f 284//2 377//2 283//2
f 284//3 376//3 377//3
f 341//2 228//2 377//2
f 284//4 375//4 376//4
f 285//2 375//2 284//2
f 285//3 374//3 375//3
f 286//3 374//3 285//3
f 286//4 373//4 374//4
f 287//3 373//3 286//3
f 287//2 372//2 373//2
f 287//3 371//3 372//3
f 288//2 371//2 287//2
f 288//4 370//4 371//4
f 289//2 370//2 288//2
f 289//2 369//2 370//2
f 289//3 368//3 369//3
f 290//2 368//2 289//2
f 290//2 367//2 368//2
f 290//2 366//2 367//2
f 291//2 366//2 290//2
f 291//2 365//2 366//2
f 292//2 365//2 291//2
f 292//3 364//3 365//3
f 292//3 363//3 364//3
f 293//4 363//4 292//4
f 293//3 362//3 363//3
f 293//4 361//4 362//4
f 342//10 228//10 341//10
f 294//3 361//3 293//3
f 343//2 228//2 342//2
f 294//2 360//2 361//2
f 344//3 228//3 343//3
f 205//2 340//2 204//2
f 344//21 227//21 228//21
f 294//3 359//3 360//3
f 206//2 340//2 205//2
f 345//2 227//2 344//2
f 345//2 226//2 227//2
f 207//2 340//2 206//2
f 295//2 359//2 294//2
f 295//2 358//2 359//2
f 345//2 225//2 226//2
f 346//10 225//10 345//10
f 208//2 340//2 207//2
f 346//26 224//26 225//26
f 347//2 224//2 346//2
f 209//3 340//3 208//3
f 295//10 357//10 358//10
f 347//10 223//10 224//10
f 210//2 340//2 209//2
f 348//2 223//2 347//2
f 348//2 222//2 223//2
f 211//27 340//27 210//27
f 295//3 356//3 357//3
f 348//10 221//10 222//10
f 349//10 221//10 348//10
f 212//28 340//28 211//28
f 349//8 220//8 221//8
f 296//2 356//2 295//2
f 213//29 340//29 212//29
f 296//3 355//3 356//3
f 350//2 220//2 349//2
f 350//25 219//25 220//25
f 214//30 340//30 213//30
f 350//31 218//31 219//31
f 215//32 340//32 214//32
f 351//33 218//33 350//33
f 351//34 217//34 218//34
f 216//1 340//1 215//1
f 351//35 216//35 217//35
f 296//9 354//9 355//9
f 351//2 340//2 216//2
f 352//21 340//21 351//21
f 296//36 353//36 354//36
f 353//30 340//30 352//30
f 296//4 316//4 353//4
f 316//2 340//2 353//2
f 297//3 316//3 296//3
f 297//2 315//2 316//2
f 317//2 340//2 316//2
f 298//2 315//2 297//2
f 298//2 314//2 315//2
f 318//2 340//2 317//2
f 318//2 339//2 340//2
f 299//11 314//11 298//11
f 299//2 313//2 314//2
f 319//2 339//2 318//2
f 319//11 338//11 339//11
f 299//3 312//3 313//3
f 320//3 338//3 319//3
f 300//2 312//2 299//2
f 320//4 337//4 338//4
f 300//4 311//4 312//4
f 321//3 337//3 320//3
f 321//2 336//2 337//2
f 301//2 311//2 300//2
f 301//3 310//3 311//3
f 322//4 336//4 321//4
f 322//9 335//9 336//9
f 301//8 309//8 310//8
f 323//10 335//10 322//10
f 323//3 334//3 335//3
f 302//10 309//10 301//10
f 302//2 308//2 309//2
f 324//2 334//2 323//2
f 324//8 333//8 334//8
f 302//3 307//3 308//3
f 324//1 332//1 333//1
f 325//37 332//37 324//37
f 303//4 307//4 302//4
f 325//8 331//8 332//8
f 303//33 306//33 307//33
f 326//1 331//1 325//1
f 326//21 330//21 331//21
f 303//9 305//9 306//9
f 327//23 330//23 326//23
f 304//23 305//23 303//23
f 327//38 329//38 330//38
f 328//39 329//39 327//39
f 383//2 381//2 382//2
f 383//2 385//2 381//2
f 385//2 386//2 381//2
f 386//2 380//2 381//2
f 380//2 378//2 379//2
f 380//2 389//2 378//2
f 389//3 390//3 378//3
f 390//2 392//2 378//2
f 383//2 384//2 385//2
f 387//2 380//2 386//2
f 380//2 388//2 389//2
f 391//2 392//2 390//2
f 387//2 388//2 380//2
