# Blender v2.80 (sub 75) OBJ File: 'text.blend'
# www.blender.org
o Text.001
v 2.511000 22.919399 -8.341980
v 2.311000 22.919399 -8.341980
v 2.079000 22.443914 -8.168918
v 1.837000 22.919399 -8.341980
v 1.635000 22.919399 -8.341980
v 1.983000 22.255976 -8.100513
v 1.677000 21.643297 -7.877516
v 1.875000 21.643297 -7.877516
v 1.597000 22.919399 -8.341980
v 1.385000 22.919399 -8.341980
v 0.987000 22.505934 -8.191490
v 1.437000 22.075556 -8.034845
v 1.677000 22.075556 -8.034845
v 1.213000 22.505934 -8.191490
v 0.979000 23.357296 -8.501361
v 0.801000 23.357296 -8.501361
v 0.801000 22.075556 -8.034845
v 0.979000 22.075556 -8.034845
v 0.587000 22.878054 -8.326931
v 0.565805 22.886702 -8.330078
v 0.545102 22.894768 -8.333014
v 0.524719 22.902222 -8.335728
v 0.504482 22.909029 -8.338205
v 0.484217 22.915157 -8.340436
v 0.463750 22.920576 -8.342407
v 0.442909 22.925249 -8.344109
v 0.421519 22.929144 -8.345527
v 0.399406 22.932234 -8.346650
v 0.376398 22.934479 -8.347467
v 0.352321 22.935850 -8.347967
v 0.327000 22.936314 -8.348136
v 0.261125 22.932678 -8.346812
v 0.199667 22.921942 -8.342905
v 0.142875 22.904366 -8.336508
v 0.091000 22.880213 -8.327717
v 0.044292 22.849741 -8.316626
v 0.003000 22.813215 -8.303331
v -0.032625 22.770895 -8.287929
v -0.062333 22.723040 -8.270511
v -0.085875 22.669912 -8.251174
v -0.103000 22.611773 -8.230013
v -0.113458 22.548882 -8.207122
v -0.117000 22.481503 -8.182598
v -0.113146 22.421068 -8.160602
v -0.101833 22.364040 -8.139845
v -0.083437 22.310770 -8.120457
v -0.058333 22.261612 -8.102565
v -0.026896 22.216919 -8.086298
v 0.010500 22.177042 -8.071783
v 0.053479 22.142332 -8.059150
v 0.101667 22.113142 -8.048526
v 0.154688 22.089827 -8.040039
v 0.212167 22.072737 -8.033819
v 0.273729 22.062223 -8.029993
v 0.339000 22.058641 -8.028689
v 0.362874 22.059099 -8.028856
v 0.387324 22.060434 -8.029342
v 0.412094 22.062574 -8.030121
v 0.436926 22.065460 -8.031171
v 0.461564 22.069025 -8.032469
v 0.485750 22.073204 -8.033989
v 0.509228 22.077930 -8.035709
v 0.531741 22.083139 -8.037606
v 0.553031 22.088768 -8.039655
v 0.572843 22.094748 -8.041831
v 0.590918 22.101013 -8.044111
v 0.607000 22.107506 -8.046474
v 0.607000 22.272890 -8.106669
v 0.584862 22.263885 -8.103392
v 0.563398 22.255663 -8.100399
v 0.542531 22.248224 -8.097692
v 0.522185 22.241568 -8.095268
v 0.502284 22.235693 -8.093131
v 0.482750 22.230604 -8.091278
v 0.463508 22.226297 -8.089710
v 0.444482 22.222773 -8.088428
v 0.425594 22.220032 -8.087431
v 0.406769 22.218075 -8.086719
v 0.387930 22.216902 -8.086291
v 0.369000 22.216509 -8.086148
v 0.324366 22.218681 -8.086939
v 0.282593 22.225113 -8.089280
v 0.243875 22.235685 -8.093127
v 0.208408 22.250269 -8.098436
v 0.176384 22.268742 -8.105160
v 0.148000 22.290981 -8.113254
v 0.123449 22.316860 -8.122673
v 0.102926 22.346258 -8.133373
v 0.086625 22.379049 -8.145308
v 0.074741 22.415110 -8.158433
v 0.067468 22.454313 -8.172702
v 0.065000 22.496538 -8.188070
v 0.067298 22.538086 -8.203193
v 0.074046 22.577082 -8.217385
v 0.085031 22.613323 -8.230577
v 0.100037 22.646610 -8.242692
v 0.118849 22.676737 -8.253657
v 0.141250 22.703505 -8.263400
v 0.167027 22.726707 -8.271845
v 0.195963 22.746147 -8.278921
v 0.227844 22.761618 -8.284552
v 0.262454 22.772919 -8.288665
v 0.299578 22.779848 -8.291187
v 0.339000 22.782206 -8.292045
v 0.358317 22.781797 -8.291897
v 0.377371 22.780516 -8.291430
v 0.396313 22.778269 -8.290612
v 0.415296 22.774963 -8.289410
v 0.434475 22.770512 -8.287788
v 0.454000 22.764820 -8.285717
v 0.474026 22.757795 -8.283160
v 0.494704 22.749348 -8.280086
v 0.516188 22.739388 -8.276461
v 0.538630 22.727821 -8.272251
v 0.562183 22.714560 -8.267424
v 0.587000 22.699511 -8.261947
v -0.757000 22.936314 -8.348136
v -0.822625 22.932476 -8.346739
v -0.885167 22.921270 -8.342661
v -0.944125 22.903162 -8.336069
v -0.999000 22.878611 -8.327133
v -1.049292 22.848082 -8.316022
v -1.094500 22.812040 -8.302904
v -1.134125 22.770947 -8.287948
v -1.167667 22.725266 -8.271320
v -1.194625 22.675461 -8.253193
v -1.214500 22.621996 -8.233733
v -1.226792 22.565334 -8.213110
v -1.231000 22.505934 -8.191490
v -1.226945 22.442652 -8.168457
v -1.215056 22.382748 -8.146654
v -1.195750 22.326632 -8.126229
v -1.169445 22.274702 -8.107328
v -1.136556 22.227367 -8.090100
v -1.097500 22.185030 -8.074691
v -1.052695 22.148098 -8.061249
v -1.002556 22.116972 -8.049920
v -0.947500 22.092058 -8.040853
v -0.887945 22.073763 -8.034193
v -0.824306 22.062489 -8.030089
v -0.757000 22.058641 -8.028689
v -0.686938 22.062346 -8.030038
v -0.621000 22.073242 -8.034003
v -0.559563 22.091002 -8.040467
v -0.503000 22.115299 -8.049312
v -0.451688 22.145813 -8.060417
v -0.406000 22.182211 -8.073665
v -0.366313 22.224169 -8.088937
v -0.333000 22.271360 -8.106112
v -0.306438 22.323460 -8.125075
v -0.287000 22.380140 -8.145705
v -0.275063 22.441074 -8.167883
v -0.271000 22.505934 -8.191490
v -0.275177 22.566912 -8.213684
v -0.287417 22.624605 -8.234683
v -0.307281 22.678635 -8.254348
v -0.334333 22.728609 -8.272537
v -0.368135 22.774147 -8.289112
v -0.408250 22.814861 -8.303930
v -0.454240 22.850368 -8.316854
v -0.505667 22.880283 -8.327742
v -0.562094 22.904219 -8.336454
v -0.623083 22.921793 -8.342851
v -0.688198 22.932619 -8.346791
v -0.759000 22.785963 -8.293413
v -0.715587 22.783539 -8.292530
v -0.674528 22.776436 -8.289945
v -0.636094 22.764908 -8.285748
v -0.600556 22.749210 -8.280036
v -0.568184 22.729597 -8.272897
v -0.539250 22.706324 -8.264426
v -0.514024 22.679644 -8.254715
v -0.492778 22.649811 -8.243857
v -0.475781 22.617083 -8.231945
v -0.463306 22.581711 -8.219070
v -0.455622 22.543949 -8.205327
v -0.453000 22.504055 -8.190806
v -0.455431 22.459953 -8.174754
v -0.462611 22.418900 -8.159812
v -0.474375 22.381044 -8.146034
v -0.490556 22.346535 -8.133473
v -0.510986 22.315523 -8.122187
v -0.535500 22.288160 -8.112227
v -0.563931 22.264595 -8.103650
v -0.596111 22.244978 -8.096510
v -0.631875 22.229458 -8.090861
v -0.671056 22.218187 -8.086760
v -0.713486 22.211317 -8.084258
v -0.759000 22.208992 -8.083412
v -0.800838 22.211424 -8.084297
v -0.840204 22.218588 -8.086905
v -0.876875 22.230282 -8.091161
v -0.910630 22.246302 -8.096992
v -0.941245 22.266445 -8.104323
v -0.968500 22.290510 -8.113083
v -0.992171 22.318295 -8.123196
v -1.012037 22.349598 -8.134588
v -1.027875 22.384214 -8.147188
v -1.039463 22.421946 -8.160921
v -1.046579 22.462585 -8.175713
v -1.049000 22.505934 -8.191490
v -1.046502 22.545399 -8.205854
v -1.039185 22.582798 -8.219467
v -1.027313 22.617876 -8.232234
v -1.011148 22.650370 -8.244061
v -0.990956 22.680017 -8.254851
v -0.967000 22.706560 -8.264512
v -0.939544 22.729734 -8.272947
v -0.908852 22.749281 -8.280062
v -0.875188 22.764940 -8.285761
v -0.838815 22.776445 -8.289948
v -0.799998 22.783543 -8.292531
v -2.357000 23.357296 -8.501361
v -2.357000 22.075556 -8.034845
v -2.161000 22.075556 -8.034845
v -2.161000 22.631855 -8.237322
v -2.079000 22.631855 -8.237322
v -2.054308 22.631111 -8.237051
v -2.029963 22.628408 -8.236068
v -2.005563 22.623045 -8.234116
v -1.980704 22.614313 -8.230937
v -1.954984 22.601511 -8.226277
v -1.928000 22.583929 -8.219878
v -1.899350 22.560867 -8.211485
v -1.868630 22.531620 -8.200839
v -1.835438 22.495481 -8.187686
v -1.799371 22.451748 -8.171768
v -1.760026 22.399714 -8.152829
v -1.717000 22.338671 -8.130611
v -1.537000 22.075556 -8.034845
v -1.303000 22.075556 -8.034845
v -1.325299 22.104523 -8.045388
v -1.345389 22.130632 -8.054892
v -1.363562 22.154314 -8.063511
v -1.380111 22.175999 -8.071404
v -1.395326 22.196117 -8.078727
v -1.409500 22.215099 -8.085635
v -1.422924 22.233377 -8.092288
v -1.435889 22.251383 -8.098841
v -1.448688 22.269543 -8.105452
v -1.461611 22.288292 -8.112275
v -1.474951 22.308058 -8.119469
v -1.489000 22.329273 -8.127191
v -1.514461 22.368349 -8.141414
v -1.539019 22.405701 -8.155008
v -1.562938 22.441330 -8.167976
v -1.586482 22.475237 -8.180318
v -1.609914 22.507421 -8.192032
v -1.633500 22.537884 -8.203119
v -1.657502 22.566622 -8.213579
v -1.682185 22.593637 -8.223413
v -1.707813 22.618931 -8.232618
v -1.734648 22.642502 -8.241198
v -1.762956 22.664351 -8.249149
v -1.793000 22.684477 -8.256474
v -1.757844 22.699265 -8.261857
v -1.725417 22.716339 -8.268071
v -1.695781 22.735632 -8.275093
v -1.669000 22.757076 -8.282899
v -1.645136 22.780609 -8.291464
v -1.624250 22.806166 -8.300766
v -1.606406 22.833681 -8.310781
v -1.591667 22.863087 -8.321484
v -1.580094 22.894321 -8.332852
v -1.571750 22.927319 -8.344862
v -1.566698 22.962011 -8.357489
v -1.565000 22.998333 -8.370709
v -1.568544 23.051983 -8.390236
v -1.579019 23.101927 -8.408414
v -1.596188 23.147980 -8.425176
v -1.619815 23.189962 -8.440456
v -1.649664 23.227688 -8.454187
v -1.685500 23.260977 -8.466304
v -1.727086 23.289646 -8.476739
v -1.774185 23.313513 -8.485425
v -1.826563 23.332394 -8.492297
v -1.883982 23.346107 -8.497289
v -1.946206 23.354467 -8.500332
v -2.013000 23.357296 -8.501361
v -2.161000 23.199429 -8.443902
v -2.035000 23.199429 -8.443902
v -1.989852 23.197918 -8.443352
v -1.949315 23.193443 -8.441724
v -1.913250 23.186100 -8.439051
v -1.881519 23.175972 -8.435365
v -1.853982 23.163157 -8.430700
v -1.830500 23.147745 -8.425091
v -1.810935 23.129827 -8.418569
v -1.795148 23.109495 -8.411169
v -1.783000 23.086840 -8.402923
v -1.774352 23.061954 -8.393865
v -1.769065 23.034927 -8.384028
v -1.767000 23.005850 -8.373446
v -1.767843 22.979242 -8.363760
v -1.771574 22.953201 -8.354282
v -1.778500 22.928061 -8.345132
v -1.788926 22.904154 -8.336431
v -1.803158 22.881813 -8.328300
v -1.821500 22.861372 -8.320859
v -1.844259 22.843163 -8.314231
v -1.871741 22.827517 -8.308537
v -1.904250 22.814770 -8.303897
v -1.942093 22.805252 -8.300433
v -1.985574 22.799297 -8.298266
v -2.035000 22.797239 -8.297517
v -2.161000 22.797239 -8.297517
vn 0.0000 0.3420 0.9397
vn -0.0000 0.3422 0.9396
vn 0.0000 0.3419 0.9397
vn 0.0000 0.3425 0.9395
vn 0.0000 0.3421 0.9396
vn 0.0000 0.3421 0.9397
vn 0.0000 0.3417 0.9398
vn 0.0001 0.3420 0.9397
vn -0.0001 0.3420 0.9397
vn 0.0002 0.3419 0.9397
vn 0.0000 0.3437 0.9391
vn 0.0001 0.3427 0.9395
vn 0.0000 0.3426 0.9395
vn 0.0000 0.3412 0.9400
vn 0.0001 0.3421 0.9397
vn 0.0001 0.3418 0.9398
vn 0.0000 0.3423 0.9396
vn 0.0000 0.3418 0.9398
vn 0.0000 0.3419 0.9398
vn 0.0000 0.3439 0.9390
vn 0.0000 0.3444 0.9388
vn -0.0001 0.3421 0.9397
vn 0.0000 0.3414 0.9399
s off
f 6//1 4//1 5//1
f 6//1 3//1 4//1
f 3//1 1//1 2//1
f 3//1 8//1 1//1
f 6//1 8//1 3//1
f 7//1 8//1 6//1
f 17//1 15//1 16//1
f 17//1 18//1 15//1
f 11//1 9//1 10//1
f 11//1 14//1 9//1
f 12//1 14//1 11//1
f 12//1 13//1 14//1
f 32//2 30//2 31//2
f 32//3 29//3 30//3
f 32//4 28//4 29//4
f 33//3 28//3 32//3
f 33//3 27//3 28//3
f 33//5 26//5 27//5
f 33//6 25//6 26//6
f 34//6 25//6 33//6
f 34//7 24//7 25//7
f 34//1 23//1 24//1
f 34//5 22//5 23//5
f 35//1 22//1 34//1
f 35//1 21//1 22//1
f 35//6 20//6 21//6
f 35//3 19//3 20//3
f 36//1 19//1 35//1
f 36//1 108//1 19//1
f 108//6 109//6 19//6
f 109//1 110//1 19//1
f 110//1 111//1 19//1
f 111//1 112//1 19//1
f 112//1 113//1 19//1
f 113//8 114//8 19//8
f 114//9 115//9 19//9
f 115//8 116//8 19//8
f 37//1 106//1 36//1
f 106//10 107//10 36//10
f 107//11 108//11 36//11
f 38//1 104//1 37//1
f 104//12 105//12 37//12
f 105//13 106//13 37//13
f 38//14 103//14 104//14
f 38//6 102//6 103//6
f 38//1 101//1 102//1
f 39//1 101//1 38//1
f 39//1 100//1 101//1
f 39//6 99//6 100//6
f 39//1 98//1 99//1
f 40//6 98//6 39//6
f 40//1 97//1 98//1
f 40//1 96//1 97//1
f 41//1 96//1 40//1
f 41//6 95//6 96//6
f 41//1 94//1 95//1
f 42//1 94//1 41//1
f 42//1 93//1 94//1
f 43//1 93//1 42//1
f 43//6 92//6 93//6
f 43//1 91//1 92//1
f 44//1 91//1 43//1
f 44//1 90//1 91//1
f 45//1 90//1 44//1
f 45//1 89//1 90//1
f 45//1 88//1 89//1
f 46//6 88//6 45//6
f 46//1 87//1 88//1
f 46//1 86//1 87//1
f 47//1 86//1 46//1
f 47//1 85//1 86//1
f 69//1 67//1 68//1
f 47//1 84//1 85//1
f 70//1 67//1 69//1
f 48//1 84//1 47//1
f 71//8 67//8 70//8
f 48//6 83//6 84//6
f 72//15 67//15 71//15
f 73//9 67//9 72//9
f 74//1 67//1 73//1
f 48//3 82//3 83//3
f 75//1 67//1 74//1
f 76//3 67//3 75//3
f 48//6 81//6 82//6
f 77//6 67//6 76//6
f 78//6 67//6 77//6
f 48//3 80//3 81//3
f 79//1 67//1 78//1
f 49//1 80//1 48//1
f 80//16 67//16 79//16
f 49//1 67//1 80//1
f 50//6 67//6 49//6
f 51//1 67//1 50//1
f 52//1 67//1 51//1
f 52//1 66//1 67//1
f 52//7 65//7 66//7
f 52//17 64//17 65//17
f 53//1 64//1 52//1
f 53//7 63//7 64//7
f 53//2 62//2 63//2
f 53//2 61//2 62//2
f 53//18 60//18 61//18
f 54//6 60//6 53//6
f 54//1 59//1 60//1
f 54//1 58//1 59//1
f 54//19 57//19 58//19
f 55//2 57//2 54//2
f 55//20 56//20 57//20
f 118//6 164//6 117//6
f 118//6 163//6 164//6
f 119//1 163//1 118//1
f 119//1 162//1 163//1
f 120//6 162//6 119//6
f 120//6 161//6 162//6
f 121//1 161//1 120//1
f 121//1 160//1 161//1
f 122//1 160//1 121//1
f 122//1 159//1 160//1
f 123//1 159//1 122//1
f 123//6 158//6 159//6
f 124//1 165//1 123//1
f 165//3 158//3 123//3
f 124//21 212//21 165//21
f 166//17 158//17 165//17
f 124//6 211//6 212//6
f 167//1 158//1 166//1
f 124//1 210//1 211//1
f 168//6 158//6 167//6
f 168//1 157//1 158//1
f 125//1 210//1 124//1
f 125//6 209//6 210//6
f 169//6 157//6 168//6
f 125//1 208//1 209//1
f 170//1 157//1 169//1
f 125//1 207//1 208//1
f 171//1 157//1 170//1
f 171//1 156//1 157//1
f 126//1 207//1 125//1
f 126//6 206//6 207//6
f 172//1 156//1 171//1
f 126//1 205//1 206//1
f 173//1 156//1 172//1
f 173//1 155//1 156//1
f 127//1 205//1 126//1
f 127//1 204//1 205//1
f 174//1 155//1 173//1
f 174//1 154//1 155//1
f 128//1 204//1 127//1
f 128//1 203//1 204//1
f 175//1 154//1 174//1
f 128//1 202//1 203//1
f 176//1 154//1 175//1
f 176//1 153//1 154//1
f 129//1 202//1 128//1
f 129//1 201//1 202//1
f 177//1 153//1 176//1
f 130//1 201//1 129//1
f 130//1 200//1 201//1
f 177//1 152//1 153//1
f 178//6 152//6 177//6
f 130//1 199//1 200//1
f 179//1 152//1 178//1
f 131//1 199//1 130//1
f 179//1 151//1 152//1
f 131//1 198//1 199//1
f 180//1 151//1 179//1
f 131//6 197//6 198//6
f 132//1 197//1 131//1
f 181//6 151//6 180//6
f 181//1 150//1 151//1
f 132//1 196//1 197//1
f 182//1 150//1 181//1
f 133//1 196//1 132//1
f 182//1 149//1 150//1
f 133//1 195//1 196//1
f 183//1 149//1 182//1
f 133//1 194//1 195//1
f 184//6 149//6 183//6
f 134//1 194//1 133//1
f 184//1 148//1 149//1
f 134//6 193//6 194//6
f 185//1 148//1 184//1
f 134//1 192//1 193//1
f 186//6 148//6 185//6
f 134//1 191//1 192//1
f 187//3 148//3 186//3
f 135//1 191//1 134//1
f 187//1 147//1 148//1
f 135//1 190//1 191//1
f 188//6 147//6 187//6
f 135//1 189//1 190//1
f 189//6 147//6 188//6
f 135//1 147//1 189//1
f 136//1 147//1 135//1
f 136//1 146//1 147//1
f 137//1 146//1 136//1
f 137//1 145//1 146//1
f 138//6 145//6 137//6
f 138//1 144//1 145//1
f 139//1 144//1 138//1
f 139//1 143//1 144//1
f 140//6 143//6 139//6
f 140//1 142//1 143//1
f 141//17 142//17 140//17
f 214//1 280//1 213//1
f 280//1 279//1 213//1
f 280//1 278//1 279//1
f 280//1 277//1 278//1
f 280//1 276//1 277//1
f 280//1 275//1 276//1
f 280//1 274//1 275//1
f 280//1 273//1 274//1
f 280//1 272//1 273//1
f 280//1 281//1 272//1
f 281//1 271//1 272//1
f 214//1 306//1 280//1
f 282//22 271//22 281//22
f 283//3 271//3 282//3
f 284//3 271//3 283//3
f 284//1 270//1 271//1
f 285//3 270//3 284//3
f 286//1 270//1 285//1
f 287//6 270//6 286//6
f 287//1 269//1 270//1
f 288//1 269//1 287//1
f 289//1 269//1 288//1
f 290//1 269//1 289//1
f 290//1 268//1 269//1
f 291//1 268//1 290//1
f 292//1 268//1 291//1
f 292//1 267//1 268//1
f 293//1 267//1 292//1
f 294//6 267//6 293//6
f 294//1 266//1 267//1
f 295//6 266//6 294//6
f 295//1 265//1 266//1
f 296//1 265//1 295//1
f 297//6 265//6 296//6
f 297//1 264//1 265//1
f 298//3 264//3 297//3
f 298//1 263//1 264//1
f 299//6 263//6 298//6
f 299//1 262//1 263//1
f 300//1 262//1 299//1
f 301//6 262//6 300//6
f 301//1 261//1 262//1
f 302//1 261//1 301//1
f 303//2 261//2 302//2
f 303//1 260//1 261//1
f 304//3 260//3 303//3
f 305//2 260//2 304//2
f 214//1 216//1 306//1
f 216//1 305//1 306//1
f 216//1 260//1 305//1
f 216//1 259//1 260//1
f 216//6 258//6 259//6
f 216//1 257//1 258//1
f 216//1 256//1 257//1
f 216//3 255//3 256//3
f 216//1 254//1 255//1
f 216//6 253//6 254//6
f 216//3 217//3 253//3
f 217//7 218//7 253//7
f 218//1 252//1 253//1
f 214//1 215//1 216//1
f 219//23 252//23 218//23
f 220//3 252//3 219//3
f 221//17 252//17 220//17
f 221//1 251//1 252//1
f 222//6 251//6 221//6
f 223//1 251//1 222//1
f 223//1 250//1 251//1
f 224//1 250//1 223//1
f 224//6 249//6 250//6
f 225//1 249//1 224//1
f 225//1 248//1 249//1
f 226//1 248//1 225//1
f 226//1 247//1 248//1
f 227//1 247//1 226//1
f 227//1 246//1 247//1
f 228//1 246//1 227//1
f 228//1 245//1 246//1
f 228//1 244//1 245//1
f 229//1 244//1 228//1
f 229//1 243//1 244//1
f 230//1 243//1 229//1
f 230//1 242//1 243//1
f 230//8 241//8 242//8
f 230//1 240//1 241//1
f 230//1 239//1 240//1
f 230//1 238//1 239//1
f 230//1 237//1 238//1
f 230//1 236//1 237//1
f 230//1 235//1 236//1
f 230//1 234//1 235//1
f 230//1 233//1 234//1
f 230//1 232//1 233//1
f 230//1 231//1 232//1
