# Blender v2.80 (sub 75) OBJ File: 'text.blend'
# www.blender.org
o Text.001
v 2.274000 22.919399 -8.341980
v 2.062000 22.919399 -8.341980
v 1.664000 22.505934 -8.191490
v 2.114000 22.075556 -8.034845
v 2.354000 22.075556 -8.034845
v 1.890000 22.505934 -8.191490
v 1.656000 23.357296 -8.501361
v 1.478000 23.357296 -8.501361
v 1.478000 22.075556 -8.034845
v 1.656000 22.075556 -8.034845
v 1.272000 22.319876 -8.123771
v 1.246037 22.304455 -8.118157
v 1.220130 22.290169 -8.112959
v 1.194250 22.277060 -8.108187
v 1.168370 22.265163 -8.103857
v 1.142463 22.254520 -8.099983
v 1.116500 22.245171 -8.096580
v 1.090454 22.237148 -8.093660
v 1.064296 22.230499 -8.091241
v 1.038000 22.225260 -8.089333
v 1.011537 22.221468 -8.087954
v 0.984880 22.219166 -8.087115
v 0.958000 22.218390 -8.086832
v 0.916461 22.220186 -8.087487
v 0.877852 22.225567 -8.089445
v 0.842187 22.234510 -8.092700
v 0.809481 22.246998 -8.097245
v 0.779748 22.263008 -8.103073
v 0.753000 22.282524 -8.110175
v 0.729252 22.305523 -8.118546
v 0.708518 22.331987 -8.128180
v 0.690812 22.361898 -8.139066
v 0.676148 22.395235 -8.151199
v 0.664539 22.431978 -8.164573
v 0.656000 22.472107 -8.179178
v 1.288000 22.472107 -8.179178
v 1.284871 22.546776 -8.206356
v 1.275639 22.614817 -8.231120
v 1.260531 22.676254 -8.253482
v 1.239778 22.731113 -8.273449
v 1.213607 22.779419 -8.291031
v 1.182250 22.821199 -8.306238
v 1.145934 22.856482 -8.319079
v 1.104889 22.885290 -8.329565
v 1.059344 22.907652 -8.337704
v 1.009528 22.923592 -8.343506
v 0.955670 22.933136 -8.346979
v 0.898000 22.936314 -8.348136
v 0.837639 22.932764 -8.346844
v 0.780778 22.922323 -8.343043
v 0.727750 22.905306 -8.336849
v 0.678889 22.882021 -8.328375
v 0.634528 22.852787 -8.317735
v 0.595000 22.817913 -8.305041
v 0.560639 22.777716 -8.290411
v 0.531778 22.732506 -8.273955
v 0.508750 22.682596 -8.255791
v 0.491889 22.628304 -8.236030
v 0.481528 22.569939 -8.214787
v 0.478000 22.507812 -8.192174
v 0.481231 22.450020 -8.171139
v 0.490852 22.393621 -8.150612
v 0.506750 22.339314 -8.130845
v 0.528815 22.287785 -8.112090
v 0.556935 22.239727 -8.094599
v 0.591000 22.195833 -8.078623
v 0.630898 22.156794 -8.064414
v 0.676518 22.123302 -8.052224
v 0.727750 22.096048 -8.042304
v 0.784481 22.075726 -8.034907
v 0.846602 22.063025 -8.030285
v 0.914000 22.058641 -8.028689
v 0.950912 22.059309 -8.028933
v 0.985796 22.061323 -8.029665
v 1.018875 22.064692 -8.030891
v 1.050370 22.069433 -8.032617
v 1.080504 22.075556 -8.034845
v 1.109500 22.083076 -8.037582
v 1.137578 22.092005 -8.040833
v 1.164963 22.102358 -8.044600
v 1.191875 22.114145 -8.048891
v 1.218537 22.127382 -8.053709
v 1.245171 22.142078 -8.059058
v 1.272000 22.158247 -8.064943
v 0.660000 22.582991 -8.219537
v 0.667206 22.615124 -8.231233
v 0.676815 22.644773 -8.242023
v 0.688812 22.671877 -8.251888
v 0.703185 22.696377 -8.260806
v 0.719919 22.718216 -8.268754
v 0.739000 22.737331 -8.275712
v 0.760414 22.753670 -8.281658
v 0.784148 22.767168 -8.286572
v 0.810187 22.777769 -8.290430
v 0.838519 22.785414 -8.293213
v 0.869127 22.790043 -8.294897
v 0.902000 22.791599 -8.295465
v 0.932486 22.789936 -8.294859
v 0.960889 22.785023 -8.293070
v 0.987125 22.776978 -8.290142
v 1.011111 22.765917 -8.286117
v 1.032764 22.751957 -8.281035
v 1.052000 22.735220 -8.274943
v 1.068736 22.715818 -8.267882
v 1.082889 22.693874 -8.259895
v 1.094375 22.669500 -8.251023
v 1.103111 22.642817 -8.241311
v 1.109014 22.613939 -8.230802
v 1.112000 22.582991 -8.219537
v -0.258000 22.919399 -8.341980
v -0.258000 22.075556 -8.034845
v -0.080000 22.075556 -8.034845
v -0.080000 22.517210 -8.195595
v -0.078041 22.552711 -8.208516
v -0.072324 22.586668 -8.220875
v -0.063094 22.618784 -8.232565
v -0.050593 22.648766 -8.243477
v -0.035064 22.676321 -8.253507
v -0.016750 22.701155 -8.262545
v 0.004105 22.722973 -8.270486
v 0.027259 22.741482 -8.277223
v 0.052469 22.756390 -8.282649
v 0.079491 22.767403 -8.286657
v 0.108082 22.774225 -8.289141
v 0.138000 22.776566 -8.289992
v 0.149058 22.775873 -8.289740
v 0.161130 22.773834 -8.288999
v 0.174062 22.770517 -8.287790
v 0.187704 22.765985 -8.286141
v 0.201900 22.760305 -8.284074
v 0.216500 22.753544 -8.281613
v 0.231349 22.745764 -8.278781
v 0.246296 22.737030 -8.275602
v 0.261187 22.727407 -8.272100
v 0.275870 22.716965 -8.268299
v 0.290192 22.705765 -8.264222
v 0.304000 22.693874 -8.259895
v 0.398000 22.838587 -8.312566
v 0.379619 22.854326 -8.318295
v 0.361454 22.868664 -8.323514
v 0.343469 22.881605 -8.328223
v 0.325630 22.893156 -8.332428
v 0.307902 22.903324 -8.336128
v 0.290250 22.912115 -8.339329
v 0.272640 22.919537 -8.342030
v 0.255037 22.925592 -8.344234
v 0.237406 22.930292 -8.345944
v 0.219713 22.933640 -8.347162
v 0.201922 22.935644 -8.347892
v 0.184000 22.936314 -8.348136
v 0.162957 22.935007 -8.347660
v 0.141824 22.931032 -8.346213
v 0.120594 22.924303 -8.343764
v 0.099259 22.914736 -8.340282
v 0.077814 22.902246 -8.335736
v 0.056250 22.886745 -8.330094
v 0.034561 22.868153 -8.323327
v 0.012741 22.846380 -8.315403
v -0.009219 22.821348 -8.306292
v -0.031324 22.792967 -8.295961
v -0.053582 22.761152 -8.284382
v -0.076000 22.725822 -8.271523
v -0.080000 22.725822 -8.271523
v -0.080000 22.919399 -8.341980
v -1.096000 23.357296 -8.501361
v -1.274000 23.357296 -8.501361
v -1.274000 22.075556 -8.034845
v -1.096000 22.075556 -8.034845
v -1.096000 22.680716 -8.255106
v -1.075436 22.701675 -8.262734
v -1.055658 22.720436 -8.269563
v -1.036531 22.737068 -8.275617
v -1.017926 22.751646 -8.280922
v -0.999710 22.764238 -8.285505
v -0.981750 22.774921 -8.289393
v -0.963916 22.783762 -8.292612
v -0.946074 22.790834 -8.295186
v -0.928094 22.796209 -8.297142
v -0.909843 22.799961 -8.298508
v -0.891189 22.802158 -8.299308
v -0.872000 22.802877 -8.299569
v -0.845850 22.801216 -8.298965
v -0.821463 22.796318 -8.297181
v -0.798938 22.788313 -8.294268
v -0.778370 22.777334 -8.290272
v -0.759859 22.763508 -8.285239
v -0.743500 22.746967 -8.279220
v -0.729391 22.727844 -8.272259
v -0.717630 22.706266 -8.264405
v -0.708313 22.682365 -8.255706
v -0.701537 22.656271 -8.246208
v -0.697401 22.628115 -8.235961
v -0.696000 22.598024 -8.225008
v -0.696000 22.075556 -8.034845
v -0.518000 22.075556 -8.034845
v -0.518000 22.592386 -8.222956
v -0.520660 22.647713 -8.243093
v -0.528445 22.698128 -8.261443
v -0.541063 22.743647 -8.278010
v -0.558222 22.784290 -8.292804
v -0.579632 22.820082 -8.305831
v -0.605000 22.851038 -8.317098
v -0.634035 22.877176 -8.326612
v -0.666445 22.898520 -8.334380
v -0.701938 22.915085 -8.340408
v -0.740222 22.926891 -8.344707
v -0.781007 22.933962 -8.347280
v -0.824000 22.936314 -8.348136
v -0.848982 22.935343 -8.347782
v -0.873852 22.932459 -8.346733
v -0.898500 22.927710 -8.345004
v -0.922815 22.921139 -8.342612
v -0.946685 22.912794 -8.339575
v -0.970000 22.902719 -8.335908
v -0.992648 22.890961 -8.331629
v -1.014519 22.877565 -8.326753
v -1.035500 22.862577 -8.321299
v -1.055482 22.846045 -8.315280
v -1.074352 22.828007 -8.308716
v -1.092000 22.808516 -8.301621
v -1.096000 22.808516 -8.301621
v -1.514000 23.283998 -8.474683
v -1.538162 23.298409 -8.479927
v -1.562630 23.311563 -8.484715
v -1.587375 23.323465 -8.489048
v -1.612370 23.334116 -8.492924
v -1.637588 23.343513 -8.496345
v -1.663000 23.351658 -8.499309
v -1.688579 23.358549 -8.501817
v -1.714297 23.364187 -8.503869
v -1.740125 23.368574 -8.505466
v -1.766037 23.371706 -8.506606
v -1.792005 23.373587 -8.507290
v -1.818000 23.374210 -8.507517
v -1.878664 23.371464 -8.506517
v -1.935473 23.363361 -8.503569
v -1.988157 23.350101 -8.498742
v -2.036445 23.331890 -8.492114
v -2.080066 23.308928 -8.483756
v -2.118751 23.281416 -8.473742
v -2.152226 23.249559 -8.462148
v -2.180223 23.213560 -8.449045
v -2.202469 23.173616 -8.434507
v -2.218695 23.129934 -8.418608
v -2.228629 23.082716 -8.401422
v -2.232000 23.032162 -8.383021
v -2.220392 22.950674 -8.353362
v -2.188297 22.880644 -8.327874
v -2.139813 22.820143 -8.305853
v -2.079037 22.767237 -8.286597
v -2.010067 22.719995 -8.269403
v -1.937000 22.676487 -8.253567
v -1.863933 22.634779 -8.238386
v -1.794963 22.592941 -8.223158
v -1.734187 22.549042 -8.207180
v -1.685704 22.501148 -8.189748
v -1.653609 22.447327 -8.170159
v -1.642000 22.385654 -8.147712
v -1.643466 22.367470 -8.141094
v -1.647889 22.348885 -8.134329
v -1.655313 22.330271 -8.127554
v -1.665778 22.312012 -8.120908
v -1.679327 22.294479 -8.114528
v -1.696000 22.278059 -8.108551
v -1.715840 22.263126 -8.103116
v -1.738889 22.250061 -8.098360
v -1.765188 22.239239 -8.094421
v -1.794778 22.231041 -8.091437
v -1.827702 22.225845 -8.089546
v -1.864000 22.224028 -8.088884
v -1.897323 22.225391 -8.089381
v -1.930250 22.229456 -8.090860
v -1.962719 22.236185 -8.093309
v -1.994667 22.245535 -8.096713
v -2.026032 22.257471 -8.101057
v -2.056751 22.271950 -8.106327
v -2.086761 22.288937 -8.112510
v -2.116001 22.308388 -8.119590
v -2.144407 22.330269 -8.127554
v -2.171917 22.354538 -8.136387
v -2.198469 22.381155 -8.146074
v -2.224000 22.410088 -8.156605
v -2.224000 22.177042 -8.071783
v -2.195363 22.157736 -8.064756
v -2.166399 22.140209 -8.058377
v -2.137032 22.124447 -8.052640
v -2.107186 22.110426 -8.047538
v -2.076784 22.098129 -8.043061
v -2.045750 22.087536 -8.039206
v -2.014009 22.078623 -8.035962
v -1.981482 22.071377 -8.033324
v -1.948094 22.065775 -8.031285
v -1.913769 22.061798 -8.029838
v -1.878430 22.059425 -8.028975
v -1.842000 22.058641 -8.028689
v -1.788269 22.061642 -8.029781
v -1.737315 22.070431 -8.032980
v -1.689500 22.084688 -8.038170
v -1.645185 22.104094 -8.045233
v -1.604732 22.128330 -8.054054
v -1.568500 22.157074 -8.064515
v -1.536852 22.190008 -8.076503
v -1.510148 22.226810 -8.089898
v -1.488750 22.267164 -8.104586
v -1.473019 22.310749 -8.120449
v -1.463315 22.357244 -8.137371
v -1.460000 22.406326 -8.155236
v -1.471609 22.500092 -8.189363
v -1.503704 22.579004 -8.218085
v -1.552188 22.645361 -8.242238
v -1.612963 22.701460 -8.262656
v -1.681933 22.749599 -8.280177
v -1.755000 22.792072 -8.295636
v -1.828067 22.831179 -8.309870
v -1.897037 22.869215 -8.323714
v -1.957813 22.908478 -8.338004
v -2.006297 22.951263 -8.353578
v -2.038392 22.999872 -8.371269
v -2.050000 23.056595 -8.391914
v -2.048156 23.078541 -8.399902
v -2.042750 23.099194 -8.407419
v -2.033969 23.118437 -8.414423
v -2.022000 23.136154 -8.420872
v -2.007032 23.152225 -8.426722
v -1.989250 23.166536 -8.431930
v -1.968844 23.178967 -8.436455
v -1.946000 23.189402 -8.440252
v -1.920907 23.197721 -8.443281
v -1.893750 23.203812 -8.445497
v -1.864719 23.207550 -8.446857
v -1.834000 23.208824 -8.447321
v -1.810593 23.208174 -8.447084
v -1.786408 23.206120 -8.446337
v -1.761500 23.202511 -8.445024
v -1.735926 23.197201 -8.443090
v -1.709741 23.190037 -8.440483
v -1.683000 23.180868 -8.437146
v -1.655759 23.169548 -8.433026
v -1.628074 23.155924 -8.428067
v -1.600000 23.139845 -8.422215
v -1.571593 23.121162 -8.415416
v -1.542908 23.099728 -8.407614
v -1.514000 23.075388 -8.398754
vn 0.0000 0.3420 0.9397
vn -0.0000 0.3419 0.9397
vn 0.0000 0.3418 0.9398
vn 0.0000 0.3421 0.9397
vn -0.0003 0.3462 0.9382
vn -0.0001 0.3425 0.9395
vn 0.0000 0.3422 0.9396
vn -0.0001 0.3420 0.9397
vn 0.0001 0.3420 0.9397
vn -0.0000 0.3423 0.9396
vn 0.0001 0.3410 0.9401
vn -0.0000 0.3415 0.9399
vn -0.0000 0.3421 0.9396
vn -0.0001 0.3419 0.9397
vn -0.0001 0.3421 0.9397
vn 0.0005 0.3423 0.9396
vn -0.0023 0.3439 0.9390
vn 0.0001 0.3419 0.9397
vn -0.0000 0.3416 0.9398
vn 0.0000 0.3425 0.9395
vn -0.0008 0.3411 0.9400
vn 0.0000 0.3419 0.9398
vn 0.0002 0.3417 0.9398
vn -0.0009 0.3429 0.9394
vn 0.0000 0.3417 0.9398
vn -0.0001 0.3428 0.9394
s off
f 9//1 7//1 8//1
f 9//1 10//1 7//1
f 3//1 1//1 2//1
f 3//1 6//1 1//1
f 4//1 6//1 3//1
f 4//1 5//1 6//1
f 49//2 47//2 48//2
f 49//3 46//3 47//3
f 50//4 46//4 49//4
f 50//1 45//1 46//1
f 51//4 45//4 50//4
f 51//1 44//1 45//1
f 52//1 44//1 51//1
f 52//4 43//4 44//4
f 53//1 43//1 52//1
f 53//4 42//4 43//4
f 54//1 42//1 53//1
f 54//1 41//1 42//1
f 55//1 97//1 54//1
f 97//1 41//1 54//1
f 55//5 96//5 97//5
f 98//6 41//6 97//6
f 55//7 95//7 96//7
f 99//7 41//7 98//7
f 55//1 94//1 95//1
f 100//2 41//2 99//2
f 100//1 40//1 41//1
f 55//1 93//1 94//1
f 56//1 93//1 55//1
f 101//4 40//4 100//4
f 56//4 92//4 93//4
f 102//2 40//2 101//2
f 56//1 91//1 92//1
f 103//1 40//1 102//1
f 56//1 90//1 91//1
f 104//1 40//1 103//1
f 57//1 90//1 56//1
f 104//1 39//1 40//1
f 57//1 89//1 90//1
f 105//2 39//2 104//2
f 57//1 88//1 89//1
f 106//4 39//4 105//4
f 58//1 88//1 57//1
f 106//1 38//1 39//1
f 58//4 87//4 88//4
f 107//2 38//2 106//2
f 58//1 86//1 87//1
f 108//1 38//1 107//1
f 59//1 86//1 58//1
f 59//4 85//4 86//4
f 108//1 37//1 38//1
f 109//1 37//1 108//1
f 59//1 109//1 85//1
f 59//1 37//1 109//1
f 60//1 37//1 59//1
f 60//1 36//1 37//1
f 61//1 35//1 60//1
f 35//1 36//1 60//1
f 61//1 34//1 35//1
f 62//1 34//1 61//1
f 62//1 33//1 34//1
f 62//1 32//1 33//1
f 63//1 32//1 62//1
f 63//4 31//4 32//4
f 64//1 31//1 63//1
f 64//1 30//1 31//1
f 12//8 84//8 11//8
f 64//4 29//4 30//4
f 13//8 84//8 12//8
f 14//9 84//9 13//9
f 65//1 29//1 64//1
f 65//2 28//2 29//2
f 15//1 84//1 14//1
f 16//1 84//1 15//1
f 65//4 27//4 28//4
f 17//4 84//4 16//4
f 65//1 26//1 27//1
f 18//2 84//2 17//2
f 66//1 26//1 65//1
f 19//4 84//4 18//4
f 66//4 25//4 26//4
f 20//1 84//1 19//1
f 66//2 24//2 25//2
f 21//1 84//1 20//1
f 22//1 84//1 21//1
f 66//10 23//10 24//10
f 23//7 84//7 22//7
f 66//1 84//1 23//1
f 67//1 84//1 66//1
f 67//4 83//4 84//4
f 68//1 83//1 67//1
f 68//4 82//4 83//4
f 68//1 81//1 82//1
f 69//1 81//1 68//1
f 69//4 80//4 81//4
f 69//1 79//1 80//1
f 70//1 79//1 69//1
f 70//1 78//1 79//1
f 70//1 77//1 78//1
f 71//2 77//2 70//2
f 71//4 76//4 77//4
f 71//2 75//2 76//2
f 71//7 74//7 75//7
f 72//1 74//1 71//1
f 72//11 73//11 74//11
f 151//12 149//12 150//12
f 151//2 148//2 149//2
f 152//13 148//13 151//13
f 152//2 147//2 148//2
f 153//7 147//7 152//7
f 153//2 146//2 147//2
f 153//4 145//4 146//4
f 154//4 145//4 153//4
f 154//2 144//2 145//2
f 111//1 164//1 110//1
f 111//1 163//1 164//1
f 155//4 144//4 154//4
f 155//10 143//10 144//10
f 155//2 142//2 143//2
f 156//2 142//2 155//2
f 156//4 141//4 142//4
f 157//1 141//1 156//1
f 157//4 140//4 141//4
f 157//1 139//1 140//1
f 158//1 139//1 157//1
f 158//4 138//4 139//4
f 159//4 138//4 158//4
f 159//1 128//1 138//1
f 128//14 129//14 138//14
f 129//2 130//2 138//2
f 130//4 131//4 138//4
f 131//1 132//1 138//1
f 132//1 133//1 138//1
f 133//1 134//1 138//1
f 134//15 135//15 138//15
f 135//1 136//1 138//1
f 136//4 137//4 138//4
f 160//4 126//4 159//4
f 126//16 127//16 159//16
f 127//17 128//17 159//17
f 161//1 124//1 160//1
f 124//3 125//3 160//3
f 125//12 126//12 160//12
f 161//10 123//10 124//10
f 161//2 122//2 123//2
f 162//1 122//1 161//1
f 162//4 121//4 122//4
f 162//4 120//4 121//4
f 111//1 162//1 163//1
f 111//1 116//1 162//1
f 116//8 117//8 162//8
f 117//1 118//1 162//1
f 118//1 119//1 162//1
f 119//1 120//1 162//1
f 111//4 115//4 116//4
f 111//18 114//18 115//18
f 111//15 113//15 114//15
f 111//1 112//1 113//1
f 167//1 165//1 166//1
f 167//1 221//1 165//1
f 209//10 207//10 208//10
f 210//19 207//19 209//19
f 210//2 206//2 207//2
f 211//1 206//1 210//1
f 212//1 206//1 211//1
f 212//4 205//4 206//4
f 213//4 205//4 212//4
f 213//2 204//2 205//2
f 214//4 204//4 213//4
f 215//1 204//1 214//1
f 215//1 203//1 204//1
f 216//1 203//1 215//1
f 217//1 203//1 216//1
f 217//1 202//1 203//1
f 218//4 202//4 217//4
f 218//1 201//1 202//1
f 219//2 201//2 218//2
f 220//4 201//4 219//4
f 220//1 181//1 201//1
f 181//1 200//1 201//1
f 167//1 220//1 221//1
f 167//1 169//1 220//1
f 169//1 170//1 220//1
f 170//1 171//1 220//1
f 171//1 172//1 220//1
f 172//1 173//1 220//1
f 173//9 174//9 220//9
f 174//15 175//15 220//15
f 175//1 176//1 220//1
f 176//4 177//4 220//4
f 177//3 178//3 220//3
f 178//20 179//20 220//20
f 179//19 180//19 220//19
f 180//4 181//4 220//4
f 182//21 200//21 181//21
f 183//1 200//1 182//1
f 184//4 200//4 183//4
f 185//2 200//2 184//2
f 185//4 199//4 200//4
f 186//4 199//4 185//4
f 187//1 199//1 186//1
f 188//1 199//1 187//1
f 188//1 198//1 199//1
f 189//1 198//1 188//1
f 190//1 198//1 189//1
f 190//1 197//1 198//1
f 191//1 197//1 190//1
f 167//1 168//1 169//1
f 192//1 197//1 191//1
f 192//1 196//1 197//1
f 193//1 196//1 192//1
f 194//1 196//1 193//1
f 194//1 195//1 196//1
f 235//4 233//4 234//4
f 235//22 232//22 233//22
f 235//3 231//3 232//3
f 236//13 231//13 235//13
f 236//2 230//2 231//2
f 236//1 229//1 230//1
f 237//1 229//1 236//1
f 237//1 228//1 229//1
f 237//1 227//1 228//1
f 238//1 227//1 237//1
f 238//4 226//4 227//4
f 238//1 225//1 226//1
f 239//1 225//1 238//1
f 239//4 224//4 225//4
f 239//1 223//1 224//1
f 240//4 223//4 239//4
f 240//2 222//2 223//2
f 240//1 335//1 222//1
f 335//1 336//1 222//1
f 336//1 337//1 222//1
f 337//1 338//1 222//1
f 338//1 339//1 222//1
f 339//1 340//1 222//1
f 340//1 341//1 222//1
f 341//1 342//1 222//1
f 342//8 343//8 222//8
f 241//1 333//1 240//1
f 333//23 334//23 240//23
f 334//24 335//24 240//24
f 242//1 331//1 241//1
f 331//19 332//19 241//19
f 332//25 333//25 241//25
f 243//1 330//1 242//1
f 330//12 331//12 242//12
f 243//26 329//26 330//26
f 243//1 328//1 329//1
f 243//4 327//4 328//4
f 243//4 326//4 327//4
f 243//1 325//1 326//1
f 244//1 325//1 243//1
f 244//1 324//1 325//1
f 244//1 323//1 324//1
f 244//1 322//1 323//1
f 245//1 322//1 244//1
f 245//1 321//1 322//1
f 245//1 320//1 321//1
f 246//1 320//1 245//1
f 246//1 319//1 320//1
f 246//1 318//1 319//1
f 247//1 318//1 246//1
f 247//1 317//1 318//1
f 247//4 316//4 317//4
f 248//1 316//1 247//1
f 248//1 315//1 316//1
f 249//1 315//1 248//1
f 249//1 314//1 315//1
f 249//1 313//1 314//1
f 250//1 313//1 249//1
f 250//1 312//1 313//1
f 251//1 312//1 250//1
f 251//1 311//1 312//1
f 252//1 311//1 251//1
f 252//1 310//1 311//1
f 253//1 310//1 252//1
f 253//1 309//1 310//1
f 254//1 309//1 253//1
f 255//1 309//1 254//1
f 255//1 308//1 309//1
f 256//1 308//1 255//1
f 257//1 308//1 256//1
f 257//1 307//1 308//1
f 258//1 307//1 257//1
f 283//1 281//1 282//1
f 258//1 306//1 307//1
f 259//4 306//4 258//4
f 283//1 280//1 281//1
f 260//1 306//1 259//1
f 260//1 305//1 306//1
f 283//1 279//1 280//1
f 261//4 305//4 260//4
f 262//1 305//1 261//1
f 283//1 278//1 279//1
f 263//2 305//2 262//2
f 263//1 304//1 305//1
f 283//4 277//4 278//4
f 264//1 304//1 263//1
f 283//1 276//1 277//1
f 265//2 304//2 264//2
f 283//1 275//1 276//1
f 265//1 303//1 304//1
f 266//1 303//1 265//1
f 283//1 274//1 275//1
f 267//4 303//4 266//4
f 283//4 273//4 274//4
f 268//1 303//1 267//1
f 283//1 272//1 273//1
f 269//1 303//1 268//1
f 283//1 271//1 272//1
f 269//1 302//1 303//1
f 270//1 302//1 269//1
f 283//1 270//1 271//1
f 283//1 302//1 270//1
f 283//1 301//1 302//1
f 284//4 301//4 283//4
f 285//1 301//1 284//1
f 285//1 300//1 301//1
f 286//4 300//4 285//4
f 286//1 299//1 300//1
f 287//1 299//1 286//1
f 288//13 299//13 287//13
f 288//1 298//1 299//1
f 289//4 298//4 288//4
f 290//1 298//1 289//1
f 290//4 297//4 298//4
f 291//2 297//2 290//2
f 292//4 297//4 291//4
f 292//2 296//2 297//2
f 293//19 296//19 292//19
f 294//3 296//3 293//3
f 294//1 295//1 296//1
